<svg xmlns="http://www.w3.org/2000/svg" width="30" height="30">
  <path fill="#231F20"
        d="M23.7 9.2V5.5h-.3c-1 0-1.9.8-1.9 1.9 0 1 .8 1.9 1.9 1.9 0-.1.3-.1.3-.1zM20.9 8.4l-1.6-3.3c-.4-.7-1.1-1.1-1.9-1.1h-3.8c-.3 0-.6.3-.6.6 0 .4.3.6.6.6h3.8c.3 0 .6.2.8.5l1 2.1 1.7.6zM28.4 11.8c.5.1.9.6.9 1.1h-2.8c-3.6 0-6.6 2.9-6.6 6.6h-9c0-2.9-1.9-5.4-4.5-6.2l-4.9-1.6.8-1.2c.4-.5.9-.8 1.4-.8h.4l11 3.4c.1 0 .3.1.4.1.5 0 .9-.3 1.2-.6L19.2 9l9.2 2.8z"/>
  <path fill="#231F20"
        d="M21.1 20.7c0-2.5 2-4.5 4.5-4.5s4.5 2 4.5 4.5-2 4.5-4.5 4.5-4.5-2-4.5-4.5zm4.4 1.7c.9 0 1.7-.8 1.7-1.7 0-.9-.7-1.7-1.7-1.7-.9 0-1.7.7-1.7 1.7.1.9.8 1.7 1.7 1.7zM0 20.2c0-2.7 2.2-4.9 4.9-4.9s4.9 2.2 4.9 4.9-2.2 4.9-4.9 4.9S0 22.9 0 20.2zM4.9 22c1 0 1.8-.8 1.8-1.8s-.8-1.8-1.8-1.8-1.8.8-1.8 1.8.8 1.8 1.8 1.8z"/>
</svg>