<svg xmlns="http://www.w3.org/2000/svg" width="30" height="30">
  <path fill="#231f20" d="M12 14h5V8h1v5h2V7l-2-2h-7L9 7v6h2V8h1v6z"/>
  <circle fill="#231f20" cx="14.5" cy="2" r="2"/>
  <path d="M30 29l-.9-2.8a108.2 108.2 0 01-14.2.9 127.4 127.4 0 01-14.1-.8L0 29.1a119.7 119.7 0 0015 .9 104 104 0 0015-1zM2.6 20.9l-.9 2.9a112 112 0 0013.2.7c4.6 0 9-.3 13.3-.7l-.9-2.9a123.6 123.6 0 01-12.4.7c-4.2-.1-8.3-.3-12.3-.7zM15 18.9c4 0 7.8-.2 11.5-.5l-.9-2.9c-3.4.3-7 .5-10.7.5s-7.1-.2-10.5-.5l-.9 2.9c3.7.3 7.5.5 11.5.5z"
        fill="#231f20"/>
</svg>