<svg xmlns="http://www.w3.org/2000/svg" width="30" height="30">
  <path d="M4 6h22v2H4zM4 10h16v2H4zM4 2h22v2H4zM22.1 18.4l-3-3.5V18c-.6 0-1.1-.1-1.7-.1l-2.4-3-.2 3.2c-.7.1-1.4.1-2.1.2L10.8 16l-.1 2.8c-.7.2-1.5.4-2.1.7l-1.9-2.3v3.2c-.5.3-.9.6-1.3.9-.4-.3-.8-.7-1.3-1-.9-.6-3.2-1.2-4.3-1.7l2.5 3.6L0 25.8c1.1-.5 3.3-1 4.3-1.7.5-.3.8-.7 1.3-1 2.7 2 6.8 3.4 11.6 3.4 3.5 0 6.7-.8 9.2-2l.9 2.8 1.1-3.9c.6-.4 1.2-.8 1.6-1.2-1.8-1.8-4.6-3.1-7.9-3.8zm.9 4.1c-.8 0-1.5-.7-1.5-1.5s.7-1.5 1.5-1.5 1.5.7 1.5 1.5-.7 1.5-1.5 1.5z"/>
</svg>