<svg xmlns="http://www.w3.org/2000/svg" width="30" height="30">
  <path d="M12.2 6.4c1.4 0 2.5-1.1 2.5-2.5s-1.1-2.5-2.5-2.5-2.5 1.1-2.5 2.5 1.1 2.5 2.5 2.5z"/>
  <path fill="none"
        d="M20.9 1.4L15.3 7h8c-.2-2.1-1-4-2.4-5.6zM13.1 18.8zM15.9 9.5l5.1 5.1c1.3-1.6 2.2-3.5 2.4-5.6H16v.5z"/>
  <path d="M21.8.5l-.5-.5-6.8 6.8c.2.3.4.7.4 1.1 0 .7-.4 1.5-1.2 1.8-.4.3-.5.3-.9.3H9v8.6l-1.6 9.7c-.1.8.3 1.5 1.1 1.6.8.2 1.5-.3 1.6-1.1l2-10h.9l2 10c.2.8.9 1.2 1.6 1.1.7-.1 1.2-.9 1.1-1.6l-1.9-9.8v-8.2l5.5 5.5.5-.5c1.8-2.1 2.8-4.7 2.8-7.4s-1-5.3-2.8-7.4zm-8.7 18.3zM15.3 7l5.6-5.6C22.3 3 23.1 4.9 23.3 7h-8zm5.6 7.5l-5.1-5.1v-.5h7.4c-.1 2.1-.9 4-2.3 5.6z"/>
  <path d="M12.8 7H6.6c-1.5 0-1.5 1.9 0 1.9h6.2c1.4 0 1.4-1.9 0-1.9z"/>
</svg>