<svg xmlns="http://www.w3.org/2000/svg" width="30" height="30">
  <path d="M3.265 13.354l-1.026 3.372H0L3.812 4.831h2.769l3.868 11.895H8.1l-1.078-3.372H3.265zm3.406-1.639l-.937-2.931c-.227-.723-.423-1.536-.599-2.224H5.1c-.175.688-.371 1.518-.564 2.224l-.92 2.931h3.055zM12.095 5.006c.83-.158 2.028-.265 3.282-.265 1.712 0 2.858.282 3.671.954.654.548 1.023 1.378 1.023 2.4 0 1.536-1.04 2.576-2.17 2.965v.052c.864.32 1.378 1.147 1.66 2.297.386 1.481.706 2.858.933 3.316h-2.221c-.179-.355-.479-1.322-.796-2.807-.355-1.553-.899-2.046-2.135-2.084h-1.095v4.89h-2.152V5.006zm2.153 5.242h1.288c1.467 0 2.366-.775 2.366-1.96 0-1.288-.899-1.904-2.311-1.904-.689 0-1.13.052-1.343.103v3.761zM24.404 6.649h-3.389V4.831H30v1.818h-3.427v10.077h-2.17V6.649zM2.179 24.121S12.8 17.506 27.82 20.74l-3.416 4.518s-10.688-4.73-21.534-.008l-.691-1.129z"/>
</svg>