<svg xmlns="http://www.w3.org/2000/svg" width="30" height="30">
  <path d="M27.3 0h-1.9l-5.6 6.1c.7.4 1.3.8 1.9 1.4.9.9 1.6 2 2.1 3.2L30 3.9V2.6C30 1.2 28.8 0 27.3 0zM7.9 18.7L0 27.1v.1c0 1.5 1.2 2.6 2.6 2.6h3l6.8-7.3c-1.9-.6-3.6-2-4.5-3.8z"/>
  <path d="M23 15c0-4.4-3.6-8-8-8s-8 3.6-8 8h2c0-3.3 2.7-6 6-6s6 2.7 6 6c0 .6-.1 1.2-.3 1.8-1.5 1.6-3.7 4.8-3.7 7.2 0 1-.4 3-2 3-.6 0-1 .4-1 1s.4 1 1 1c2.6 0 4-2.5 4-5 0-1.6 1.7-4.5 3.2-5.9.1-.1.2-.2.2-.4.4-.8.6-1.7.6-2.7zM24 23h2v7h-2z"/>
  <path d="M21 22h8v2h-8z"/>
</svg>