<svg xmlns="http://www.w3.org/2000/svg" width="30" height="30">
  <path fill="#231F20" d="M14 0h2v30h-2z"/>
  <path fill="#231F20"
        d="M9.5 18.8c.2 1.1.5 1.8 1 2.4.9 1 2.4 1.4 4.6 1.4 1.3 0 2.3-.1 3.2-.4 1.5-.5 2.3-1.4 2.3-2.7 0-.8-.4-1.4-1.1-1.8-.8-.4-1.9-.8-3.6-1.1l-2.9-.5c-2.7-.5-4.6-1.1-5.6-1.8-1.7-1.1-2.6-2.7-2.6-5 0-2.1.8-3.8 2.5-5.2S11.5 2 14.8 2c2.7 0 5.1.6 7 1.9 1.9 1.3 3 3.2 3 5.6h-5.2c-.1-1.4-.8-2.4-2.1-3-.9-.4-1.9-.6-3.2-.6-1.4 0-2.6.3-3.4.8S9.7 8.1 9.7 9c0 .8.4 1.4 1.3 1.9.5.3 1.7.6 3.4 1l4.5 1c2 .4 3.5 1 4.5 1.7 1.5 1.1 2.3 2.7 2.3 4.7 0 2.1-.9 3.9-2.7 5.3-1.8 1.4-4.4 2.1-7.7 2.1-3.4 0-6-.7-8-2.1-1.9-1.4-2.9-3.3-2.9-5.7h5.1z"/>
</svg>