<svg xmlns="http://www.w3.org/2000/svg" width="30" height="30">
  <path d="M24.6 5C26.7 5 29 9.1 29 15s-2.3 10-4.4 10H5.4C3.3 25 1 20.9 1 15S3.3 5 5.4 5h19.2m0-1H5.4C2.4 4 0 8.9 0 15s2.4 11 5.4 11h19.2c3 0 5.4-4.9 5.4-11S27.6 4 24.6 4z"/>
  <path d="M15.9 19.8c2.7 0 4.8-2.2 4.8-4.8 0-2.7-2.2-4.8-4.8-4.8h-3v9.7l3-.1m-.3-7.4c1.4 0 2.6 1.2 2.6 2.6s-1.1 2.6-2.6 2.6h-.7v-5.2h.7zM9.2 10.2l-6.9 9.7h3.1l.8-1.3h3.5v1.3h2.1v-9.7H9.2zm.6 6.4H7.5l2.2-3.5v3.5h.1zM26.4 10.2h-1.2c1.3 1.3 2.1 3.2 2.1 5.1 0 1.7-.6 3.3-1.7 4.6h1.1c1-1.3 1.5-2.9 1.5-4.6 0-1.9-.6-3.7-1.8-5.1z"/>
  <path d="M23.9 10.2h-1.2c1.3 1.3 2.1 3.2 2.1 5.1 0 1.7-.6 3.3-1.7 4.6h1.2c1-1.3 1.5-2.9 1.5-4.6 0-1.9-.7-3.7-1.9-5.1z"/>
  <path d="M21.5 10.2h-1.2c1.3 1.3 2.1 3.2 2.1 5.1 0 1.7-.6 3.3-1.7 4.6h1.1c1-1.3 1.5-2.9 1.5-4.6.1-1.9-.6-3.7-1.8-5.1z"/>
</svg>