<svg xmlns="http://www.w3.org/2000/svg" width="30" height="30">
  <path fill="none" d="M22.6 5.5c-.1-.3-.4-.5-.7-.5H8.1c-.3 0-.6.2-.7.5L5.1 11H25l-2.4-5.5z"/>
  <path d="M30 14.6c0-1.7-1.1-3.1-2.7-3.5l-2.8-6.4c-.4-1-1.4-1.6-2.5-1.6H7.9c-1.1 0-2.1.7-2.5 1.6l-2.8 6.4c-1.5.4-2.6 1.8-2.6 3.5V22h2v2.5C2 25.9 3.1 27 4.5 27S7 25.9 7 24.5V22h16v2.5c0 1.4 1.1 2.5 2.5 2.5s2.5-1.1 2.5-2.5V22h2v-7.4zM27 16c0 1.1-.9 2-2 2s-2-.9-2-2 .9-2 2-2 2 .9 2 2zM7.4 5.5c.1-.3.4-.5.7-.5h13.7c.3 0 .6.2.7.5l2.4 5.5H5.1l2.3-5.5zM5 14c1.1 0 2 .9 2 2s-.9 2-2 2-2-.9-2-2 .9-2 2-2z"/>
</svg>