<svg xmlns="http://www.w3.org/2000/svg" width="30" height="30">
  <path d="M24.2 27.9L21 17.8l-.1-8.1c0-1.1-1.1-1-1.1-1H15s-.2 0-.6.3L12 10.4 9.4 7.8c-.5-.5-1.2-.6-1.7-.2-.5.5-.6 1.2-.1 1.7l3.3 3.3c.2.2.5.4.9.4.3 0 .5-.1.7-.2l2.5-1.2v5.9l-3.2 10.3c-.2.9.3 1.8 1.2 2.1.9.2 1.8-.3 2.1-1.2l2.9-8.9 3 8.9c.2.9 1.2 1.4 2.1 1.2.8-.2 1.3-1.1 1.1-2zM7 10.5c.1.1.3.1.4 0 .1-.1.1-.3 0-.4l-.6-.7c-.1-.1-.3-.1-.4 0-.1.1-.1.3 0 .4l.6.7z"/>
  <path d="M13.2 2.9L9.4 7.1l.5.5 4.3-3.7L17 1.2c.1-.1.2-.3.2-.5 0-.4-.3-.7-.7-.7-.2 0-.4.1-.5.2l-2.8 2.7z"/>
  <circle cx="17.5" cy="5.5" r="2.2"/>
</svg>