<svg xmlns="http://www.w3.org/2000/svg" width="30" height="30">
  <path d="M3.3 15.9c-.5-.7-.8-1.5-.9-2.4h-.3c-.7 0-1.3-.6-1.3-1.3 0-.4.2-.8.6-1.1L5 8.6c.8-.5 1.7-.8 2.6-.8h9l6.6-1.1v-.1c0-.7.5-1.2 1.2-1.2s1.2.5 1.2 1.2v.3l.6.1c.7.1 1.2.8 1.2 1.5v.1l2 1.1c.3.1.5.4.5.7 0 .1 0 .2-.1.3l-.4 1.3c-.2.4-.7.7-1.1.7l-4.5.5-4.1 4.8 2.3 4 1.5.7c.2.2.4.4.4.8 0 .5-.4.9-.9.9h-2.9c-.8 0-1.4-.4-1.7-1l-2.5-4.5h-5.7l2 3.1 1.5.7c.3.2.5.5.5.8 0 .5-.4.9-.9.9h-2.9c-.7 0-1.4-.4-1.7-1L5.8 19l-1.9 1.9-.2 1.2.6.4c.1.1.2.1.3.2.3.4.3 1-.1 1.3-.2.1-.4.2-.6.2H2.6c-.4 0-.7-.2-.9-.5L.2 21.1c-.1-.2-.2-.5-.2-.9 0-.5.2-1 .5-1.3l2.8-3z"/>
</svg>