<svg xmlns="http://www.w3.org/2000/svg" width="30" height="30">
  <path d="M11 7.8V6.2C11 5.3 9.9 4 9 4H6v.1C5.4 3.4 4.5 3 3.5 3 1.6 3 0 4.6 0 6.5c0 1.7 1.2 3.1 2.7 3.4-.4.3-.7.7-.7 1V30h9V10.9c0-.9-1.2-1.6-2.1-1.6.9.1 2.1-.7 2.1-1.5zM2 6.5C2 5.7 2.7 5 3.5 5S5 5.7 5 6.5 4.3 8 3.5 8 2 7.3 2 6.5zM12 6h2v1h-2zM14 5h2v1h-2zM14 7h2v1h-2zM22 2h1v1h-1zM22 10h1v1h-1zM20 11h1v1h-1zM24 3h1v1h-1zM24 9h1v1h-1zM28 6h1v1h-1zM20 6h2v1h-2zM20 1h1v1h-1zM23 6h2v1h-2zM26 6h1v1h-1zM18 7h2v1h-2zM18 5h2v1h-2zM20 9h1v1h-1zM20 3h1v1h-1zM22 4h1v1h-1zM22 8h1v1h-1zM23 0h1v1h-1zM23 12h1v1h-1zM16 6h2v1h-2zM16 4h2v1h-2zM16 8h2v1h-2zM18 3h1v1h-1zM18 9h1v1h-1zM25 1h1v1h-1zM25 11h1v1h-1zM27 3h1v1h-1zM27 9h1v1h-1zM25 7h1v1h-1zM25 5h1v1h-1z"/>
</svg>