<svg xmlns="http://www.w3.org/2000/svg" width="30" height="30">
  <path d="M18.1 23.9c.1.6.2 1 .5 1.3.4.5 1.2.8 2.3.8.7 0 1.2-.1 1.6-.2.8-.3 1.2-.8 1.2-1.5 0-.4-.2-.8-.6-1-.4-.2-1-.4-1.8-.6l-1.4-.3c-1.4-.3-2.3-.6-2.8-1-.9-.6-1.3-1.5-1.3-2.8 0-1.2.4-2.1 1.3-2.9s2.1-1.2 3.8-1.2c1.4 0 2.6.4 3.5 1.1 1 .7 1.5 1.8 1.5 3.2h-2.6c0-.8-.4-1.3-1-1.7-.4-.2-1-.3-1.6-.3-.7 0-1.3.1-1.7.4s-.6.7-.6 1.2.2.8.6 1c.3.2.8.3 1.7.5l2.3.5c1 .2 1.7.5 2.2.9.8.6 1.2 1.5 1.2 2.6 0 1.2-.5 2.2-1.4 2.9-.9.8-2.2 1.2-3.9 1.2-1.7 0-3-.4-4-1.2-1-.8-1.5-1.8-1.5-3.2h2.5zM12 7.8V6.2c0-.9-1.1-2.2-2-2.2H7v.1C6.4 3.4 5.5 3 4.5 3 2.6 3 1 4.6 1 6.5c0 1.7 1.2 3.1 2.7 3.4-.4.3-.7.7-.7 1V30h9V10.9c0-.9-1.2-1.6-2.1-1.6.9.1 2.1-.7 2.1-1.5zM3 6.5C3 5.7 3.7 5 4.5 5S6 5.7 6 6.5 5.3 8 4.5 8 3 7.3 3 6.5zM13 6h2v1h-2zM15 5h2v1h-2zM15 7h2v1h-2zM23 2h1v1h-1zM23 10h1v1h-1zM21 11h1v1h-1zM25 3h1v1h-1zM25 9h1v1h-1zM29 6h1v1h-1zM21 6h2v1h-2zM21 1h1v1h-1zM24 6h2v1h-2zM27 6h1v1h-1zM19 7h2v1h-2zM19 5h2v1h-2zM21 9h1v1h-1zM21 3h1v1h-1zM23 4h1v1h-1zM23 8h1v1h-1zM24 0h1v1h-1zM24 12h1v1h-1zM17 6h2v1h-2zM17 4h2v1h-2zM17 8h2v1h-2zM19 3h1v1h-1zM19 9h1v1h-1zM26 1h1v1h-1zM26 11h1v1h-1zM28 3h1v1h-1zM28 9h1v1h-1zM26 7h1v1h-1zM26 5h1v1h-1z"/>
  <path d="M20 13h2v17h-2z"/>
</svg>