<svg xmlns="http://www.w3.org/2000/svg" width="30" height="30">
  <path d="M25.5 9.2s-.2 3.9-3.7 3.6c0 0-.4-3.3 3.7-3.6zM22.7 14.3c.5-.4 1.1-.7 1.8-.7 1.4 0 2.5 1.1 2.5 2.5v.1c0 .5-.2 1.2-.6 2.1 0 0-.7 1.3-1.3 2H25c-.3.3-.7.4-1.1.4-.5 0-1-.2-1.2-.6-.3.4-.7.6-1.2.6-.4 0-.8-.2-1.1-.4h-.1c-.6-.6-1.3-2-1.3-2-.4-.8-.6-1.5-.6-2.1v-.1c0-1.4 1.1-2.5 2.5-2.5.8 0 1.4.3 1.8.7M13.3 13.6L10 11.8v-.2c0-1.3-.9-2.3-2-2.6l-1-.1v-.5c0-1.1-.9-2-2-2s-2 .9-2 2v.2L0 9v14.6l3.8-4.4 7.6-.9c.8-.1 1.5-.6 1.9-1.2l.8-1.9c.1-.2.1-.3.1-.5-.1-.5-.4-1-.9-1.1z"/>
  <path d="M22.5 2C18.4 2 15 3.1 15 4.5v21c0 1.4 3.4 2.5 7.5 2.5s7.5-1.1 7.5-2.5v-21C30 3.1 26.6 2 22.5 2zM17 25.2v-19c1.4.5 3.3.8 5.5.8s4.1-.3 5.5-.8v19c-1.4.5-3.3.8-5.5.8s-4.1-.3-5.5-.8z"/>
</svg>