<svg xmlns="http://www.w3.org/2000/svg" width="30" height="30">
  <path d="M12 7.8V6.2c0-.9-1.1-2.2-2-2.2H7v.1C6.4 3.4 5.5 3 4.5 3 2.6 3 1 4.6 1 6.5c0 1.7 1.2 3.1 2.7 3.4-.4.3-.7.7-.7 1V30h9V10.9c0-.9-1.2-1.6-2.1-1.6.9.1 2.1-.7 2.1-1.5zM3 6.5C3 5.7 3.7 5 4.5 5S6 5.7 6 6.5 5.3 8 4.5 8 3 7.3 3 6.5zM13 6h2v1h-2zM15 5h2v1h-2zM15 7h2v1h-2zM23 2h1v1h-1zM23 10h1v1h-1zM21 11h1v1h-1zM25 3h1v1h-1zM25 9h1v1h-1zM29 6h1v1h-1zM21 6h2v1h-2zM21 1h1v1h-1zM24 6h2v1h-2zM27 6h1v1h-1zM19 7h2v1h-2zM19 5h2v1h-2zM21 9h1v1h-1zM21 3h1v1h-1zM23 4h1v1h-1zM23 8h1v1h-1zM24 0h1v1h-1zM24 12h1v1h-1zM17 6h2v1h-2zM17 4h2v1h-2zM17 8h2v1h-2zM19 3h1v1h-1zM19 9h1v1h-1zM26 1h1v1h-1zM26 11h1v1h-1zM28 3h1v1h-1zM28 9h1v1h-1zM26 7h1v1h-1zM26 5h1v1h-1zM24.8 21.6l1.2 2-.2.4H23v-2l-2 3 2 3v-2h3.9l1.4-2.4-1.8-3zM16.1 23.6l1.1-2.1 1.6.9-1.6-3.2-3.5.2 1.8 1.1-1.8 3.1 1.4 2.4H19v-2h-2.7zM22.7 18l-1.6 1 3.6.2 1.6-3.2-1.8 1-2.1-3.6h-2.8l-2 3.5 1.7 1.1 1.5-2.6h.4z"/>
</svg>