<svg xmlns="http://www.w3.org/2000/svg" width="30" height="30">
  <path d="M9.946 10.365c-.558-3.582 4.606-4.666 5.434-1.009l1.41 7.014 5.248.012c1.531 0 2.326 1.224 2.326 2.359v9.533c0 2.317-3.299 2.303-3.299-.042v-7.421h-6.7c-1.563 0-2.545-1.072-2.787-2.298l-1.632-8.148z"/>
  <circle transform="rotate(-89.782 12.41 3.09)" cx="12.409" cy="3.091" r="3.092"/>
  <path d="M5.671 14.12c-.363-1.991 2.252-2.466 2.615-.475l1.159 6.244a3.693 3.693 0 002.568 2.819c.419.121.851.137 1.265.167l3.787.019c2.01-.009 2 2.643-.023 2.633l-3.983-.019a6.352 6.352 0 01-6.267-5.169L5.671 14.12z"/>
</svg>