<svg xmlns="http://www.w3.org/2000/svg" width="30" height="30">
  <g fill="#231F20">
    <path d="M17.2 12.5l-1.5-2.3-3.1 3 2.8 1.5c1.2.6 1 1.6 1 1.6v6.4c0 .7-.6 1.3-1.3 1.3s-1.3-.6-1.3-1.3v-5.1L9 14.8c-.6-.3-1-1-1-1.7 0-.5.2-.9.5-1.3L13 7h2l1 1 2.8 3.3h3.8c1.4 0 1.4 1.7 0 1.7h-4l-1.4-.5z"/>
    <path d="M24 27c2.8 0 5-2.2 5-5s-2.2-5-5-5-5 2.2-5 5 2.2 5 5 5zm-6-5c0-3.3 2.7-6 6-6s6 2.7 6 6-2.7 6-6 6-6-2.7-6-6zM6 27c2.8 0 5-2.2 5-5s-2.2-5-5-5-5 2.2-5 5 2.2 5 5 5zm-6-5c0-3.3 2.7-6 6-6s6 2.7 6 6-2.7 6-6 6-6-2.7-6-6z"/>
    <circle cx="17.5" cy="4.5" r="2.5"/>
  </g>
</svg>