<svg xmlns="http://www.w3.org/2000/svg" width="30" height="30">
  <path d="M21.9 5.4l-2.3.8L17 4.5c-.1.9.2 2.7 2 3.4.5.3 1.8.7 2.4 1.2.7.7.7.8 1.4 3l3.4 10.8c.2.7.9 1.1 1.6.9.7-.2 1.1-.9.9-1.6L24.4 8.6c-.3-.9-.2-2.1.1-3 .5-1.6-.1-3.3-1.6-4.2-1.2-.7-2.7-.8-3.7-.2l2.5 1.7.2 2.5zM13.7 13.5c-.5 0-1 .1-1.4.1L8.8 2.5C8.3 1 6.7 0 5.2 0c-.9 0-2.7-.3-2.7 1.2s1.9 1.1 2.8 1.1c.5 0 1.2.5 1.4 1l.9 2.8H0v2.3h8.3l.1.3L0 17.2c.1 1 0 2.1 0 3.1l9.2-9.2 1 3.2c-2.8 1.3-4.7 4.2-4.7 7.4 0 4.6 3.7 8.3 8.3 8.3 4.6 0 8.3-3.7 8.3-8.3-.1-4.5-3.8-8.2-8.4-8.2m0 14.4c-3.4 0-6.1-2.7-6.1-6.1 0-2.3 1.3-4.3 3.2-5.3l1.8 5.7c.2.6.8.9 1.4.7.6-.2.9-.8.7-1.4L13 15.7c.3 0 .5-.1.8-.1 3.4 0 6.1 2.7 6.1 6.1 0 3.4-2.8 6.2-6.2 6.2"/>
</svg>