<svg xmlns="http://www.w3.org/2000/svg" width="30" height="30">
  <path d="M13.747 13.495c-.489 0-.966.051-1.428.133L8.802 2.487C8.337 1.02 6.67.042 5.203.03 4.28.022 2.508-.271 2.508 1.157c0 1.518 1.901 1.068 2.828 1.115.513.027 1.201.548 1.358 1.045l.884 2.789H0V8.37h8.293l.106.332L0 17.173c.094 1.017-.004 2.105 0 3.13l9.17-9.174 1.002 3.188c-2.766 1.334-4.679 4.155-4.679 7.433 0 4.558 3.697 8.25 8.254 8.25a8.254 8.254 0 100-16.505m0 14.373a6.117 6.117 0 01-6.119-6.118c0-2.32 1.299-4.311 3.196-5.348l1.799 5.727c.188.595.829.919 1.424.731a1.14 1.14 0 00.735-1.42l-1.811-5.735c.258-.031.509-.078.775-.078a6.12 6.12 0 016.118 6.122 6.115 6.115 0 01-6.117 6.119"/>
  <path d="M24.273 12.052c1.541 0 2.793 1.522 2.793 3.388V30H30V15.44c0-3.486-2.566-6.322-5.727-6.322h-3.546C17.566 9.118 15 11.954 15 15.44V30h2.934V15.44c0-1.866 1.252-3.388 2.793-3.388h3.546z"/>
</svg>