<svg xmlns="http://www.w3.org/2000/svg" width="30" height="30">
  <path d="M23 21.6l5.1.4-.4-2.6-3.7-.3c-1 0-.9 1-.9 1l-.1 1.5zM13.8 20.9c.9 0 1.7-.8 1.7-1.7 0-.9-.8-1.7-1.7-1.7-.9 0-1.7.8-1.7 1.7 0 .9.8 1.7 1.7 1.7z"/>
  <path d="M3.2 27.5c.2-.1.4-.1.6-.2.5-.3 1.1-.4 1.8-.4.6 0 1.2.1 1.8.4.5.2 1.1.4 1.7.4.6 0 1.2-.1 1.7-.4.5-.3 1.1-.4 1.8-.4.6 0 1.2.1 1.8.4.5.2 1.1.4 1.7.4.6 0 1.2-.1 1.7-.4.5-.3 1.1-.4 1.8-.4.6 0 1.2.1 1.8.4.5.2 1.1.4 1.7.4.6 0 1.2-.1 1.7-.4.5-.3 1.1-.4 1.8-.4.6 0 1.2.1 1.8.4.5.2 1.1.4 1.7.4l-.6-4.6-21.8-1.9 3.2-3.2-1.6-.1-3.2 3.2-6.1-.5c0 2.4 2.6 6.3 3.2 6.9zM4 6h22v2H4zM4 10h16v2H4zM4 2h22v2H4z"/>
</svg>