<svg xmlns="http://www.w3.org/2000/svg" width="30" height="30">
  <path d="M1.5 26.2v-.7h8.3l-.3.9c-.1.4 0 .8.1 1.1H2.7c-.6-.1-1.2-.6-1.2-1.3zM11 10v14H2.9l5.4-4.5V10c.5-.1 2.2 0 2.7 0zm1.3 17.5h-.4c-.2-.2-.3-2-.1-2h.6c.3-.1.5-.4.5-.7V9.2c0-.4-.3-.8-.8-.8H8.2V6.7c0-.3-.2-.6-.5-.7-.2-.2-.5-.1-.7.1l-5.3 5.2c-.9.9-1.7 2.7-1.7 4v10.9C0 27.7 1.2 29 2.8 29h9.5c.4 0 .8-.5.8-1-.1 0-.4-.5-.8-.5zM28 8h-2.5l2.9-1.2c.3-.1.5-.5.3-.8-.1-.3-.5-.5-.8-.3 0 0-1.6.7-3.3 1.3l2.7-2.7c.1-.1.2-.3.2-.4 0-.2-.1-.3-.2-.4-.2-.2-.6-.2-.9 0l-3.8 3.7V1.9c0-.3-.3-.6-.6-.6s-.6.3-.6.6v5.3L18 3.8c-.2-.2-.6-.2-.9 0-.2.2-.2.6 0 .9l2.3 2.4L16 5.8c-.3-.1-.7 0-.8.3-.1.3 0 .7.3.8L18.7 8H16c-1.1 0-2 .9-2 2v17c0 1.1.9 2 2 2h12c1.1 0 2-.9 2-2V10c0-1.1-.9-2-2-2zm-7 19h-5v-9h5v9zm0-11h-5v-6h5v6zm7 11h-5v-9h5v9zm0-11h-5v-6h5v6z"/>
</svg>