<svg xmlns="http://www.w3.org/2000/svg" width="30" height="30">
  <g fill="#231F20">
    <path d="M23 28c-.5 0-.8-.4-.8-1s.3-1 .8-1c.6 0 1-.4 1-1s-.4-1-1-1c-1.7 0-2.8 1.4-2.8 3s1.1 3 2.8 3c.6 0 1-.4 1-1s-.4-1-1-1z"/>
    <path d="M7 26c0 1.7.8 2.9 2 3.5.8.4 1.5.5 2 .5h12c.6 0 1-.4 1-1s-.4-1-1-1H11c-.2 0-.6-.1-1-.3-.6-.3-1-.8-1-1.7 0-.6-.5-1-1-1s-1 .5-1 1z"/>
    <path d="M9 10c0-.2.2-.6.4-.8l6.2-4.4-.6.2h7v19H9V10zm-2 0v14c0 1.1.9 2 2 2h13c1.1 0 2-.9 2-2V5c0-1.1-.9-2-2-2h-7.3l-.3.2-6.2 4.4C7.5 8.1 7 9.1 7 10z"/>
    <path d="M7 9c0-.5.4-1.3.8-1.6L17.2.6c.4-.3.8-.1.8.4v15c0 .6-.3 1.3-.8 1.6l-9.5 7.7c-.4.4-.7.3-.7-.3V9z"/>
  </g>
</svg>