<svg xmlns="http://www.w3.org/2000/svg" width="30" height="30">
  <path d="M23 0c.7 0 1.3.6 1.3 1.3v4c0 .7-.6 1.3-1.3 1.3-.7 0-1.3-.6-1.3-1.3v-4c0-.7.6-1.3 1.3-1.3M14.9 13.4H17v11.7h-2.3v-9l-2 1.6-1.2-1.5 3.4-2.8z"/>
  <path d="M25.6 3.7v1.6C25.6 6.7 24.4 8 23 8c-1.5 0-2.7-1.2-2.7-2.7V3.7H9.7v1.6C9.7 6.7 8.5 8 7 8 5.6 8 4.4 6.7 4.4 5.3V3.7h-4V30h29.2V3.7h-4zm2.4 19l-5.8 5.7H2v-18h26v12.3z"/>
  <path d="M7 0c.7 0 1.3.6 1.3 1.3v4c0 .7-.6 1.2-1.3 1.2-.6 0-1.2-.5-1.2-1.2v-4C5.8.6 6.4 0 7 0M23 0c.7 0 1.3.6 1.3 1.3v4c0 .7-.6 1.3-1.3 1.3-.7 0-1.3-.6-1.3-1.3v-4c0-.7.6-1.3 1.3-1.3"/>
</svg>