<svg xmlns="http://www.w3.org/2000/svg" width="30" height="30">
  <path d="M29.7 7.5c-.6.7-1.3.7-1.3.7l-19.8.4c-1.8.1-2.1 1.5-2.2 2.3-.2-.3-.5-.4-.8-.4-.5 0-1 .4-1 1 0 .5.4 1 1 1 .4 0 .7-.2.8-.5.1.5.3 1.3 1 1.8L4.3 19l-1.8.2v-.6l-2.5.2.3 3.2 5.7-.7 3.1-5.1 1.6-2.4 1.1.5 1.9 1.9-.3.6H10v.6h3.4c0 .2.1.5.2.7l-2.3 2.3.4.4 2.3-2.3c.2.1.4.2.7.3V22h.6v-3.4l.6-.3 2.4 2.4.4-.4-2.4-2.4c.1-.2.2-.4.2-.6H20v-.6h-3.6c0-.2-.1-.3-.2-.5l2.5-2.5-.3-.3 10.2-1.9s.7-.1 1.4.5l-.3-4.5zm-15 6.4v1.7c-.2 0-.4.1-.5.2l-1.6-1.6 2.1-.3zm1.1 1.9c-.1-.1-.3-.2-.5-.2v-1.8l2.9-.4-2.4 2.4z"/>
  <path d="M15 11c-3.3 0-6 2.7-6 6s2.7 6 6 6 6-2.7 6-6-2.7-6-6-6zm0 10c-2.2 0-4-1.8-4-4s1.8-4 4-4 4 1.8 4 4-1.8 4-4 4z"/>
</svg>