<svg xmlns="http://www.w3.org/2000/svg" width="30" height="30">
  <g fill="#231F20">
    <circle cx="10.5" cy="3.5" r="2.5"/>
    <path d="M0 26.7l2-.7h1l3 1h1l3-1h1l3 1h1l3-1h1l3 1h1l3-1h1l3 1v-3l-3-1h-1l-3 1h-1l-3-1h-1l-3 1h-1l-3-1h-1l-3 1H6l-3-1H2l-2 .7zM3 21l3 1h1l3-1h1l3 1h1l3-1h1l3 1h1l3-1h1l1.1.4c.7-.9 1.1-1.9 1.1-3.1 0-2.8-2.3-5.1-5.1-5.1l-.6.1C23 15.8 21 16 21 16H9l-1.1-.7 2.3-3.9 2.6 1.5c1.5 1 2.3-.4 2.3-.4l2.6-4.2c1.1-1.8-1.3-3.2-2.4-1.4l-1.8 2.9-4.2-2.4c-3-1.6-4.2 1.1-4.2 1.1l-3.3 5.7c-.6 1.2-.1 1.7-.1 1.7H0v5.7l2-.6h1z"/>
  </g>
</svg>