<svg xmlns="http://www.w3.org/2000/svg" width="30" height="30">
  <path d="M19.7 2.1c-.3 0-.5-.3-.5-.5s.1-.4.3-.5c-.2-.1-.3-.3-.3-.5 0-.3.2-.6.6-.6h3.4c.3 0 .6.2.6.6 0 .2-.1.4-.3.5.2.1.3.3.3.5 0 .3-.2.5-.5.5l3.3 9c.2.6.3 1.2.3 1.9v16c0 .6-.5 1.1-1.1 1.1h-8.7c-.6 0-1.1-.5-1.1-1.1V13c0-.7.1-1.3.3-1.9l3.4-9zM6.5 11.7c0 .1.1.2.1.3 0 .4-.3.7-.7.7-.1 0-.3-.1-.4-.1l-1.8-1.5c-.2-.2-.3-.5-.3-.9-.1-.6.5-1.2 1.2-1.2.5 0 1 .3 1.2.8l.7 1.9zM5 11.5c.1.1.2.1.3.1.2 0 .4-.2.4-.4 0-.1 0-.1-.1-.2l-.4-1c-.1-.2-.3-.4-.6-.4s-.6.3-.6.7c0 .2.1.3.2.4l.8.8zM12.6 13c.2 0 .4.2.4.4v.2c0 .2-.2.4-.4.4h-.4c.4.3.8.8.8 1.3v13.4c0 .7-.6 1.2-1.2 1.2H4.3c-.7.1-1.3-.5-1.3-1.1V15.4c0-.6.3-1 .8-1.3h-.4c-.2-.1-.4-.2-.4-.5v-.2c0-.2.2-.4.4-.4h9.2z"/>
</svg>