<svg xmlns="http://www.w3.org/2000/svg" width="30" height="30">
  <path fill="#231F20"
        d="M19.9 5c-.2-1.1-1.2-2-2.4-2C16.1 3 15 4.1 15 5.5c0 .2 0 .3.1.5H17v1h-1.5c.5.6 1.2 1 2 1 1.2 0 2.2-.9 2.4-2H17V5h2.9zM12.2 7.1c.3-.2.3-.6.1-.9l-1.2-1.5c-.2-.3-.6-.3-.9-.1L5 8.8c-.3.2-.3.6-.1.9l1.2 1.5c.2.3.6.3.9.1l5.2-4.2zM7.1 13c-.3.2-.5.5-.7.8s-.3.7-.3 1l-1.5 6.3L.5 25c-.1.1-.2.2-.3.4-.4.7-.2 1.7.6 2.1.6.3 1.3.2 1.8-.2L7.1 23c.1-.1.1-.2.2-.3.1-.1.1-.2.2-.4l.9-4 3 3v5.1c0 .5.3 1.1.8 1.4.7.4 1.7.2 2.1-.6.1-.3.2-.6.2-.8v-5.6c0-.4-.1-.8-.4-1.1l-3.2-3.2 3.7-3.1.9 2.4c.1.2.2.3.3.4l3.6 2.7c.5.3 1.1.2 1.5-.2.5-.5.4-1.3-.1-1.7l-3.1-2.4-1.5-4.3c-.2-.6-.6-1-1.2-1.4-1-.5-2.1-.5-3 .1l-4.9 4zM21 5.1c-.1-.1-.2-.2-.2-.4 0-.3.2-.5.5-.5H29c.8 0 1.3 2.2.7 4-.5 1.6-2 3.7-2.7 3l-6-6.1z"/>
</svg>