<svg xmlns="http://www.w3.org/2000/svg" width="30" height="30">
  <path d="M25.9 22.6c1.1-.4 1.8-1.6 1.4-2.7l-.8.3c.2.7-.2 1.4-.8 1.6L3.9 29.2l.3.8 21.7-7.4zM5.9 9.8C7.1 9.5 7.8 8.2 7.4 7c-.3-1.2-1.6-1.9-2.8-1.5-1.2.3-1.8 1.6-1.5 2.8.4 1.2 1.6 1.9 2.8 1.5z"/>
  <path d="M5 12.9C3.8 10.7 7.2 8.8 8.5 11l2.5 4.7 4.7-1.3c.8-.2 1.8.6 1.8 1.6v6.6c0 1.6-2.4 1.7-2.4 0v-4.8l-4.9 1.5c-1.1.3-1.9-.2-2.4-1L5 12.9z"/>
  <path d="M11 0h2v14h-2zM2.7 16c-.7-1.3 1.1-2.2 1.7-.9l2.1 4.1c.5.9 1.4 1.5 2.5 1.5.3 0 .6-.1.9-.1l2.7-.8c1.4-.4 2 1.4.5 1.9l-2.8.8c-.4.1-.9.2-1.3.2-1.8 0-3.3-1-4.1-2.5L2.7 16z"/>
</svg>