<svg xmlns="http://www.w3.org/2000/svg" width="30" height="30">
  <path d="M3.4 12.8l-.3.9v.5l.1 7.6-2.6 5.6c-.1.2-.2.4-.2.6-.1 1 .5 1.8 1.5 2 .7.1 1.4-.3 1.7-.9l2.9-6.2c.1-.1.1-.3.1-.5v-4.9l4.4 1.9.7 4.6c.1.7.7 1.2 1.4 1.3.9.1 1.8-.5 1.9-1.4v-.5l-.8-5.4c-.1-.5-.5-1-1-1.2l-4-1.8 2.5-4.4 1.2 1.6c.1.1.3.3.5.3l4.8 1.4c.6.1 1.3-.2 1.5-.8.3-.7-.1-1.5-.7-1.8h-.1l-4.1-1.2-3.1-3.7c-.5-.5-1.1-.8-1.8-1-1.2-.2-2.4.4-3 1.5l-3.5 5.9z"/>
  <path d="M17.1 23.7l-.3 2.3-8.2 2 .1 1.4h20c.7 0 1.3-.6 1.3-1.3V1.2L27.3.6l-1.6 7.1-2.7 1-2.3 6.5 2.2 5-.6 1.9-5.2 1.6z"/>
  <circle transform="rotate(-9.213 11.537 2.548)" cx="11.5" cy="2.5" r="2.5"/>
  <path d="M6.5 5.5c.2-.3.1-.8-.3-1L5 3.8c-.4-.2-.8-.1-1 .3L.2 10.7c-.2.3-.1.8.3 1l1.2.7c.3.2.8.1 1-.3l3.8-6.6z"/>
</svg>