<svg xmlns="http://www.w3.org/2000/svg" width="30" height="30">
  <path d="M5.8 10h-2V9c-.1-.1-.4-.2-.5-.3-.6-.3-1.7-.8-1.7-2s1.1-1.7 1.7-2c.1-.1.3-.2.4-.2-.1-.2-.3-.3-.4-.3-.6-.3-1.7-.8-1.7-2V1h2v1c.1.1.4.3.6.4.6.3 1.7.8 1.7 2s-1.1 1.7-1.7 2c-.2.1-.3.2-.5.2.2.1.3.2.5.3.6.3 1.7.8 1.7 2V10zM12.6 10h-2V9c-.1-.1-.4-.2-.6-.3-.6-.3-1.7-.8-1.7-2S9.4 5 10 4.7c.1-.1.3-.2.4-.2-.1-.1-.3-.2-.4-.2-.6-.3-1.7-.8-1.7-2V1h2v1c.1.1.4.2.6.3.6.3 1.7.8 1.7 2s-1.1 1.7-1.7 2c-.1.1-.3.2-.4.2.1.1.3.2.4.2.6.3 1.7.8 1.7 2V10zM19.4 10h-2V9c-.1-.1-.4-.2-.6-.3-.6-.3-1.7-.8-1.7-2s1.1-1.7 1.7-2c.1-.1.3-.2.4-.2-.1-.1-.3-.2-.4-.2-.6-.3-1.7-.8-1.7-2V1h2v1c.1.1.4.2.6.3.6.3 1.7.8 1.7 2s-1.1 1.7-1.7 2c-.1.1-.3.2-.4.2.1.1.3.2.4.2.6.3 1.7.8 1.7 2V10zM29 16.5c0-1.2-.9-2.2-2-2.4V14h-6v-2H1v14.5C1 27.9 2.1 29 3.5 29h15c1.4 0 2.5-1.1 2.5-2.5V26h6v-.1c1.1-.2 2-1.2 2-2.4 0-.2 0-.3-.1-.5h.1v-6h-.1c.1-.2.1-.3.1-.5zm-3 2.4V23h-5v-6h5v1.9z"/>
</svg>