<svg xmlns="http://www.w3.org/2000/svg" width="30" height="30">
  <path d="M29 6V3.1c0-1-2-1.9-2.5-1.9S24 2.1 24 3.1V6h2v4.7h-.9l-1.9-3C22.1 5.8 20.4 6 20.4 6H15c-1.7 0-3 1.4-3 3.2v6.3c0 1.5 2 1.5 2 0V9h1v19.6c0 .8.7 1.4 1.5 1.4s1.5-.6 1.5-1.4V17h1v11.6c0 .8.7 1.4 1.5 1.4s1.5-.6 1.5-1.4V8.8l2 3.8h2V30h1V12.5c1.2-.2 1.2-1.7 0-1.9V6h2zM5.9 27.3c-1.9.1-3.6 1.2-4.7 2.7h10.2c-1.1-1.6-2.8-2.6-4.8-2.7V27v-1.6l.1-.1.5-.5.1-.1.1-.1c.6.9 1.7.9 2.4.3 1-.9.9-3.1.9-3.1-1 .6-1.2.4-2 .4-1.4.1-1.6 1.2-1.5 2h-.1c-.1 0-.1.1-.2.1s-.1.1-.2.1c-.1.1-.2.1-.3.2v-.3c0-.2-.1-.4-.1-.6 0-.1-.1-.2-.1-.3 0-.1-.1-.2-.1-.2-.1-.2-.1-.3-.2-.4-.1-.3-.3-.4-.4-.6.7-.3 1.4-1.3.5-2.5-.5-.6-.8-.6-1.1-1.7 0 0-1.7 1.4-1.7 2.8 0 .9.8 1.7 1.7 1.6 0 0 0 .1.1.1.1.1.2.3.3.6.1.1.1.3.2.4 0 .1.1.1.1.2s0 .2.1.2c.3.1.3.3.4.5v1.1c-.1 0-.3-.1-.4-.1-.2-.1-.4-.1-.6-.1.2-.7 0-1.9-1.4-2-.8-.1-1 .2-2-.5 0 0-.2 2.2.8 3.2.7.7 1.8.6 2.4-.2H5c.1 0 .3.1.5.2s.4.2.5.2c0 .3 0 .6-.1.9v.2z"/>
  <circle cx="18.5" cy="2.5" r="2.5"/>
</svg>