<svg xmlns="http://www.w3.org/2000/svg" width="30" height="30">
  <path fill="#231F20"
        d="M0 7h10v2H0zM0 10h10v2H0zM0 13h10v2H0zM0 16h10v2H0zM0 19h10v2H0zM0 22h10v2H0zM0 25h10v2H0zM11 5h2l5 22h-7zM30 27c-.7 0-1.4-.3-1.9-.6-.4-.2-.8-.4-1.1-.4-.2 0-.4.1-.7.3-.4.3-1 .7-1.8.7s-1.4-.4-1.8-.7c-.3-.2-.5-.3-.7-.3-.3 0-.7.2-1.1.4-.5.3-1.2.6-1.9.6v-2c.3 0 .7-.2 1.1-.4.6-.3 1.2-.6 1.9-.6.8 0 1.4.4 1.8.7.6.4.8.4 1.4 0 .4-.3 1-.7 1.8-.7.7 0 1.4.3 1.9.6.4.2.8.4 1.1.4v2zM30 23c-.7 0-1.4-.3-1.9-.6-.4-.2-.8-.4-1.1-.4-.2 0-.4.1-.7.3-.4.3-1 .7-1.8.7s-1.4-.4-1.8-.7c-.3-.2-.5-.3-.7-.3-.3 0-.7.2-1.1.4-.5.3-1.2.6-1.9.6v-2c.3 0 .7-.2 1.1-.4.6-.3 1.2-.6 1.9-.6.8 0 1.4.4 1.8.7.6.4.8.4 1.4 0 .4-.3 1-.7 1.8-.7.7 0 1.4.3 1.9.6.4.2.8.4 1.1.4v2z"/>
</svg>