<svg xmlns="http://www.w3.org/2000/svg" width="30" height="30">
  <path fill="#231F20"
        d="M21.6 4.4h2.7c.4 0 .7.3.7.7 0 .4-.3.7-.7.7h-2.7c-.2 0-.3.1-.5.2-.1.1-.2.4-.1.7.1.2.2.4.4.6h1.5c.1 0 .2 0 .4.1l3.6 2c.3.2.5.5.5.9 0 .6-.5 1.1-1.1 1.1H24l-3.2 7.8L19 21v8c0 .8-.8 1-1.6 1s-1.4-.2-1.4-1v-8l-5.5-.4-1.2 1.9 3 5.3c.4.7.1 1.5-.5 1.9-.7.4-1.5.1-1.9-.5l-3.1-5.4v-2.4L5 23.5v5.1c0 .8-.3 1.4-1.1 1.4S2 29.4 2 28.6v-5.4l1.8-2v-2.4l-1 1.6c0 .1-.1.1-.1.1-.1 0-.2-.1-.2-.2v-5.4C2.6 13.7 3.9 13 5 13h13l2.2-3.4-1.8-1.8c-.1-.1-.1-.1-.1-.2 0-.2.1-.3.3-.3h1.3c-.3-.7-.5-1.4-.5-2.2 0-2.8 2.3-5.1 5.1-5.1.4 0 .7.3.7.7 0 .4-.3.7-.7.7-1.9 0-3.5 1.4-3.7 3.3.2-.2.5-.3.8-.3z"/>
</svg>