<svg xmlns="http://www.w3.org/2000/svg" width="30" height="30">
  <path d="M16.7 2.8c5.5.7 9.8 5.1 10.5 10.5l1.3.4 1.5.5C29.6 6.5 23.5.4 15.8 0l.5 1.5.4 1.3zM13.3 27.2c-5.5-.7-9.8-5.1-10.5-10.5l-1.3-.4-1.5-.5C.4 23.5 6.5 29.6 14.2 30l-.5-1.5-.4-1.3zM27.2 16.7c-.7 5.5-5.1 9.8-10.5 10.5l-.4 1.3-.5 1.5c7.7-.4 13.8-6.5 14.2-14.2l-1.5.5-1.3.4zM2.8 13.3c.7-5.5 5-9.8 10.5-10.5l.4-1.3.5-1.5C6.5.4.4 6.5 0 14.2l1.5-.5 1.3-.4z"/>
  <path d="M18.8 9.3l.1.1.4 1.3 1.3.4.1.1h.2l1.9-3.7.5-.8-.8.5-3.7 1.9zM7.2 7.5l1.9 3.7h.2l.1-.1 1.3-.4.4-1.3.1-.1v-.2L7.5 7.2l-.8-.5zM11.2 20.7l-.1-.1-.4-1.3-1.3-.4-.1-.1h-.2l-1.9 3.7-.5.8.8-.5 3.7-1.9zM20.7 18.8l-.1.1-1.3.4-.4 1.3-.1.1v.2l3.7 1.9.8.5-.5-.8-1.9-3.7z"/>
  <path d="M27.3 15.3l.8-.3-.8-.3-9.1-2.9L15 1.9l-.3.8-2.9 9.1-9.1 2.9-.8.3.8.3 9.1 2.9 2.9 9.1.3.8.3-.8 2.9-9.1z"/>
</svg>