<svg xmlns="http://www.w3.org/2000/svg" width="30" height="30">
  <path d="M29.3 30c-.6 0-1.2-.1-1.8-.4-.5-.3-1.2-.4-1.8-.4-.6 0-1.3.1-1.8.4-.5.2-1.1.4-1.8.4-.6 0-1.2-.1-1.8-.4-.6-.3-1.2-.4-1.8-.4-.6 0-1.3.1-1.8.4-.5.3-1.1.4-1.7.4-.6 0-1.2-.1-1.8-.4-.5-.3-1.2-.4-1.8-.4-.6 0-1.3.1-1.8.4-.5.3-1.1.4-1.7.4-.6 0-1.2-.1-1.8-.4-.5-.3-1.2-.4-1.8-.4-.6 0-1.3.1-1.8.4-.6.3-1.2.4-1.8.4v-2.6c.6 0 1.2-.1 1.8-.4.5-.2 1.2-.4 1.8-.4.6 0 1.3.1 1.8.4.5.2 1.1.4 1.8.4.6 0 1.2-.1 1.8-.4.5-.2 1.2-.4 1.8-.4.6 0 1.3.1 1.8.4.5.2 1.1.4 1.8.4.6 0 1.2-.1 1.8-.4.5-.2 1.2-.4 1.8-.4.6 0 1.3.1 1.8.4.5.2 1.1.4 1.8.4.6 0 1.2-.1 1.8-.4.6-.2 1.2-.4 1.8-.4.6 0 1.3.1 1.8.4.5.2 1.1.4 1.8.4V30zM8.8 17c1.3 0 2.4-1.1 2.4-2.4 0-1.3-1.1-2.4-2.4-2.4-1.3 0-2.4 1.1-2.4 2.4C6.4 16 7.5 17 8.8 17zM9.1 25.4c-.4.6-1.2.9-1.9.5-.6-.4-.9-1.2-.5-1.9l5.6-9.6c.2-.4.5-.7.9-.9l7.2-4.4L25.3.8c.5-.8 1.5-1.1 2.3-.6.8.5 1.1 1.5.6 2.3l-5.9 10c-.2.4-.5.7-.9.9L13 18.6l-3.9 6.8z"/>
</svg>