<svg xmlns="http://www.w3.org/2000/svg" width="30" height="30">
  <path d="M17 6h-2l-2-3 2-3h2l-2 3zM13 30h2l2-3-2-3h-2l2 3z"/>
  <circle cx="3" cy="9" r="1.5"/>
  <circle cx="3" cy="15" r="1.5"/>
  <circle cx="3" cy="21" r="1.5"/>
  <circle cx="3" cy="27" r="1.5"/>
  <circle cx="9" cy="27" r="1.5"/>
  <circle cx="21" cy="27" r="1.5"/>
  <circle cx="27" cy="27" r="1.5"/>
  <circle cx="3" cy="3" r="1.5"/>
  <circle cx="9" cy="3" r="1.5"/>
  <circle cx="21" cy="3" r="1.5"/>
  <circle cx="27" cy="3" r="1.5"/>
  <circle cx="27" cy="9" r="1.5"/>
  <circle cx="27" cy="15" r="1.5"/>
  <circle cx="27" cy="21" r="1.5"/>
  <path fill="none" d="M19.5 8.3c0-.2-.2-.3-.4-.3h-8.2c-.2 0-.4.1-.4.3L9 13h12l-1.5-4.7z"/>
  <path d="M22.4 12.9L20.7 8c-.2-.6-.8-1-1.5-1h-8.5c-.7 0-1.2.4-1.5 1l-1.7 4.9C6.7 13.1 6 14 6 15v4h1v2.1c0 .8.7 1.4 1.5 1.4s1.5-.6 1.5-1.4V19h10v2.1c0 .8.7 1.4 1.5 1.4s1.5-.6 1.5-1.4V19h1v-4c0-1-.7-1.9-1.6-2.1zM10.5 8.3c0-.2.2-.3.4-.3h8.2c.2 0 .4.1.4.3L21 13H9l1.5-4.7zM9 17.2c-.7 0-1.2-.6-1.2-1.2s.6-1.2 1.2-1.2 1.2.6 1.2 1.2-.5 1.2-1.2 1.2zm12 0c-.7 0-1.2-.6-1.2-1.2s.6-1.2 1.2-1.2 1.2.6 1.2 1.2-.5 1.2-1.2 1.2z"/>
</svg>