<svg xmlns="http://www.w3.org/2000/svg" width="30" height="30">
  <path d="M24 14v14H6V14h18m0-2H6c-1.1 0-2 .9-2 2v14c0 1.1.9 2 2 2h18c1.1 0 2-.9 2-2V14c0-1.1-.9-2-2-2zM19.2 1.3c0-1.8 2.5-1.8 2.5 0v5.3L23.1 5c.9-1 2.6.4 1.6 1.6l-3.3 3.9c-.5.5-1.2.5-1.7 0l-3.3-3.9c-1-1.2.7-2.6 1.6-1.6l1.4 1.7-.2-5.4zM8.2 9.6c0 1.8 2.5 1.8 2.5 0V4.3L12.1 6c.9 1 2.6-.4 1.6-1.6L10.4.5C9.8-.1 9.1-.1 8.6.4l-3.3 4c-1 1.1.6 2.6 1.6 1.5l1.4-1.7-.1 5.4z"/>
  <path d="M15 17.8c.5 0 .9-.4.9-.8 0-.5-.4-.8-.9-.8s-.8.4-.8.8c-.1.5.3.8.8.8zM16 18h-2c-.5 0-1 .5-1 1v2c0 .5.5 1 1 1v4c0 .5.5 1 1 1s1-.5 1-1v-4c.5 0 1-.5 1-1v-2c0-.5-.5-1-1-1zM10 17.8c.5 0 .9-.4.9-.8 0-.5-.4-.8-.9-.8s-.8.4-.8.8c-.1.5.3.8.8.8zM11 18H9c-.5 0-1 .5-1 1v2c0 .5.5 1 1 1v4c0 .5.5 1 1 1s1-.5 1-1v-4c.5 0 1-.5 1-1v-2c0-.5-.5-1-1-1zM20 17.8c.5 0 .9-.4.9-.8 0-.5-.4-.8-.9-.8s-.8.4-.8.8c-.1.5.3.8.8.8zM21 18h-2c-.5 0-1 .5-1 1v2c0 .5.5 1 1 1v4c0 .5.5 1 1 1s1-.5 1-1v-4c.5 0 1-.5 1-1v-2c0-.5-.5-1-1-1z"/>
</svg>