<svg xmlns="http://www.w3.org/2000/svg" width="30" height="30">
  <path d="M22.9 6.6h-3.1l-5.3-5.3c-.4-.4-1.1-.5-1.5 0-.4.4-.5 1.1 0 1.5l6 5.5v18.3c0 .7.3 1.2 1 1.2s1-.5 1-1.2V17h1v9.7c0 .7.3 1.2 1 1.2s1-.5 1-1.2V8.4l5.7-5.5c.4-.4.4-1.1 0-1.5-.4-.4-1.1-.4-1.5 0l-5.3 5.2zM11.7 14.7c-.3-.3-.8-.5-1.3-.5H6c-.5 0-.9.2-1.2.5L.4 19.1c-.4.4-.4 1.1 0 1.5.4.4 1.1.4 1.5 0L5 17v5H1.4c-.7 0-1.3.4-1.3 1.1 0 .4.1.7.4.9l4.4 4.4c.4.6 1.1.7 1.7.4.6-.4.8-1.2.5-1.8l-2.5-2.5L4 24h8.5l-3.2 3c-.4.6-.1 1.4.5 1.8.6.3 1.4.2 1.7-.4l4.4-4.4c.3-.2.4-.6.4-.9 0-.7-.6-1.1-1.3-1.1h-4v-5l3.6 3.7c.4.4 1.1.4 1.5 0 .4-.4.4-1.1 0-1.5l-4.4-4.5z"/>
  <circle cx="21.5" cy="4" r="2"/>
  <circle cx="8" cy="11.5" r="2"/>
</svg>