<svg xmlns="http://www.w3.org/2000/svg" width="30" height="30">
  <path d="M20 8h9v1h1v6l-1 2h-1v-7h-1v16l-1 1h-1V17h-1v10h-1l-1-1V10h-1v7h-1l-1-2V9h1zM8 8H3l-3 6v1h1l3-6v2l-3 8h2v7l2 1v-8h1v8l2-1v-7h2l-3-8V9l3 6h1v-1zM6 7H5c-.6 0-1-.5-1-1V5c0-.6.4-1 1-1h1c.6 0 1 .4 1 1v1c0 .5-.4 1-1 1zM15 15h-1c-.6 0-1-.5-1-1v-1c0-.6.4-1 1-1h1c.6 0 1 .4 1 1v1c0 .5-.4 1-1 1zM25 7h-1c-.6 0-1-.5-1-1V5c0-.6.4-1 1-1h1c.6 0 1 .4 1 1v1c0 .5-.4 1-1 1zM17 17h1v4h-1zM11 17h1v4h-1zM17 16h-5v1h1v10h1v-5h1v5h1V17h1z"/>
</svg>