<svg xmlns="http://www.w3.org/2000/svg" width="30" height="30">
  <path d="M5.3 26.1S7 30 10.8 30l1-5.2-6.5 1.3zM19.9 18.3s0 4.3 3.5 5.8l3-4.3-6.5-1.5zM14.1 24.1l.3 5.6s5.1 1.1 6.4-4.5l-6.7-1.1zM19 22.7L14.5 18s-3.1 1.8-2.7 4.4l7.2.3zM16.2 16.4l7.1.3s.4-3.5-1.7-5l-5.4 4.7zM28.2 29.9s1.6-4.6-2.1-5.9l-4.5 4.8 6.6 1.1zM11.8 2.4L14 0l7.3 6.7S19 9.8 15.9 9.9l-.5-3.8s0-.5-.7-1.1c-.7-.6-2.9-2.6-2.9-2.6z"/>
  <path d="M13.9 5.8l-1.6-1.5-.6-.6s-.7.8-1 1.1c-.3.3-.5.5-.6.9-.1.4-.1 1.1-.5 1.7-2.1 2.3-4 4.4-5 5.5-1.1 1-2.6 3.3-2.9 3.9-.4.7.1.9.1.9s1.2.6 1.6.7c.4.2.9 0 1.1-.8.1-.7.5-1.7.7-2 .3-.4.6-.8 1-1.2 1.8-2 7.7-8.5 7.7-8.6z"/>
</svg>