<svg xmlns="http://www.w3.org/2000/svg" width="30" height="30">
  <path d="M15.9 9.2c4.3-6.5-3-9.2-3-9.2 1 1.1.5 3.3-2.3 5.9-3 2.8 0 6.8 1.1 8h2.4c-.6-2.4 1.1-3.6 1.8-4.7zM19.5 6.3c-.1.7-.5 2.6-1.7 3.8-1.9 2-1.6 3.2-1.4 3.8h2c4.5-3 1.1-7.6 1.1-7.6zM24.1 15.9H5.9c-1.8 0-3.2 1.4-3.2 3.2v7.7c0 1.8 1.4 3.2 3.2 3.2H24c1.8 0 3.2-1.4 3.2-3.2v-7.7c0-1.7-1.4-3.2-3.1-3.2zm1.9 3.2v3.3h-4.7v-5.3h2.8c1 .1 1.9.9 1.9 2zm-11.6 4.6v5.1H9.9v-5.1h4.5zm-4.5-1.3v-5.3h4.5v5.3H9.9zm5.8 1.3h4.4v5.1h-4.4v-5.1zm0-1.3v-5.3h4.4v5.3h-4.4zm-9.8-5.2h2.8v5.3H4v-3.3c0-1.2.9-2 1.9-2zM4 26.8v-3.1h4.7v5.1H5.9c-1 0-1.9-.9-1.9-2zm20.1 2h-2.8v-5.1H26v3.1c0 1.1-.9 2-1.9 2z"/>
</svg>