<svg xmlns="http://www.w3.org/2000/svg" width="30" height="30">
  <path d="M.9 10.4V7.7c2.5-.2 4.2-.6 5.2-1.2s1.7-1.9 2.2-4H11v27.2H7.3V10.4H.9zM14.5 15.9c.1.7.2 1.2.5 1.5.5.6 1.4 1 2.7 1 .8 0 1.4-.2 2-.5s.9-.8.9-1.5c0-.5-.2-.9-.7-1.2-.3-.2-.9-.4-1.7-.6l-1.6-.4c-1-.3-1.8-.5-2.3-.8-.9-.5-1.3-1.3-1.3-2.2 0-1.1.4-2 1.2-2.7.8-.7 1.9-1 3.3-1 1.8 0 3.1.5 3.9 1.6.5.7.7 1.4.7 2.2h-1.9c0-.4-.2-.9-.5-1.2-.5-.5-1.3-.8-2.4-.8-.8 0-1.4.1-1.8.4-.4.3-.6.7-.6 1.1 0 .5.3.9.8 1.2.3.2.7.3 1.3.5l1.3.3c1.5.3 2.4.7 2.9 1 .8.5 1.2 1.3 1.2 2.4 0 1.1-.4 2-1.2 2.7-.8.8-2.1 1.2-3.7 1.2-1.8 0-3.1-.4-3.8-1.2-.7-.8-1.1-1.8-1.2-3h2zM25.1 4.5h2v3.3H29v1.6h-1.9v7.8c0 .4.1.7.4.8.2.1.4.1.8.1h.7v1.6c-.2.1-.5.1-.7.1h-.8c-.9 0-1.6-.2-1.9-.7-.3-.5-.5-1.1-.5-1.9V9.4h-1.6V7.8h1.6V4.5z"/>
</svg>