<svg xmlns="http://www.w3.org/2000/svg" width="30" height="30">
  <circle cx="15" cy="2.1" r="2"/>
  <path d="M28.2 27c-.6-.3-1.2-.5-1.8-.5-.6 0-1.2.2-1.8.5-.6.3-1.2.5-1.8.5s-1.2-.2-1.8-.5c-.6-.3-1.2-.5-1.8-.5s-1.2.2-1.8.5c-.6.3-1.2.5-1.8.5-.6 0-1.2-.2-1.8-.5-.6-.3-1.2-.5-1.8-.5-.6 0-1.2.2-1.8.5-.6.3-1.2.5-1.8.5s-1.4-.2-2-.5c-.6-.3-1.2-.5-1.8-.5s-1.2.2-1.8.5c-.6.3-1.2.5-1.8.5V30c.6 0 1.2-.2 1.8-.5.6-.3 1.2-.5 1.8-.5s1.2.2 1.8.5c.6.4 1.2.5 1.8.5s1.2-.2 1.8-.5c.6-.3 1.2-.5 1.8-.5.6 0 1.2.2 1.8.5.6.3 1.2.5 1.8.5.6 0 1.2-.2 1.8-.5.6-.3 1.2-.5 1.8-.5s1.2.2 1.8.5c.6.3 1.2.5 1.8.5s1.2-.2 1.8-.5c.6-.3 1.2-.5 1.8-.5s1.2.2 1.8.5c.6.3 1.2.5 1.8.5v-2.7c-.6 0-1.2-.2-1.6-.3zM27 0l-6.9 7.1c-.1 0-.3-.1-.3-.1h-2.7l-3-3c-.3-.1-.4-.1-.6-.3-.6-.4-1.5-.4-1.9 0L7.3 8c-.2.2-.3.5-.3.8V12H1v1h6v7c0 .9.7 1.7 1.5 1.7S10 21 10 20v-7h5v9H1v2h15V13h2v-1h-8v-.9L14.2 7 16 8.7c.1.2.4.3.7.3h2.1c.7 0 1.2-.4 1.2-1v-.3C21.8 6 26 2 27 1.1V24h1V.1c0-.1-1-.1-1-.1z"/>
</svg>