<svg xmlns="http://www.w3.org/2000/svg" width="30" height="30">
  <path d="M.891 19.477a.09.09 0 01-.028-.07c0-.056.042-.105.105-.105l4.039 1.007a.268.268 0 00.274-.267c0-.112-.056-.189-.169-.253l-3.758-2.312a.193.193 0 01-.084-.155c0-.049.021-.098.049-.126 0 0 7.977-7.054 23.256-.197l4.401-2.148a.326.326 0 01.148-.035c.182 0 .337.154.337.337 0 .07-.021.126-.049.175l-2.597 3.229 2.597 3.228a.343.343 0 01-.288.519.333.333 0 01-.148-.035l-4.401-2.155C24.575 20.116 9 27 .891 19.477zm4.606-.931c.582 0 1.042-.463 1.042-1.042 0-.586-.46-1.049-1.042-1.049-.576 0-1.035.463-1.035 1.049a1.033 1.033 0 001.035 1.042zM28 7h-9v4h9a2 2 0 100-4zM9 11h9V7H0s5 4 9 4z"/>
</svg>