<svg xmlns="http://www.w3.org/2000/svg" width="30" height="30">
  <path d="M4.8 8c.9 0 1.5.7 1.5 1.5v2.2c0 2.4 1.9 4.3 4.3 4.3h3.6c.9 0 1.5.7 1.5 1.5v2.2c0 2.4 1.9 4.3 4.3 4.3h3.7c.9 0 1.5.7 1.5 1.5v4.3H28v-4.3c0-2.4-1.9-4.3-4.3-4.3h-3.6c-.9 0-1.5-.7-1.5-1.5v-2.2c0-2.4-1.9-4.3-4.3-4.3h-3.6c-.9 0-1.5-.7-1.5-1.5V9.5c0-2.4-1.9-4.3-4.3-4.3H0V8h4.8z"/>
  <path d="M11.9.9c-.1-.1-.1-.1-.1-.2s.1-.3.2-.3c1-.3 5.3-1.3 10.7 2.7l2.3-.4 2.2 3-1.5.3c2.2 3.2 2.1 7.4 2 9l2.3 3.7v.1c0 .2-.1.3-.3.3h-.1l-3.2-1.4-3.2 1.4h-.1c-.2 0-.3-.1-.3-.3v-.1l2.3-3.7c0-3.9-4.4-5.7-5.6-6.1-2.3-.8-7.5-4.2-8.7-7v-.1c0-.2.1-.3.3-.3.1 0 .1 0 .2.1l1.5 1.1.1.1c.1 0 .2-.1.2-.2s0-.1-.1-.1L11.9.9z"/>
</svg>