<svg xmlns="http://www.w3.org/2000/svg" width="30" height="30">
  <g fill="#231F20">
    <path d="M27 1c-4.5 0-8.9 2-13.8 6-.2 0-.6-.2-.6-.2-.8 0-1.4.6-1.4 1.4 0 0 .1.3.1.4-.2.1-4 3.7-4 3.7l-3.4 3.2c-.3.3-.7.4-1.2.4-.4 0-.8-.2-1.1-.5s-.4-.7-.4-1.1c0-.4.2-.9.5-1.2 0 0 .3-.1.5-.3 0 .3.2 1.2.2 1.2l2.8-3.5-3.1 1c-.8.3-1.1.7-1.1.7-1.1 1-1.2 2.8-.2 3.9s2.8 1.2 4 .2L8 13.2s4-3.8 4.1-3.9c.2 0 .6.1.6.1.8 0 1.4-.6 1.4-1.4 0 0 0-.2-.1-.4 4.8-3.9 9-5.8 13.1-5.8.9 0 1.5.1 2.7.3h.2v-.7h-.2C28.7 1.1 27.9 1 27 1zM9.9 18.7c-.1.1-.9.2-.9.3s.8.2.9.3l5.2 2.5c.2.1.3.3.3.5 0 .3-.2.8-.4.8H9c-.1 0 0-.1 0 0h.1c5.8 4.7 13.6 6 20.9 6V13c-13.6 0-20.1 5.7-20.1 5.7zm9.1.3h-1v1h-1v-2h2v1z"/>
  </g>
</svg>