<svg xmlns="http://www.w3.org/2000/svg" width="30" height="30">
  <path d="M1.7 18.4H3c.1 0 .1-.1.1-.1 0-.1 0-.1-.1-.1l-1.2-.6v-.1-.1s3-2.7 9.7-.1l1.8-.9h.1c.1 0 .1.1.1.1v.1L12.4 18l1.1 1.4v.1c0 .1-.1.1-.1.1h-.1l-1.8-.9c.2 0-6.3 2.6-9.8-.3zm2.3-.3c.3 0 .6-.3.6-.6s-.3-.6-.6-.6-.6.3-.6.6c0 .4.3.6.6.6zM16.8 18.4l1.3-.1c.1 0 .1-.1.1-.1 0-.1 0-.1-.1-.1l-1.1-.5v-.1-.1s3-2.7 9.8-.1l1.8-.9h.1c.1 0 .1.1.1.1v.1L27.7 18l1.1 1.4v.1c0 .1-.1.1-.1.1h-.1l-1.8-.9c-.1 0-6.5 2.6-10-.3zm2.2-.3c.3 0 .6-.3.6-.6s-.3-.6-.6-.6-.6.3-.6.6c.1.4.3.6.6.6zM9.3 24.1c0-.1 0-.1 0 0l1.3-.1c.1 0 .1-.1.1-.1s0-.1-.1-.1l-1.2-.6v-.1-.1s3-2.7 9.8-.1L21 22h.1c.1 0 .1.1.1.1v.1l-1.1 1.4 1.1 1.4v.1c0 .1-.1.1-.1.1H21l-1.8-.9s-6.4 2.6-9.9-.2zm2.3-.4c.3 0 .6-.3.6-.6s-.3-.6-.6-.6-.6.3-.6.6c0 .4.2.6.6.6zM27.2 9.1l2.7-3.4c.1-.1.1-.1.1-.2 0-.2-.2-.4-.4-.4h-.1l-4.6 2.3C8.1.9.5 7.6.5 7.6l-.1.1c0 .1 0 .1.1.2l2.9 1.4c.1.1.2.1.2.3 0 .2-.1.3-.3.3H.1s-.1 0-.1.1c8.8 7.1 24.8.7 24.8.7l4.6 2.3h.1c.2 0 .4-.2.4-.4 0-.1 0-.1-.1-.2l-2.6-3.3zM5.5 9C4.7 9 4 8.3 4 7.5S4.7 6 5.5 6 7 6.7 7 7.5 6.3 9 5.5 9z"/>
</svg>