<svg xmlns="http://www.w3.org/2000/svg" width="30" height="30">
  <path d="M4 6h22v2H4zM4 10h16v2H4zM4 2h22v2H4zM7.3 16.9c0-.9-.7-1.6-1.6-1.6-.9 0-1.7.7-1.7 1.6 0 .7.4 1.2 1 1.5 0 .4-.1 7.8-.1 7.8 0 .5-.2.9-.6 1.2-.3.4-.8.6-1.2.5-.5 0-.9-.2-1.2-.5-.3-.3-.6-.8-.6-1.3 0 0 .1-.3.1-.6.3.2 1.1.8 1.1.8l-.7-4.9-1.5 3.2c-.4.9-.3 1.5-.3 1.5 0 1.7 1.3 3.1 3 3.1s3.1-1.3 3.2-3v-.1-7.8c.6-.1 1.1-.7 1.1-1.4zM10.4 19.9c-.1.1-.1.1-.1.2s.1.2.2.3l5.1 2.4c.2.1.3.3.3.5 0 .3-.2.5-.5.5H9.7c-.1 0-.2.1-.2.2s0 .1.1.1c5.7 4.6 13.2 6 20.4 5.9V14.5c-13.4-.1-19.6 5.4-19.6 5.4zm8.1 2.1c-.8 0-1.5-.7-1.5-1.5s.7-1.5 1.5-1.5 1.5.7 1.5 1.5-.7 1.5-1.5 1.5z"/>
</svg>