<svg xmlns="http://www.w3.org/2000/svg" width="30" height="30">
  <path d="M30 27c-.7 0-1.3 0-1.8-.3-.6-.3-1.2-.7-1.9-.7s-1.3.4-1.9.7c-.6.3-1.2.3-1.9.3s-1.3 0-1.8-.3c-.6-.3-1.2-.7-1.9-.7s-1.3.4-1.9.7c-.6.3-1.2.3-1.9.3s-1.3 0-1.8-.3c-.6-.3-1.2-.7-1.9-.7s-1.3.4-1.9.7c-.6.3-1.2.3-1.9.3s-1.3 0-1.9-.3c-.5-.3-1.2-.7-1.9-.7s-1.3.4-1.9.7c-.5.3-1.1.3-1.8.3v-3c.7 0 1.3.2 1.8-.1.6-.2 1.3-.9 1.9-.9.7 0 1.3.7 1.9.9.6.3 1.2.4 1.9.4s1.3-.2 1.8-.4c.6-.3 1.2-.9 1.9-.9s1.3.7 1.9.9c.6.3 1.2.4 1.8.4.7 0 1.3-.2 1.8-.4.6-.3 1.2-.9 1.9-.9s1.3.7 1.9.9c.6.3 1.2.4 1.8.4.7 0 1.3-.2 1.8-.4.6-.3 1.2-.9 1.9-.9s1.3.7 1.9.9c.6.3 1.2.1 1.8.1v3zM14 3h2v9h-2zM15 16l4-4h-8z"/>
  <path d="M7.5 21.4c.7 0 1.3-.2 1.8-.4.6-.3 1.2-.9 1.9-.9s1.3.7 1.9.9c.6.3 1.2.4 1.8.4s1.3-.2 1.8-.4c.6-.3 1.2-.9 1.9-.9s1.3.7 1.9.9c.6.3 1.2.4 1.8.4.7 0 1.3-.2 1.8-.4s1.1-.8 1.6-.9V7h-8v2h5v9H7V9h5V7H4v13c.6.1 1.2.7 1.6.9.6.3 1.2.5 1.9.5z"/>
</svg>