<svg xmlns="http://www.w3.org/2000/svg" width="30" height="30">
  <path d="M24.7 16.2L20 15l4.4-1h.3s4.7-1 4-4.6c-.1-.5-.3-1.1-.6-1.7-2.8-5.3-7.1-.4-7.1-.4l-.1.2-3.3 3.3L19 6.1s1.9-6-3.8-6.1h-.1c-5.8-.1-3.8 6-3.8 6l1.3 4.7-3.4-3.4v-.1S6.8 4.6 4.4 5.3c-.8.3-1.7.9-2.4 2.1-3 5 3.3 6.3 3.3 6.3L10 15l-4.4 1h-.3s-4.7 1-4 4.6c.1.5.3 1.1.6 1.7 2.8 5.3 7.1.4 7.1.4l.1-.2 3.3-3.3-1.4 4.6s-1.9 6 3.8 6.1h.1c5.8.1 3.8-6 3.8-6l-1.3-4.7 3.2 3.5.1.1s2 2.2 4.2 2c1-.1 2.1-.7 3-2.2 3.1-5-3.2-6.4-3.2-6.4zM15 18.3c-1.8 0-3.3-1.5-3.3-3.3s1.5-3.3 3.3-3.3 3.3 1.5 3.3 3.3-1.5 3.3-3.3 3.3z"/>
</svg>