<svg xmlns="http://www.w3.org/2000/svg" width="30" height="30">
  <path fill="#231F20" d="M27 8v19H3V9.6l26.9-6.7-.7-2.9L.1 7.3l.2.7H0v22h30V8z"/>
  <g fill="#231F20">
    <path d="M19.9 7s.2 5.9-5.9 5.9c.1-.1-.6-5.4 5.9-5.9zM16.1 15.4c.7-.7 1.7-1.2 2.9-1.2 2.2 0 4.1 1.8 4.1 4.1v.2c-.1.9-.4 2-1 3.3 0 0-1.1 2.2-2.1 3.2l-.1.1c-.4.4-1.1.7-1.7.7-.8 0-1.6-.4-2-1-.4.6-1.2 1-2 1-.7 0-1.3-.3-1.7-.7l-.1-.1c-.9-1-2.1-3.2-2.1-3.2-.7-1.4-.9-2.5-1-3.3v-.2c0-2.3 1.8-4.1 4.1-4.1.9 0 1.9.5 2.7 1.2"/>
  </g>
</svg>