<svg xmlns="http://www.w3.org/2000/svg" width="30" height="30">
  <path fill="#231F20" d="M29 16v-4l-1-1h-7l-2-4h-2l2 4v1l-2 2h-5l-2-3H0v8h2v-2l2-2h5l2 2v2h8v-2l2-2h5l2 2v2h2v-3z"/>
  <path fill="#231F20"
        d="M6.5 16C4.6 16 3 17.6 3 19.5S4.6 23 6.5 23s3.5-1.6 3.5-3.5S8.4 16 6.5 16zm0 5c-.8 0-1.5-.7-1.5-1.5S5.7 18 6.5 18s1.5.7 1.5 1.5S7.3 21 6.5 21zM23.5 16c-1.9 0-3.5 1.6-3.5 3.5s1.6 3.5 3.5 3.5 3.5-1.6 3.5-3.5-1.6-3.5-3.5-3.5zm0 5c-.8 0-1.5-.7-1.5-1.5s.7-1.5 1.5-1.5 1.5.7 1.5 1.5-.7 1.5-1.5 1.5z"/>
</svg>