<svg xmlns="http://www.w3.org/2000/svg" width="30" height="30">
  <path d="M25.3 19.5l-.3-2V8.4c0-1-.3-1.8-1-2.4l-4.2-4c-.3 0-1.1.5-1.1.5 0 .3 2.1 2.4 2.1 2.4l-.1 3.5c0 1.3 1 2.3 2.3 2.3h.6l-.2 6.8.3 2.3L25 27c0 1.1-1 1.4-1.8 1.4-.7 0-1.6-.6-1.6-1.4V15c0-1.5-1.2-2.6-2.6-2.6h-2V1h-1V0H5v1H4v29h13V14h2c.5 0 1 .5 1 1v12c0 1.6 1.4 3 3.2 3 1.6 0 3.8-1.3 3.8-3 0-.4-1.7-7.5-1.7-7.5zM23 8v1c-.9-.2-1 .4-1 0V7h1c.3.1 0 .6 0 1zM6 3l1-1h7l1 1v6l-1 1H7L6 9V3zm8.815 19.336c-.139.835-.375 1.521-.711 2.062s-.786.942-1.351 1.206c-.563.264-1.277.396-2.142.396H6.526V13.147h4.248c.899 0 1.626.146 2.178.44.552.295.981.715 1.287 1.261s.513 1.203.621 1.971c.107.768.162 1.626.162 2.574 0 1.128-.069 2.109-.207 2.943z"/>
  <path d="M12.062 16.162c-.15-.366-.372-.642-.666-.828-.295-.186-.688-.278-1.18-.278H9.118v9.035h1.152c.456 0 .821-.077 1.098-.233s.495-.414.657-.774c.162-.359.27-.834.324-1.422.054-.588.081-1.319.081-2.196 0-.731-.024-1.373-.072-1.926-.047-.553-.147-1.012-.296-1.378z"/>
</svg>