<svg xmlns="http://www.w3.org/2000/svg" width="30" height="30">
  <path d="M10.99 23.221c1.245.491 2.591.782 4.01.782s2.765-.291 4.01-.782L20.717 30h3.665l-2.201-8.739c2.296-2.008 3.776-4.925 3.776-8.215H4.043c0 3.29 1.48 6.207 3.776 8.215L5.618 30h3.665l1.707-6.779zM7.425 10.647c-.008-.016-.8-1.514-.455-2.841a6.866 6.866 0 01.56-1.437c.26-.524.503-1.019.503-1.867 0-.613-.142-1.197-.296-1.818-.182-.748-.393-1.592-.393-2.684H5.891c0 1.266.239 2.245.434 3.032.138.556.256 1.035.256 1.469 0 .507-.126.759-.353 1.222a8.19 8.19 0 00-.662 1.713c-.33 1.259.009 2.477.292 3.215h1.559l.008-.004zM12.938 10.643c-.008-.012-.804-1.51-.455-2.837a6.866 6.866 0 01.56-1.437c.26-.524.503-1.019.503-1.867 0-.613-.146-1.197-.296-1.818-.187-.748-.398-1.592-.398-2.684h-1.453c0 1.266.244 2.249.438 3.036.138.552.256 1.031.256 1.465 0 .507-.126.759-.353 1.222a8.23 8.23 0 00-.662 1.709c-.333 1.26.007 2.479.29 3.219h1.554l.016-.008zM18.449 10.647c-.008-.016-.8-1.514-.455-2.841a6.866 6.866 0 01.56-1.437c.26-.524.503-1.019.503-1.867 0-.613-.142-1.197-.296-1.818-.183-.748-.394-1.592-.394-2.684h-1.453c0 1.266.239 2.245.434 3.032.138.556.256 1.035.256 1.469 0 .507-.126.759-.353 1.222a8.19 8.19 0 00-.662 1.713c-.33 1.259.009 2.477.292 3.215h1.559l.009-.004zM23.961 10.643c-.008-.012-.804-1.51-.455-2.837a6.866 6.866 0 01.56-1.437c.26-.524.503-1.019.503-1.867 0-.613-.146-1.197-.296-1.818-.186-.748-.397-1.592-.397-2.684h-1.453c0 1.266.244 2.249.438 3.036.138.552.256 1.031.256 1.465 0 .507-.126.759-.353 1.222a8.23 8.23 0 00-.662 1.709c-.333 1.26.007 2.479.29 3.219h1.554l.015-.008z"/>
</svg>