<svg xmlns="http://www.w3.org/2000/svg" width="30" height="30">
  <path d="M18 8h9v1h1l-2 1h-1v16l-1 1h-1V17h-1v10h-1l-1-1V10h-1v7h-1l-1-2V9h1zM23 7h-1c-.6 0-1-.5-1-1V5c0-.6.4-1 1-1h1c.6 0 1 .4 1 1v1c0 .5-.4 1-1 1zM1 8h5v1h1v6l-1 2v9l-1 1H4v-9H3v9H2l-1-1v-9l-1-2V9h1zM4 7H3c-.6 0-1-.5-1-1V5c0-.6.4-1 1-1h1c.6 0 1 .4 1 1v1c0 .5-.4 1-1 1zM9 8h5v1h1v6l-1 2v9l-1 1h-1v-9h-1v9h-1l-1-1v-9l-1-2V9h1zM12 7h-1c-.6 0-1-.5-1-1V5c0-.6.4-1 1-1h1c.6 0 1 .4 1 1v1c0 .5-.4 1-1 1zM28 10l2-2V6l-1-2h-1z"/>
  <path d="M30 8h-5v2h4l1-1z"/>
</svg>