<svg xmlns="http://www.w3.org/2000/svg" width="30" height="30">
  <path d="M11.3 4.7c1-.1 1.7-1 1.7-2-.1-1-1-1.8-2-1.7-1 .1-1.7 1-1.7 2 .1 1.1 1 1.8 2 1.7zM14.9 10.4l-4.7-5.2c0-.2-.2-.3-.3-.3-.6-.5-1.5-.6-2.2-.2L3.3 7.4c-.5.3-.9.9-.9 1.6v.4c0 .1 0 .2.1.2 0 .2.1.3.2.5 0 0 0 .1.1.1l1.1 2.2-2.3 2.9c-.4.5-.3 1.2.2 1.6.5.4 1.2.3 1.6-.2L6 13.2c0-.1.1-.1.1-.2s.1-.1.1-.2v-.2-.2c0-.1 0-.2-.1-.2.6.5 1.2.9 1.5 1.1 0 .9-.1 4.4-.1 4.4 0 .6.5 1.1 1.1 1.1.6 0 1.2-.5 1.2-1.1l.1-5c0-.4-.2-.7-.5-.9l-2.7-2 3.3-2 3.4 3.8c.3.4.9.4 1.3.1.5-.4.6-1 .2-1.3zM.1 29c.6 0 1.3-.1 1.8-.4.6-.3 1.2-.4 1.8-.4.7 0 1.3.2 1.9.4.6.2 1.2.4 1.8.4.6 0 1.3-.1 1.8-.4.6-.3 1.2-.4 1.9-.4s1.3.2 1.9.4c.5.2 1.2.4 1.8.4.6 0 1.3-.1 1.8-.4.6-.3 1.2-.4 1.9-.4s1.3.2 1.9.4c.5.2 1.2.4 1.8.4.6 0 1.3-.1 1.8-.4.6-.3 1.2-.4 1.9-.4s1.3.2 1.9.4c.5.2 1.2.4 1.8.4v-2.7c-.6 0-1.3-.1-1.8-.4-.6-.3-1.2-.4-1.9-.4s-1.3.2-1.9.4c-.5.2-1.2.4-1.8.4-.6 0-1.3-.1-1.8-.4-.6-.3-1.2-.4-1.9-.4s-1.3.2-1.9.4c-.5.2-1.2.4-1.8.4-.6 0-1.3-.1-1.8-.4-.6-.3-1.2-.4-1.9-.4s-1.3.2-1.9.4c-.5.2-1.2.4-1.8.4-.6 0-1.3-.1-1.8-.4-.6-.3-1.2-.4-1.9-.4s-1.3.2-1.8.4c-.6.2-1.2.4-1.8.4V29zM.1 24c.5 0 1-.1 1.4-.3.7-.3 1.5-.5 2.3-.5.8 0 1.5.2 2.2.5.5.2.9.3 1.4.3.5 0 1-.1 1.4-.3.7-.3 1.5-.5 2.3-.5.8 0 1.6.2 2.2.5.4.2.9.3 1.4.3.5 0 1-.1 1.4-.3.5-.2 1-.4 1.4-.4L15 21.5l-3.6-.1-2.5-1.7-4.7-1.8-4.2-.6.1 6.7z"/>
  <path d="M28.8 19.6l-6.5-3.1c.4-.1.7-.4.7-.8 0-.5-.4-.9-.9-.9s-.9.4-.9.9c0 .1 0 .3.1.4L14.8 13c-1.1-.5-2.3-.1-2.8 1l17.8 8.5c.5-1.2 0-2.4-1-2.9zm-7.1-3.9c0-.2.2-.4.4-.4s.4.2.4.4-.2.4-.4.4-.4-.2-.4-.4zM11.8 14.5c-.2.9.3 1.9 1.2 2.3l14 6.6c.9.4 1.9.2 2.5-.5l-17.7-8.4z"/>
</svg>