<svg xmlns="http://www.w3.org/2000/svg" width="30" height="30">
  <path d="M17.3 15.5c.8.3 1.6-.1 1.9-.9.3-.8-.1-1.6-.9-1.9-.8-.3-1.6.1-1.9.9-.3.7.1 1.6.9 1.9z"/>
  <path d="M29.5 5.8s-5-.6-15.5-.6c-7.7-.1-14 .6-14 .6S2.6 7 2.2 10.5c0 0 3.8-.4 5.3 2.8l7-2.1-.5 4.7-3 .7c-.3.1-.5.2-.7.4l-6.5 6.3c-.4.4-.4 1 0 1.4.4.4 1 .4 1.4 0l4.9-4.7 6-1.5 1-.3.9 1c.1.2.3.3.6.3h3.2c.4 0 .7-.3.7-.7 0-.4-.3-.6-.6-.7l-2.4-8.4 10.1-3.1c.6-.3.5-.8-.1-.8zm-8.2 12.1H19c-.4-.4-1.7-2-1.7-2s-.1 0-.1-.1c-.4-.4-.9-.6-1.5-.5l-.9.2.5-4.7L19 9.7l2.3 8.2z"/>
</svg>