<svg xmlns="http://www.w3.org/2000/svg" width="30" height="30">
  <path d="M7.9 5.8C9 5.4 9.5 4.2 9.1 3.2c-.4-1.1-1.6-1.7-2.6-1.3-1.1.4-1.7 1.6-1.3 2.7.4 1 1.6 1.6 2.7 1.2z"/>
  <path fill-rule="evenodd" clip-rule="evenodd" d="M24 16v5h-5v5h-5v2h7v-5h5v-5h4v-2z"/>
  <path fill-rule="evenodd" clip-rule="evenodd"
        d="M15.2 17.5s-.2-.6-.9-1.2l-1.6-.8L30 8.7l-.4-1-18.1 7.2-1.9-1v-3.7l1.6 1.9c.2.3.6.5 1 .5l3.8.1s.9 0 .9-1-.9-1-.9-1h-3.3L9.6 6.9s-.3-.6-1.5-.6H5.6s-1.1-.1-1.7.8l-3 3.5s-.3.3-.4 1.2L0 15.6s0 .9.9 1c0 0 1.1.2 1.2-1l.4-3.6 2.1-2.5-.1 5.8.5 2.1-4.7 1.8.4 1 4.5-1.8.8 3.8-1.3 3.4s-.9 1.6.4 2.1c.8.3 1.6-.3 2.1-1.5l1.5-3.9c.2-.2.4-.8.3-1.3l-.8-3.7.4-.2 4.6 2.1s1.7 4.6 1.7 4.5c.4 1 1.1 1 1.7.9.7-.3.9-1 .6-1.8l-2-5.3z"/>
</svg>