<svg xmlns="http://www.w3.org/2000/svg" width="30" height="30">
  <path d="M0 0h4v4H0zM11 0h19v4H11zM7.1 6.6c-.5.2-.8.6-.8 1.1s.3 1 .8 1.1v7.4c0 1-.8 1.7-1.7 1.7-.9 0-1.7-.8-1.7-1.7 0-.2 0-.5.1-.7l.1.1.6.6-.4-3.4-1 2.3c-.3.7-.2 1.1-.2 1.1 0 1.4 1.1 2.5 2.5 2.5s2.5-1.1 2.5-2.5V8.9c.5-.2.8-.6.8-1.1 0-.5-.3-1-.8-1.1V0h-.8v6.6zM10.2 19.4c-.1.1-.1.1-.1.2s.1.2.2.3l5.1 2.4c.2.1.3.2.3.5s-.2.5-.5.5H9.6c-.1 0-.2.1-.2.2s0 .1.1.1c5.7 4.6 13.5 6.5 20.6 6.4V14.1c-13.3-.1-19.9 5.3-19.9 5.3zm8 3.1c-1.2 0-2.1-1-2.1-2.1 0-1.2 1-2.1 2.1-2.1 1.2 0 2.1 1 2.1 2.1.1 1.1-.9 2.1-2.1 2.1z"/>
</svg>