<svg xmlns="http://www.w3.org/2000/svg" width="30" height="30">
  <path d="M2.2 17.8c-.2-.4-.7-.5-1-.2-.4.2-.5.7-.2 1.1.1.3.6.4 1 .2.3-.2.4-.7.2-1.1zM2.7 19.9c-.2-.4-.7-.5-1.1-.2-.4.2-.5.7-.2 1 .2.4.7.5 1 .2.5-.1.6-.6.3-1zM3.3 22.1c-.2-.4-.7-.5-1.1-.2-.3.1-.5.6-.2 1 .2.4.7.5 1.1.2.3-.2.4-.7.2-1zM3.8 24.2c-.2-.4-.7-.5-1-.2-.4.2-.5.7-.2 1.1.2.4.7.5 1.1.2.2-.3.3-.8.1-1.1zM16.2 28.5c-.4.1-.6.6-.5 1 .1.4.6.6 1 .5.4-.1.6-.6.5-1-.2-.4-.6-.6-1-.5zM18.4 28.5c-.4.1-.6.6-.5 1 .1.4.6.6 1 .5.4-.1.6-.6.5-1-.2-.4-.6-.6-1-.5zM20.6 28.5c-.4.1-.6.6-.5 1 .1.4.6.6 1 .5.4-.1.6-.6.5-1-.2-.4-.6-.6-1-.5zM22.7 28.5c-.4.1-.6.6-.5 1 .1.4.6.6 1 .5.4-.1.6-.6.5-1-.1-.4-.6-.6-1-.5zM27.9 11.5h-4.5l-2.1-4.7c0-.1-.1-.2-.1-.2v-.1C20.8 5.6 20 5 19 5h-.5L7.2 7.7c-.7.2-1.2.8-1 1.5.2.7.8 1.1 1.5 1l7.6-1.8-5.8 9.5H3.4l1.4 5.4c0 .2 0 .2.1.3.1.3.5.4.9.2.2-.1.3-.3.3-.4l.8-2.5v-.1h3.8c.8 0 1.4-.2 1.8-.8l1.7-2.9 3.9 3.9-1.6 6.5h5.7c.4 0 .7-.3.7-.7 0-.3-.2-.5-.4-.6L20 24.7l1.2-4.7s.3-1-.6-1.9L17.4 15s1.7-2.8 2.8-4.6l1.3 2.9c.1.2.3.4.5.5.2.1.4.2.7.2H28c.7 0 1.3-.6 1.3-1.3-.1-.7-.7-1.2-1.4-1.2z"/>
  <circle cx="21.5" cy="2.5" r="2.5"/>
</svg>