<svg xmlns="http://www.w3.org/2000/svg" width="30" height="30">
  <path fill="#231F20"
        d="M13.5 18.8v-1.4c0-.4 0-.7.1-.9 0-.3.1-.5.2-.7.1-.2.2-.4.4-.6.2-.2.4-.4.6-.7l1.9-2c.4-.4.6-1 .6-1.6s-.2-1.2-.6-1.6c-.4-.4-1-.6-1.6-.6-.7 0-1.3.2-1.7.7-.5.5-.7 1.1-.8 1.7l-3.2-.2c.1-.8.3-1.5.6-2.1.3-.6.7-1.2 1.2-1.6s1.1-.8 1.8-1 1.4-.3 2.2-.3c.8 0 1.4.1 2.1.3.7.2 1.3.5 1.7.9.5.4.8.9 1.1 1.5.3.6.4 1.3.4 2.1 0 .5-.1 1-.2 1.4-.2.4-.4.8-.6 1.1-.2.4-.5.7-.9 1l-1 1-.6.6c-.2.2-.3.3-.4.5s-.2.4-.2.6-.1.5-.1.8v.9h-3v.2zm-.5 3.4c0-.5.2-1 .6-1.4.4-.4.9-.6 1.4-.6s1 .2 1.4.6.6.8.6 1.3-.2 1-.6 1.4c-.4.5-.9.6-1.4.6-.3 0-.5 0-.8-.1s-.5-.2-.6-.4c-.2-.2-.3-.4-.4-.6s-.2-.5-.2-.8z"/>
  <path fill="#231F20"
        d="M24 3c1.7 0 3 1.3 3 3v18c0 1.7-1.3 3-3 3H6c-1.7 0-3-1.3-3-3V6c0-1.7 1.3-3 3-3h18m0-3H6C2.7 0 0 2.7 0 6v18c0 3.3 2.7 6 6 6h18c3.3 0 6-2.7 6-6V6c0-3.3-2.7-6-6-6z"/>
</svg>