<svg xmlns="http://www.w3.org/2000/svg" width="30" height="30">
  <path d="M25.7 18.6c-.6 0-1.3.1-1.8.4-.5.2-1.1.4-1.8.4-.6 0-1.2-.1-1.8-.4-.5-.3-1.2-.4-1.8-.4-.6 0-1.3.1-1.8.4-.5.2-1.1.4-1.8.4-.6 0-1.2-.1-1.8-.4-.5-.3-1.2-.4-1.8-.4s-1.3.1-1.8.4c-.5.2-1.1.4-1.8.4-.6 0-1.2-.1-1.8-.4-.5-.3-1.2-.4-1.8-.4s-1.1.2-1.7.4c-.5.2-1.1.4-1.8.4V22c.6 0 1.2-.1 1.8-.4.5-.3 1.2-.4 1.8-.4s1.3.1 1.8.4 1 .4 1.5.4l-2.2 2.2c-.7-.4-1.6-.4-2.2.2L.6 27c-.7.7-.7 1.8 0 2.5s1.8.7 2.5 0L5.7 27c.6-.6.7-1.4.3-2.1l3-3c.2-.1.4-.1.6-.2.5-.3 1.2-.4 1.8-.4s1.3.1 1.8.4c.5.2 1.1.4 1.8.4.6 0 1.2-.1 1.8-.4s1.2-.4 1.8-.4c.6 0 1.3.1 1.8.4.5.2 1.1.4 1.8.4.6 0 1.2-.1 1.8-.4.5-.3 1.2-.4 1.8-.4.6 0 1.3.1 1.8.4.5.2 1.1.4 1.8.4v-2.6c-.6 0-1.2-.1-1.8-.4-.7-.3-1.3-.5-1.9-.5zM26.9 5.8l2.5-2.5c.7-.7.7-1.8 0-2.5s-1.8-.7-2.5 0l-2.5 2.5c-.6.6-.7 1.5-.2 2.2L21 8.6l-6.2-2.3c-.2-.1-.3-.2-.5-.2-1.3-.4-2.8.4-3.2 1.7l-1.9 6.4v.2H.7v3.4c.5 0 .9-.1 1.4-.3.6-.4 1.4-.5 2.2-.5s1.5.2 2.2.5c.4.2.9.3 1.4.3s.9-.1 1.4-.3c.7-.3 1.5-.5 2.2-.5.8 0 1.5.2 2.2.5.4.2.9.3 1.4.3s.9-.1 1.4-.3c.7-.3 1.5-.5 2.2-.5.8 0 1.5.2 2.2.5.4.2.9.3 1.4.3s.9-.1 1.4-.3c.7-.3 1.5-.5 2.2-.5.1 0 .6 0 1.2-.3.9-.4 1.2-.6 2-1.1.7-.4 1.2-1.3-.2-1.2H16.8l3.6-3.6.5.2c.6.2 1.3-.1 1.5-.7.2-.4 0-.9-.3-1.2L25 6.2c.4.2 1.3.1 1.9-.4zm-11.7 8.5h-.8L16 9.2l3.2 1.2-4 3.9z"/>
  <path d="M15.2 2.9l-.3.7c-.2.4-.7.7-1.2.7h-.8c.4.6 1.2 1 2 1 1.3 0 2.4-1.1 2.4-2.4v-.1h-2l-.1.1z"/>
  <path d="M13.7 3.7c.3 0 .5-.2.6-.4l.3-.7c.1-.3.4-.4.7-.4h2.5C17.5.9 16.3 0 14.9 0c-1.6 0-3 1.3-3 3 0 .3 0 .5.1.8l1.7-.1z"/>
</svg>