<svg xmlns="http://www.w3.org/2000/svg" width="30" height="30">
  <path d="M0 4.7h1.8v6.5h3.9v1.5H0v-8zM6.5 8.7c.1-1.5 1.4-1.9 2.7-1.9 1.2 0 2.5.3 2.5 1.6v3c0 .5.1 1.1.2 1.3h-1.6c-.1-.2-.1-.4-.1-.6-.5.5-1.2.7-1.9.7-1.1 0-2-.5-2-1.7 0-1.3 1-1.6 2-1.8 1-.1 1.9-.1 1.9-.8 0-.7-.5-.8-1-.8-.6 0-1 .2-1 .9H6.5zm3.7 1.2c-.3.2-.8.2-1.3.3-.5.1-.9.3-.9.9 0 .6.5.7 1 .7 1.2 0 1.3-1 1.3-1.3v-.6zM13.1 6.9h1.5V8c.3-.7 1.1-1.2 1.8-1.2.1 0 .2 0 .3.1v1.5c-.1 0-.4-.1-.6-.1-1.2 0-1.6.8-1.6 1.9v2.6h-1.6V6.9zM23.1 12.3c0 1-.3 2.6-3 2.6-1.1 0-2.5-.5-2.6-1.9h1.6c.1.6.6.8 1.2.8.9 0 1.3-.6 1.3-1.4v-.8c-.3.6-1 .9-1.7.9-1.7 0-2.5-1.3-2.5-2.9 0-1.5.9-2.9 2.5-2.9.8 0 1.3.3 1.7.9v-.7h1.5v5.4zm-1.5-2.6c0-.9-.3-1.8-1.4-1.8-.8.1-1.2.8-1.2 1.7 0 .8.3 1.7 1.3 1.7.9 0 1.3-.7 1.3-1.6zM25.8 10.2c0 1 .5 1.5 1.4 1.5.6 0 1.2-.4 1.3-.7h1.4c-.4 1.4-1.4 1.9-2.7 1.9-1.8 0-3-1.3-3-3s1.2-3.1 3-3.1c2 0 2.9 1.7 2.8 3.4h-4.2zm2.6-1c-.1-.8-.5-1.2-1.3-1.2-1 0-1.3.8-1.3 1.2h2.6zM2.7 17.2h3.6c2 0 2.8 1.3 2.8 2.6s-.8 2.6-2.8 2.6H4.5v2.9H2.7v-8.1zM4.5 21h1.4c.8 0 1.5-.2 1.5-1.2s-.7-1.2-1.5-1.2H4.5V21zM10.1 19.4h1.5v1.1c.3-.7 1.1-1.2 1.8-1.2.1 0 .2 0 .3.1v1.5c-.1 0-.4-.1-.6-.1-1.2 0-1.6.8-1.6 1.9v2.6H9.9v-5.9zM16.2 18.5h-1.6v-1.3h1.6v1.3zm-1.6.9h1.6v5.8h-1.6v-5.8zM17.6 19.4h1.5v.8c.4-.7 1.1-1 1.8-1 1.7 0 2.1 1 2.1 2.4v3.6h-1.6V22c0-1-.3-1.4-1-1.4-.9 0-1.2.5-1.2 1.7v3h-1.6v-5.9zM26.3 19.4h1.2v1.1h-1.2v2.9c0 .5.1.7.7.7h.5v1.2c-.3 0-.6.1-.9.1-1 0-1.8-.2-1.8-1.4v-3.4h-1v-1.1h1v-1.7h1.6v1.6z"/>
</svg>