<svg xmlns="http://www.w3.org/2000/svg" width="30" height="30">
  <path fill="#231F20"
        d="M15.1 9.3c2.6 0 4.7-2.1 4.7-4.7S17.7-.1 15.1-.1 10.4 2 10.4 4.6s2.1 4.7 4.7 4.7zM19.6 10.5c2.1.1 3 1.8 3 1.8l6.9 9.4c.3.4.5.9.5 1.5 0 1.5-1.2 2.7-2.7 2.7-.4 0-.7-.1-1-.2l-4.2-1.2v4.1H7.8v-4.1l-4.2 1.2c-.3.1-.6.2-1 .2-1.5 0-2.7-1.2-2.7-2.7 0-.6.2-1.1.5-1.5l6.9-9.4s.9-1.7 3-1.8h9.3zM15 25.7l5.4-1.8h-.1c-3.7-1.1-2.3-6 1.4-4.9l.5.2v-5.5L15 16l-7.2-2.4v5.5l.5-.1c3.7-1.1 5.2 3.8 1.4 4.9h-.1l5.4 1.8z"/>
</svg>