<svg xmlns="http://www.w3.org/2000/svg" width="30" height="30">
  <path d="M13.9 21v7.1s.2 1.9-2.1 1.9H2.6C.3 30 .5 28.1.5 28.1V21h13.4zM9.6.9C9.3.3 8.7 0 8.1 0h-3c-1 0-1.9.8-1.9 1.9 0 .4.1.7.3 1 .9 1.3 1.4 2.8 1.4 4.4 0 2.8-1.5 5.2-3.7 6.6-.4.3-.7.7-.7 1.3V17H14V9.2s0-.8-.5-1.7L9.6.9zM20.4.9c.3-.6.9-.9 1.5-.9h3c1 0 1.9.8 1.9 1.9 0 .4-.1.7-.3 1-.9 1.3-1.4 2.8-1.4 4.4 0 2.8 1.5 5.2 3.7 6.6.4.3.7.7.7 1.3V17H16.1V9.2s0-.8.5-1.7L20.4.9zM29.5 21v7.1s.2 1.9-2.1 1.9h-9.3c-2.3 0-2.1-1.9-2.1-1.9V21h13.5zM16.1 19.9c.4 0 .6-.3.6-.6s-.3-.6-.6-.6H14c-.4 0-.6.3-.6.6 0 .4.3.6.6.6h2.1z"/>
</svg>