<svg xmlns="http://www.w3.org/2000/svg" width="30" height="30">
  <path d="M29.2 30c-.6 0-1.2-.1-1.8-.4-.5-.2-1.2-.4-1.8-.4-.6 0-1.3.1-1.8.4-.5.2-1.1.4-1.8.4-.6 0-1.2-.1-1.8-.4-.6-.2-1.2-.4-1.8-.4-.6 0-1.3.1-1.8.4-.4.3-1 .4-1.6.4-.6 0-1.2-.1-1.8-.4-.5-.2-1.2-.4-1.8-.4-.6 0-1.3.1-1.8.4-.5.3-1.1.4-1.7.4-.6 0-1.2-.1-1.8-.4-.5-.2-1.2-.4-1.8-.4-.6 0-1.3.1-1.8.4-.5.3-1.1.4-1.7.4v-2.6c.6 0 1.2-.1 1.8-.4.5-.3 1.2-.4 1.8-.4.6 0 1.3.1 1.8.4.5.2 1.1.4 1.8.4.6 0 1.2-.1 1.8-.4.5-.3 1.2-.4 1.8-.4.6 0 1.3.1 1.8.4.5.2 1.1.4 1.8.4.6 0 1.2-.1 1.8-.4.5-.3 1.2-.4 1.8-.4.6 0 1.3.1 1.8.4.5.2 1.1.4 1.8.4.6 0 1.2-.1 1.8-.4.5-.3 1.2-.4 1.8-.4.6 0 1.3.1 1.8.4.5.2 1.1.4 1.8.4V30zM14.5 3.8c1 0 1.8-.8 1.8-1.8S15.5.2 14.5.2 12.7 1 12.7 2s.8 1.8 1.8 1.8zM20.4 25.3h1.7l-1.9-7.5c.1 0 .3 0 .4-.1 1-.2 1.5-1.2 1.3-2.2l-1.1-4.4c-.2-.8-.9-1.4-1.7-1.4H16V6c0-1-.5-1.8-1.5-1.8S13 5 13 6v5.9h-1.7l-1.2-6.6c-.1-.4-.5-.7-1-.7-.4.1-.7.5-.7 1l1.3 7.3c.1.4.4.7.8.7h.2L7.9 25.3h1.7l.8-3.4h9.1l.9 3.4zm-2.9-11.7l.7 2.9h-6.4l.7-2.9h5zm-6.6 6.8l.6-2.4h7.1l.6 2.4h-8.3z"/>
</svg>