<svg xmlns="http://www.w3.org/2000/svg" width="30" height="30">
  <path d="M30 10v20H0V10h30zM2 12v16h26V12H2z"/>
  <path d="M24 24c0 2-2 2-2 2h-1V16h1s2 0 2 2v6zM6 24c0 2 2 2 2 2h1V16H8s-2 0-2 2v6zM16.9 16v-.6c0-.8-.6-1.4-1.4-1.4h-1c-.8 0-1.4.6-1.4 1.4v.6H10v10h10V16h-3.1zm-3-.6c0-.3.3-.6.6-.6h1c.3 0 .6.3.6.6v.6h-2.2v-.6zM22.6 3l-1.2-1.2h-7.2C13.6.7 12.4 0 11.1 0c-2 0-3.6 1.6-3.6 3.6s1.6 3.6 3.6 3.6c1.3 0 2.5-.7 3.1-1.8h1.4l1.1-1.1.9.9.9-.9.9.9.9-.9.9.9 1.5-1.5c.1-.3.1-.5-.1-.7zM9.5 4.8c-.7 0-1.2-.6-1.2-1.2s.6-1.2 1.2-1.2 1.2.6 1.2 1.2-.5 1.2-1.2 1.2z"/>
</svg>