<svg xmlns="http://www.w3.org/2000/svg" width="30" height="30">
  <path d="M13.5 15C9.4 15 6 18.4 6 22.5S9.4 30 13.5 30s7.5-3.4 7.5-7.5-3.4-7.5-7.5-7.5zm0 13c-3 0-5.5-2.5-5.5-5.5s2.5-5.5 5.5-5.5 5.5 2.5 5.5 5.5-2.5 5.5-5.5 5.5z"/>
  <path d="M9 4.1c-.4-1.4-2-2.3-3.4-2.3-.9 0-2.5-.3-2.5 1.1 0 1.4 1.8 1 2.7 1 .5 0 1.1.5 1.3 1L7.8 7H0v2h8.2l.4 1L0 18.5v2.9l9.3-9.3 3.2 10.3c.2.6.8.9 1.3.7.6-.2.9-.8.7-1.3L9 4.1zM30 4.5C30 2 28 0 25.5 0S21 2 21 4.5V12h9V4.5zM26 10h-1V6h1v4zm2.9-5H22v-.5C22 2.6 23.6 1 25.5 1S29 2.6 29 4.5c0 .2 0 .3-.1.5z"/>
</svg>