<svg xmlns="http://www.w3.org/2000/svg" width="30" height="30">
  <path d="M19.3 1.2h-8.6c-3.5 0-6.4 2.9-6.4 6.4v2.2c2.4.5 4.3 2.4 4.3 5v.7c.6.3 1.4.5 2.1.5h8.6c.8 0 1.5-.2 2.1-.4v-.7c0-2.6 1.8-4.5 4.3-5V7.6c0-3.5-2.9-6.4-6.4-6.4z"/>
  <path d="M29 12c-.6-.6-1.5-1-2.5-1-1.9 0-3.5 1.6-3.5 3.5V29h7V14.5c0-1-.4-1.8-1-2.5zM6 12c-.6-.6-1.5-1-2.5-1C1.6 11 0 12.6 0 14.5V29h7V14.5c0-1-.4-1.8-1-2.5zM21 29H9c-.6 0-1-.5-1-1v-2c0-.5.4-1 1-1h12c.5 0 1 .5 1 1v2c0 .5-.5 1-1 1zM21 23H9c-.6 0-1-.5-1-1v-3c0-.5.4-1 1-1h12c.5 0 1 .5 1 1v3c0 .5-.5 1-1 1z"/>
</svg>