<svg xmlns="http://www.w3.org/2000/svg" width="30" height="30">
  <path d="M11.8 2.3c0-1.3-1-2.3-2.3-2.3-1.4 0-2.4 1-2.4 2.3 0 1.3 1 2.4 2.4 2.4 1.2 0 2.3-1.1 2.3-2.4zM18.5 15.1L11 6c-.4-.5-2.5-.8-3.5 0l-3.6 6.6.9 5.6c.9 1.5 2.7 0 2.2-.8l-.6-4 1.5-2.9-.1 7.1-3.3 10.2c-.6 2.2 2.6 3.1 3.2 1l4.1-11.3v-5.7L9.9 9.6c-.1-.1-.1-.3 0-.4.1-.1.3-.1.4 0l6.2 7.4c1 1.4 3-.1 2-1.5z"/>
  <path d="M15.6 27.7L12 18.6l-1.5 4.2 2.1 6.2c.9 2 3.9.8 3-1.3zM25.4 29.8c.2.2.4.2.6.1.2-.1.2-.4.1-.5l-6.9-12c-.1-.2-.4-.2-.6 0-.2.1-.2.4-.1.5l6.9 11.9z"/>
</svg>