<svg xmlns="http://www.w3.org/2000/svg" width="30" height="30">
  <path d="M11.5 5.7c.4-.3.9-.5 1.4-.6V0L0 4.3V30l12.9-4.3V6.9c-.2.1-.3.2-.5.3l-.9-1.5zM1.6 18.5v-1.7s1 0 2.2-.6l.7 1.5c-1.5.8-2.9.8-2.9.8zm4.2-1.6l-1-1.3c.6-.5 1.1-1.1 1.5-1.8l1.5.8c-.6.9-1.2 1.7-2 2.3zm2.5-3.6l-1.6-.6c.4-1 .7-1.8 1.1-2.6l1.5.7c-.3.8-.6 1.5-1 2.5zm1.6-3.5l-1.4-.9C9 8 9.6 7.2 10.3 6.6l1.1 1.2c-.5.6-1 1.2-1.5 2zM15 0v25.7L30 30V4.3L15 0zm10.6 14.7c0 .3 0 .6-.1.9l-1.6-.3v-.6c0-.5-.1-1.1-.2-1.7l1.6-.4c.2.7.3 1.5.3 2.1zm-.8-3.5l-1.6.6c-.3-.8-.7-1.5-1.2-2.1l1.3-1c.7.7 1.2 1.6 1.5 2.5zm-6.6-4.3c-.7-.2-1.6-.4-2.4-.4l.1-1.7c1 0 2 .2 2.8.5l-.5 1.6zm1.8-1c.9.4 1.7 1 2.4 1.7l-1.2 1.2c-.6-.6-1.2-1-2-1.4l.8-1.5zm5 17.7l-1-2.2-1.1 1.4-2.2-.8 1.9-2.3-1.8-3.4 2.4.8.8 1.9 1-1.3 2.2.8-1.8 2.1 1.9 3.7-2.3-.7z"/>
</svg>