<svg xmlns="http://www.w3.org/2000/svg" width="30" height="30">
  <path fill="#231F20"
        d="M29 20.7l-.9-5.6c-.1-.5-.6-.9-1.1-.9-.3 0-.6.1-.8.4L22 18.5l-.2.2c-.4.5-.3 1.3.3 1.7.1.1.2.1.3.2l1 .4c-1 2.9-4.3 5-7.4 5.6V9c1.5-.6 3-2.8 3-4.5C19 2.2 16.8 0 14.5 0S10 2.2 10 4.5c0 1.7 1.5 3.9 3 4.5v17.5c-3.1-.6-6.3-2.7-7.4-5.6l1.1-.4c.1 0 .2-.1.3-.2.5-.4.7-1.2.3-1.7l-.2-.2-4.2-3.9c-.2-.2-.5-.4-.8-.4-.6 0-1 .4-1.1.9l-1 5.7v.3c0 .7.5 1.2 1.2 1.2.1 0 .2 0 .4-.1l1-.3c1.6 4.7 6.7 8.2 12 8.2s10.4-3.4 11.9-8.2l1 .3c.1 0 .2.1.4.1.7 0 1.2-.5 1.2-1.2-.1-.1-.1-.2-.1-.3zM15 6h-1V5h-1V4h1V3h1v1h1v1h-1v1z"/>
</svg>