<svg xmlns="http://www.w3.org/2000/svg" width="30" height="30">
  <path d="M30 14.2s-4.1-.3-6-.1c-.1 0-.7.3-.8.3-1.7.1-2.7-.1-4.2.2-2.4.4-4.8-.2-7.3.1-2.2.2-4.6 0-7 .1-1.1-.8-3.1-.5-4.7-.4v2.3h30v-2.5z"/>
  <path fill-rule="evenodd" clip-rule="evenodd"
        d="M25.8.8L20 5.7l-5.7 4.2H8.4c-.3 0-.7.6-.7 1.2s.3.9.5.9h14.3c.2 0 .6-.3.6-.9 0-.6-.3-1.2-.6-1.2h-5.1l5-3.5 5-4.2c-.1-.2-.4-.5-.7-.8-.4-.3-.8-.6-.9-.6zM23.8 17.8s-.1-.1-.1 0c-6.9 3.9-14.8.8-16.3.1h-.1v.1c9.9 6.5 16.6 0 16.6-.1-.1 0-.1-.1-.1-.1zM21.1 22.9s-.1-.1-.1 0c-4.8 2.6-9.9.5-10.9.1H10v.1c6.6 4.4 11.1-.1 11.2-.1 0 0 0-.1-.1-.1zM18.4 27.7s-.1-.1-.1 0c-1.9.9-4.4.3-5.2.1-.1 0-.1 0-.1.1v.1c3.4 2 5.4-.1 5.4-.1v-.2z"/>
</svg>