<svg xmlns="http://www.w3.org/2000/svg" width="30" height="30">
  <path fill-rule="evenodd" clip-rule="evenodd"
        d="M27 0v3H15.865c-1.012.273-1.832 1.074-1.832 2.061v23.152c0 .988.82 1.788 1.832 1.788h10.826c1.012 0 1.832-.8 2.309-1.788V0h-2zm-3.276 24.795c0-.307.249-.555.556-.555h1.193c.307 0 .556.249.556.555v1.194a.556.556 0 01-.556.556H24.28a.556.556 0 01-.555-.555v-1.195zm0-3.343c0-.306.249-.556.556-.556h1.193c.307 0 .556.249.556.556v1.194a.556.556 0 01-.556.555l-1.194.001a.556.556 0 01-.555-.556v-1.194zm0-3.345c0-.306.249-.555.556-.555h1.193c.307 0 .556.249.556.555v1.194a.556.556 0 01-.556.556H24.28a.556.556 0 01-.555-.556v-1.194zm-3.387 6.688c0-.307.249-.555.556-.555l1.193-.001c.307 0 .556.249.556.556v1.194a.557.557 0 01-.556.556h-1.193a.556.556 0 01-.556-.556v-1.194zm0-3.343c0-.306.249-.556.556-.556h1.193c.307 0 .556.249.556.556v1.194a.556.556 0 01-.556.555l-1.193.001a.556.556 0 01-.556-.556v-1.194zm0-3.344c0-.307.249-.556.556-.556h1.193c.307 0 .556.249.556.555v1.194a.556.556 0 01-.556.556h-1.193a.556.556 0 01-.556-.556v-1.193zM16.95 25.99l.001-1.194c0-.307.249-.555.555-.555H18.7c.307 0 .555.249.555.555v1.194a.556.556 0 01-.555.556h-1.194a.557.557 0 01-.556-.556zm0-3.345l.001-1.194c0-.306.249-.556.555-.556H18.7c.307 0 .555.249.555.556v1.194a.556.556 0 01-.555.555l-1.194.001a.556.556 0 01-.556-.556zm0-3.344l.001-1.194c0-.306.249-.555.555-.555H18.7c.307 0 .555.249.555.555v1.194a.556.556 0 01-.555.556h-1.194a.556.556 0 01-.556-.556zm-.01-6.584l.001-6.257c0-.306.249-.556.555-.556l7.974-.001c.307 0 .555.249.555.556v6.257a.557.557 0 01-.556.556l-7.974.001a.555.555 0 01-.555-.556z"/>
  <path d="M10.429 15.91L2.307 26.736l2.486-7.795H1.477L6.451 8.115h3.978L6.948 15.91h3.481z"/>
</svg>