<svg xmlns="http://www.w3.org/2000/svg" width="30" height="30">
  <g fill="#231F20">
    <path d="M16.5 22.9c-.4.4-.9 1.1-1.5 1.1v-8l5.2-1 .8 2-4.5 5.9z"/>
    <path d="M12 6c-.2.1-1 0-1 0s-.1-.7-.2-.7c-.6 0-1.1.3-1.4.7l-4.1 6.2c-.2.3-.3.6-.3 1 0 .6.3 1.2.8 1.5l5.2 3v5.2c0 .7.9 1.3 1.6 1.3.7 0 1.3-.6 1.3-1.3v-6.4s.2-1-1-1.6l-3.4-1.8L12 9.3l1.3 2.1c.3.4.6.6.9.6h3.4c1.4 0 1.4-2 0-2h-2.7L12 6zM27.1 14.4l.1.2c0 .2-.1.3-.3.3h-.1c-.6-.2-1-.4-1.6-.4-.4 0-1 .2-1.6.7l-.7-1.2c.7-.2 1.4-.4 2-.4 1 0 1.6.2 2.2.8z"/>
    <path d="M4.4 15.3l5.7 3.2v1.3l-6.5-3.6c-.5-.2-1.1-.4-1.6-.4-.7 0-1.1.2-1.6.4H.3c-.2 0-.3-.2-.3-.3l.1-.2c.7-.6 1.3-.8 2.4-.8.5-.1 1.1 0 1.9.4zM25 27.5c1.9 0 3.5-1.6 3.5-3.5s-1.6-3.5-3.5-3.5-3.5 1.6-3.5 3.5 1.6 3.5 3.5 3.5zM20 24c0-2.8 2.2-5 5-5s5 2.2 5 5-2.2 5-5 5-5-2.2-5-5zM5 27.5c1.9 0 3.5-1.6 3.5-3.5S6.9 20.5 5 20.5 1.5 22.1 1.5 24s1.6 3.5 3.5 3.5zM0 24c0-2.8 2.2-5 5-5s5 2.2 5 5-2.2 5-5 5-5-2.2-5-5zM24 18l-2.4-4.7c-.3-.6-.9-1-1.6-1h-1.5c-.3 0-.5.2-.5.6 0 .3.2.5.5.5H20c.3 0 .5.2.7.4l2.2 4.6L24 18zM14 0c-1.7 0-3 1.4-3 3.1 0 .7.2 1.3.6 1.9h.6c.3.6 1 1 1.7 1s1.4-.4 1.7-1h.4V2.5h1C16.7 1.1 15.5 0 14 0z"/>
  </g>
</svg>