<svg xmlns="http://www.w3.org/2000/svg" width="30" height="30">
  <path d="M30 22.4c-.6 0-1.2-.1-1.7-.4-.5-.3-1.1-.4-1.8-.4-.6 0-1.2.1-1.8.4-.5.2-1.1.4-1.7.4-.6 0-1.2-.1-1.7-.4-.5-.3-1.1-.4-1.8-.4-.6 0-1.2.1-1.8.4-.5.2-1.1.4-1.7.4-.6 0-1.2-.1-1.7-.4-.5-.3-1.1-.4-1.8-.4-.6 0-1.2.1-1.8.4-.5.2-1.1.4-1.7.4s-1.2-.2-1.7-.4c-.5-.3-1.1-.4-1.8-.4s-1.2.1-1.7.4c-.5.2-1.1.4-1.7.4v-2.6c.6 0 1.2-.1 1.7-.4.5-.2 1.1-.4 1.8-.4s1.2.1 1.8.4c.5.2 1.1.4 1.7.4s1.2-.1 1.7-.4c.5-.2 1.1-.4 1.8-.4.6 0 1.2.1 1.8.4.5.2 1.1.4 1.7.4.6 0 1.2-.1 1.7-.4.5-.2 1.1-.4 1.8-.4.6 0 1.2.1 1.8.4.5.2 1.1.4 1.7.4.6 0 1.2-.1 1.7-.4.5-.2 1.1-.4 1.8-.4.6 0 1.2.1 1.8.4.5.2 1.1.4 1.7.4v2.6zM23 11.6l5.1.4-.4-2.6-3.7-.3c-1 0-.9 1-.9 1l-.1 1.5z"/>
  <path d="M3.2 17.5c.2-.1.4-.1.6-.2.5-.3 1.1-.4 1.8-.4s1.2.1 1.8.4c.5.2 1.1.4 1.7.4s1.2-.1 1.7-.4c.5-.3 1.1-.4 1.8-.4.6 0 1.2.1 1.8.4.5.2 1.1.4 1.7.4.6 0 1.2-.1 1.7-.4.5-.3 1.1-.4 1.8-.4.6 0 1.2.1 1.8.4.5.2 1.1.4 1.7.4.6 0 1.2-.1 1.7-.4.5-.3 1.1-.4 1.8-.4.6 0 1.2.1 1.8.4.5.2 1.1.4 1.7.4l-.7-4.7-21.1-1.7L11.5 8l-1.4-.1-3.2 3.2-6.9-.5c0 2.3 2.6 6.2 3.2 6.9z"/>
  <circle cx="13.5" cy="9.5" r="1.5"/>
</svg>