<svg xmlns="http://www.w3.org/2000/svg" width="30" height="30">
  <path d="M15.9 1.6v24s9.2 2.9 14.1 2.8v-24s-2.9 0-14.1-2.8zM29 27.3c-1.4-.2-4.7-.7-11-2.2v-1c6.3 1.6 9.6 2.1 11 2.2v1zm0-2c-1.4-.2-4.7-.7-11-2.2v-1c6.3 1.6 9.6 2.1 11 2.2v1zm0-2c-1.4-.2-4.7-.7-11-2.2v-1c6.3 1.6 9.6 2.1 11 2.2v1zm0-6c-1.4-.2-4.7-.7-11-2.2v-1c6.3 1.6 9.6 2.1 11 2.2v1zm0-2c-1.4-.2-4.7-.7-11-2.2v-1c6.3 1.6 9.6 2.1 11 2.2v1zm0-2c-1.4-.2-4.7-.7-11-2.2v-1c6.3 1.6 9.6 2.1 11 2.2v1zm0-2c-1.4-.2-4.7-.7-11-2.2v-1c6.3 1.6 9.6 2.1 11 2.2v1zm0-2c-1.4-.2-4.7-.7-11-2.2v-1c6.3 1.6 9.6 2.1 11 2.2v1zm0-2c-1.4-.2-4.7-.7-11-2.2v-1c6.3 1.6 9.6 2.1 11 2.2v1zM0 4.4v24c4.9.1 14-2.8 14-2.8v-24C2.9 4.4 0 4.4 0 4.4zm12 20.7c-6.3 1.6-9.6 2.1-11 2.2v-1c1.4-.2 4.7-.7 11-2.2v1zm0-2c-6.3 1.6-9.6 2.1-11 2.2v-1c1.4-.2 4.7-.7 11-2.2v1zm0-2c-6.3 1.6-9.6 2.1-11 2.2v-1c1.4-.2 4.7-.7 11-2.2v1zm0-2c-6.3 1.6-9.6 2.1-11 2.2v-1c1.4-.2 4.7-.7 11-2.2v1zm0-2c-6.3 1.6-9.6 2.1-11 2.2v-1c1.4-.2 4.7-.7 11-2.2v1zm0-2c-6.3 1.6-9.6 2.1-11 2.2v-1c1.4-.2 4.7-.7 11-2.2v1zm0-6c-6.3 1.6-9.6 2.1-11 2.2v-1c1.4-.2 4.7-.7 11-2.2v1zm0-2C5.7 8.7 2.4 9.2 1 9.3v-1c1.4-.2 4.7-.7 11-2.2v1zm0-2C5.7 6.7 2.4 7.2 1 7.3v-1c1.4-.2 4.7-.7 11-2.2v1z"/>
</svg>