<svg xmlns="http://www.w3.org/2000/svg" width="30" height="30">
  <path d="M20 17v-2h-4v8h4v-2h-2v-1h2v-2h-2v-1zM22 23v-8h2l1 5v-5h1v8h-2l-1-5v5zM6 15c-1.1 0-2 .9-2 2v4c0 1.1.9 2 2 2s2-.9 2-2v-4c0-1.1-.9-2-2-2zm0 6c-.6 0-1-.9-1-2s.4-2 1-2 1 .9 1 2-.4 2-1 2zM12 15h-2v8h2v-3c1.1 0 2-1.1 2-2.5s-.9-2.5-2-2.5zm0 4v-3c.6 0 1 .7 1 1.5s-.4 1.5-1 1.5z"/>
  <path d="M26 9l-9-7.4C16.8.7 16 0 15 0s-1.8.7-2 1.6L4 9H0v21h30V9h-4zM13.2 2.8c.3.7 1 1.2 1.8 1.2s1.5-.5 1.8-1.2L24.4 9H5.6l7.6-6.2zM28 28H2V11h26v17z"/>
</svg>