<svg xmlns="http://www.w3.org/2000/svg" width="30" height="30">
  <path d="M6.7 5.6C8 5.5 9 4.2 8.8 2.9 8.6 1.6 7.4.6 6.1.8 4.7 1 3.8 2.2 4 3.5c.1 1.4 1.4 2.3 2.7 2.1zM27.9 23.9c-.7.4-1.3 1.1-2.1 1.1-1 0-1.5-.6-2.1-1.1-.5-.3-1.3-1.1-2.1-1.1s-1.6.6-2.1 1.1c-.5.4-1.2 1.1-2.1 1.1-.9 0-1.6-.6-2.1-1.1-.6-.4-1.1-1.1-2.1-1.1s-1.7.7-2.1 1.1C10.6 24.3 10 25 9 25s-1.6-.7-2.1-1.1c-.5-.3-.9-1.1-2.1-1.1-1.1 0-1.6.7-2.1 1.1-1 .3-2.7 1-2.7 1v4.2s1.7-.7 2.1-1.1c.5-.4 1-1.1 2.1-1.1 1.2 0 1.6.7 2.1 1.1.5.4 1.2 1.1 2.1 1.1 1.1 0 1.6-.7 2.1-1.1.5-.3 1.1-1.1 2.1-1.1s1.6.6 2.1 1.1c.6.5 1.2 1.1 2.1 1.1 1 0 1.7-.7 2.1-1.1.6-.5 1.4-1.1 2.1-1.1.8 0 1.7.7 2.1 1.1.6.4 1.2 1.1 2.1 1.1.9 0 1.4-.7 2.1-1.1.7-.4 2.1-1.1 2.1-1.1v-4.2c.6.1-.8.8-1.5 1.2z"/>
  <path d="M28.7 16.4c-1.7-.1-2.5-2.5-3.3-3.4-.2-.2-6.9-.8-7.7.7l-3.1-3.6s-.3-.3-.9-.3c-.3 0-.6.1-.9.3L9.5 13 8 8.1C7.7 7 6.6 6.3 5.4 6.4c-1.3.2-2.3 1.4-2.1 2.8 0 .2.1.3.1.4l1.8 6.1s.3-.1.9.3H0v6.8s1.7-.7 2.1-1.1c.5-.4 1-1.1 2.1-1.1 1.2 0 1.6.7 2.1 1.1.5.4 1.2 1.1 2.1 1.1 1.1 0 1.6-.7 2.1-1.1.5-.3 1.1-1.1 2.1-1.1s1.6.6 2.1 1.1c.6.5 1.2 1.1 2.1 1.1 1 0 1.7-.7 2.1-1.1.6-.5 1.4-1.1 2.1-1.1.8 0 1.7.7 2.1 1.1.2.1.4.3.6.5l5.8-5.8h-.8zm-14.9-2.7l1.8 2.3h-4l2.2-2.3z"/>
</svg>