<svg xmlns="http://www.w3.org/2000/svg" width="30" height="30">
  <path d="M6.9 22.3l-2.8-7.9 1.7-.6L9 16.4c.8.7 1.6 1.4 2.3 2.2-.5-1-.9-2-1.3-3.2l-1-2.8 1.3-.5 2.8 7.9-1.5.5-3.3-2.8c-.8-.7-1.7-1.5-2.4-2.2.4 1 .8 2 1.3 3.3l1 2.8-1.3.7zM12.4 11.5c.5-.3 1.2-.6 2.2-.9 1.1-.4 1.9-.4 2.6-.2.6.2 1.1.7 1.4 1.5.3.8.2 1.4 0 2-.4.8-1.2 1.4-2.2 1.7-.3.1-.5.2-.7.2l1.1 3-1.4.5-3-7.8zm2.7 3.2c.2 0 .4-.1.7-.2 1.1-.4 1.5-1.2 1.2-2.1-.3-.9-1.1-1.1-2.1-.8-.4.1-.7.3-.8.4l1 2.7zM21.2 15.4c.6.1 1.4.1 2.1-.2.9-.3 1.3-.9 1.1-1.6-.2-.6-.7-.8-1.9-.8-1.5 0-2.6-.4-3-1.5-.5-1.3.3-2.6 2-3.3.9-.3 1.5-.3 2-.3l.1 1.3c-.3 0-1-.1-1.7.2-.9.3-1.1.9-1 1.4.2.6.8.7 2 .8 1.6 0 2.5.5 2.9 1.6.5 1.3-.1 2.7-2.2 3.4-.8.3-1.8.4-2.3.3l-.1-1.3z"/>
  <path d="M15 30C6.7 30 0 23.3 0 15S6.7 0 15 0s15 6.7 15 15-6.7 15-15 15zm0-28.3C7.7 1.7 1.7 7.7 1.7 15s6 13.3 13.3 13.3 13.3-6 13.3-13.3S22.3 1.7 15 1.7z"/>
</svg>