<svg xmlns="http://www.w3.org/2000/svg" width="30" height="30">
  <path d="M12.8 5.5c0 .3.3.5.6.5s.5-.1.7-.3c.2-.2.2-.5.2-.8h-.4c-.5-.1-1.1 0-1.1.6zM9.2 2.2h-.4v1.6h.4c.5 0 1-.2 1-.8 0-.6-.5-.8-1-.8z"/>
  <path d="M5 0v9h20V0H5zm4.2 4.6h-.4v2h-1V1.4h1.3c1.1 0 2.1.3 2.1 1.6 0 1.2-.8 1.6-2 1.6zm5.2 1.9v-.6c-.2.4-.7.7-1.2.7-.7 0-1.3-.4-1.3-1.1 0-.6.3-.9.6-1.1.4-.2.9-.2 1.3-.2h.5c0-.6-.3-.8-.9-.8-.4 0-.8.2-1.2.4V3c.4-.2.9-.3 1.3-.3 1.2 0 1.6.5 1.6 1.6v2.2h-.7zm2.9.1c-.4 0-.8-.1-1.1-.2l.1-.8c.3.2.6.3 1 .3.3 0 .6-.1.6-.5 0-.7-1.7-.2-1.7-1.6 0-.8.7-1.2 1.5-1.2.5 0 .8.1 1.1.1l-.1.7c-.3-.1-.5-.2-.9-.2-.3 0-.6.1-.6.4 0 .6 1.7.2 1.7 1.6-.1 1.1-.8 1.4-1.6 1.4zm3.4 0c-.4 0-.8-.1-1.1-.2l.1-.8c.3.2.6.3 1 .3.2 0 .6-.1.6-.5 0-.7-1.7-.2-1.7-1.6 0-.8.7-1.2 1.5-1.2.5 0 .8.1 1.1.1l-.2.9c-.3-.1-.5-.2-.9-.2-.3 0-.6.1-.6.4 0 .6 1.7.2 1.7 1.6.1.9-.7 1.2-1.5 1.2zM5 11v19h20V11H5zm17 16H8v-2h14v2zm0-4H8v-2h14v2zm0-4H8v-2h14v2zm0-4H8v-2h14v2z"/>
</svg>