<svg xmlns="http://www.w3.org/2000/svg" width="30" height="30">
  <path d="M16.1 4.5c1.2.1 2.3-.8 2.4-2.1.1-1.2-.8-2.3-2.1-2.4-1.2-.1-2.3.8-2.4 2.1-.1 1.2.8 2.3 2.1 2.4zM14.2 5.4c.4-.3 1-.5 1.6-.5.8.1 1.4.5 1.8 1.1l2.3 4.5 3.1 2.1c.3.2.4.5.4.9 0 .6-.5 1-1.1.9-.2 0-.3-.1-.5-.1L18.4 12l-.3-.3-.9-1.7-1 4.5 4 4.7c.1.1.1.3.2.5l1.1 5.7v.3c-.1.8-.8 1.5-1.6 1.4-.7-.1-1.2-.6-1.4-1.2l-1-5.3-3.2-3.6-.8 3.5c0 .2-.2.5-.3.6l-3.1 5.2c-.3.5-.8.8-1.4.7-.8-.1-1.5-.8-1.4-1.6 0-.2.1-.5.2-.7l2.9-4.9 2.4-10.7-1.6 1.3-.8 3.8c-.1.5-.6.9-1.1.8-.6 0-1-.5-.9-1.1v-.1l1-4.4c.1-.2.2-.4.3-.5l4.5-3.5zM0 28h4v2H0zM8 28h4v2H8zM16 28h4v2h-4zM24 28h4v2h-4zM3 21h4v2H3z"/>
  <path d="M11 21h4v2h-4zM19 21h4v2h-4zM27 21h3v2h-3z"/>
</svg>