<svg xmlns="http://www.w3.org/2000/svg" width="30" height="30">
  <path d="M9.7 7c1.3-.2 2.3-1.4 2.1-2.7-.2-1.4-1.4-2.3-2.7-2.2-1.3.2-2.3 1.4-2.1 2.7.1 1.4 1.3 2.3 2.7 2.2zM27.9 23.9c-.7.4-1.3 1.1-2.1 1.1-1 0-1.5-.6-2.1-1.1-.5-.3-1.3-1.1-2.1-1.1s-1.6.6-2.1 1.1c-.5.4-1.2 1.1-2.1 1.1-.9 0-1.6-.6-2.1-1.1-.6-.4-1.1-1.1-2.1-1.1s-1.7.7-2.1 1.1C10.6 24.3 10 25 9 25s-1.6-.7-2.1-1.1c-.5-.3-.9-1.1-2.1-1.1-1.1 0-1.6.7-2.1 1.1-1 .3-2.7 1-2.7 1v4.2s1.7-.7 2.1-1.1c.5-.4 1-1.1 2.1-1.1 1.2 0 1.6.7 2.1 1.1.5.4 1.2 1.1 2.1 1.1 1.1 0 1.6-.7 2.1-1.1.5-.3 1.1-1.1 2.1-1.1s1.6.6 2.1 1.1c.6.5 1.2 1.1 2.1 1.1 1 0 1.7-.7 2.1-1.1.6-.5 1.4-1.1 2.1-1.1.8 0 1.7.7 2.1 1.1.6.4 1.2 1.1 2.1 1.1.9 0 1.4-.7 2.1-1.1.7-.4 2.1-1.1 2.1-1.1v-4.2c.6.1-.8.8-1.5 1.2z"/>
  <path d="M4.3 20.8c1.2 0 1.6.7 2.1 1.1.5.4 1.2 1.1 2.1 1.1 1.1 0 1.6-.7 2.1-1.1.5-.3 1.1-1.1 2.1-1.1s1.6.6 2.1 1.1c.6.5 1.2 1.1 2.1 1.1 1 0 1.7-.7 2.1-1.1.6-.5 1.4-1.1 2.1-1.1.8 0 1.7.7 2.1 1.1.1 0 .1.1.2.2 2.4-.7 5-1.6 5.9-2.4.4-.3.5-.9-.1-1.2-.1-.1-10-5.1-10-5.1l-2.5-3.2c-.3-.3-.9-.3-1.2.1-.2.3-.3.6-.1.9l1.9 2.4-1.2 3.4-4.1-1-.2-1.5 3.4-.4c.2 0 .3-.1.5-.1.6-.3.8-1 .5-1.5-.2-.4-.7-.7-1.1-.6l-3.4.4-.3-2.6c-.2-1.3-1.4-2.3-2.7-2.1-1.5.1-2.4 1.4-2.3 2.7l.7 5.9c.1.8.5 1.4 1.1 1.8l-5.4.6-1.5 3.7c.4-.2.7-.3.8-.4.6-.4 1.1-1.1 2.2-1.1z"/>
</svg>