<svg xmlns="http://www.w3.org/2000/svg" width="30" height="30">
  <path fill="#231F20"
        d="M5.2 17.1c1.8 0 3.2-1.4 3.2-3.1 0-1.7-1.4-3.1-3.2-3.1C3.4 10.8 2 12.2 2 14c0 1.7 1.4 3.1 3.2 3.1zM23 22.5c.1-.1.3-.1.5.1l.6.8c.1.1.1.3-.1.4l-4.3 3.1c-.1.1-.3.1-.5-.1l-.6-.8c-.1-.1-.1-.3.1-.4l4.3-3.1zm-4.9-4l-1.7-3-.9.6 1.7 3 .9-.6zm-4-6.9L7.5 0H6.2l7 12.2.9-.6zm6.3 6.1c.4-.3.8-.5 1.3-.5h6.2c1.2 0 2.2 1 2.2 2.1 0 1.2-1 2.1-2.2 2.1h-5.2L16.1 26c-2.3 1.7-3.7-.2-3.7-.2l-5.2-5.1c-.9-1-.7-3 .4-3.8l7.1-5c.7-.6 1.8-.5 2.4.2.6.7.5 1.8-.2 2.3l-4.6 3.3 3.3 3.2 4.8-3.2z"/>
</svg>