<svg xmlns="http://www.w3.org/2000/svg" width="30" height="30">
  <path d="M28.5 20h-3.4l2.4-2.4c.6-.6.6-1.5 0-2.1-.6-.6-1.5-.6-2.1 0L23 17.9v-3.4c0-.8-.7-1.5-1.5-1.5s-1.5.7-1.5 1.5v3.4l-2.4-2.4c-.6-.6-1.5-.6-2.1 0-.6.6-.6 1.5 0 2.1l2.4 2.4h-3.4c-.8 0-1.5.7-1.5 1.5s.7 1.5 1.5 1.5h3.4l-2.4 2.4c-.6.6-.6 1.5 0 2.1.6.6 1.5.6 2.1 0l2.4-2.4v3.4c0 .8.7 1.5 1.5 1.5s1.5-.7 1.5-1.5v-3.4l2.4 2.4c.6.6 1.5.6 2.1 0 .6-.6.6-1.5 0-2.1L25.1 23h3.4c.8 0 1.5-.7 1.5-1.5s-.7-1.5-1.5-1.5zM12.5 2c-.8 0-1.5.7-1.5 1.5v5.4L2.6.4C2.3.2 1.9 0 1.5 0 .7 0 0 .7 0 1.5c0 .4.2.8.4 1.1L8.9 11H3.5c-.8 0-1.5.7-1.5 1.5S2.7 14 3.5 14h9.1c.8 0 1.5-.7 1.5-1.5v-9C14 2.7 13.3 2 12.5 2z"/>
</svg>