<svg xmlns="http://www.w3.org/2000/svg" width="30" height="30">
  <path fill="#231F20"
        d="M0 3v23h30V3H0zm26 2v1h-1v1h-1v1h-1v1h-1v1h-1v1h-1v1h-1v1h-1v1h-1v1h-1v1h-2v-1h-1v-1h-1v-1h-1v-1h-1v-1H9v-1H8V9H7V8H6V7H5V6H4V5h22zM2 7h1v1h1v1h1v1h1v1h1v1h1v1h1v1h1v1H9v1H8v1H7v1H6v1H5v1H4v1H3v1H2V7zm2 17v-1h1v-1h1v-1h1v-1h1v-1h1v-1h1v-1h1v-1h1v1h1v1h4v-1h1v-1h1v1h1v1h1v1h1v1h1v1h1v1h1v1h1v1H4zm24-2h-1v-1h-1v-1h-1v-1h-1v-1h-1v-1h-1v-1h-1v-1h-1v-1h1v-1h1v-1h1v-1s1 .1 1 0v-1h1V9h1V8h1V7h1v15z"/>
</svg>