<svg xmlns="http://www.w3.org/2000/svg" width="30" height="30">
  <path d="M24.2 23.9c1.3 1 2.8 1.7 4.3 2.3l-2 3.8c-.8-.2-1.6-.6-2.4-1-.2-.1-1.4-.9-3.6-2.4-1.8.8-3.7 1.2-5.8 1.2-4.1 0-7.4-1.2-9.7-3.6S1.5 18.4 1.5 14C1.5 9.5 2.6 6.1 5 3.7 7.3 1.2 10.5 0 14.5 0s7.1 1.2 9.5 3.7c2.3 2.4 3.5 5.8 3.5 10.2 0 2.3-.3 4.4-1 6.1-.5 1.3-1.2 2.6-2.3 3.9zm-4.4-3.1c.7-.8 1.2-1.8 1.6-3 .3-1.2.5-2.5.5-4 0-3.1-.7-5.4-2.1-7-1.4-1.5-3.2-2.3-5.4-2.3s-4 .8-5.4 2.3c-1.4 1.5-2.1 3.9-2.1 6.9 0 3.1.7 5.5 2.1 7 1.4 1.6 3.1 2.3 5.2 2.3.8 0 1.5-.1 2.2-.4-1.1-.7-2.2-1.3-3.4-1.7l1.5-3.1c2 .9 3.7 1.8 5.3 3z"/>
</svg>