<svg xmlns="http://www.w3.org/2000/svg" width="30" height="30">
  <path d="M16.7.6C16 2.2 15 4.4 14.4 5.7L16.7.6zM3.2 29.4l-1-.9c.3.3.7.7 1 .9z"/>
  <path d="M30 0H17l-.3.6-2.3 5.1c-.2.5-.3.9-.4 1.1-.3 1.5 3.8 2 3.8 2s-.4 1.6-.8 2.5c-.4.8-.6.8-.6 1.3s.3.7.3.7l2.7 2.1s-3.3.1-2.5 1c.8.9 1.2.8 1.9 2.5.8 1.7.3 1.2-.4 3-.3.7-.5 3.5 6.3 3.7l5.2-.1V0zM14.9 29.4c.1-.2.3-.5.4-.9l-.4.9zM15.3 28.5c.1-.3.1-.6.1-1l-1.3-13.4c0-.7-.7-1.2-1.5-1.2s-1.4.6-1.3 1.3l.5 7.3-.7.1-.2-1.1c-.1-.5-.7-.8-1.5-.8-.8.1-1.4.5-1.3 1l.2 1.4-.7.1-.1-.9c-.1-.4-.7-.8-1.5-.7-.8.1-1.4.5-1.3.9l.1 1.2-.7.3v-.1c-.1-.4-.7-.7-1.5-.7-.8.1-1.3.6-1.3 1.3l.4 3.5s.1.8.5 1.4l1 .9.6.7h10.8l.3-.6.4-.9z"/>
</svg>