<svg xmlns="http://www.w3.org/2000/svg" width="30" height="30">
  <path d="M22.304 11.289c-.659-.405-3.013-1.383-3.948-2.784-.881-1.322-2.472-1.376-3.095-1.34h-.523c-.623-.036-2.214.018-3.095 1.34-.935 1.401-3.289 2.379-3.944 2.784-.66.405-.699.455-.699 1.061V17.165c1.999-.154 4.195-.251 6.573-.279.48-.018.96-.029 1.426-.029.469 0 .946.011 1.426.029 2.382.029 4.579.125 6.575.279V12.35c0-.606-.04-.656-.696-1.061zM24.875 19.616c-2.64-.284-6.089-.458-9.875-.458-3.847 0-7.345.179-10 .472-3.062.337-5 .825-5 1.37 0 1.017 6.717 1.841 15 1.841 8.283 0 15-.824 15-1.841 0-.552-1.99-1.046-5.125-1.384z"/>
</svg>