<svg xmlns="http://www.w3.org/2000/svg" width="30" height="30">
  <g fill="#231F20">
    <path d="M0 12l2.3 1.6.6.4-1.8 3.1c-.1.2-.1.6-.1.9s0 .6.1.9c0 0 1.6 2.9 2.9 5.2.1-.3-.2-.8 0-1.1l3.9-6.1.6.4 2.3 1.3L7.2 12H0z"/>
    <path d="M6.9 22c-.3.5-1.8 2.2-1.8 2.6s.1.7.3 1.1c.4.6 1.1 1.3 1.9 1.3H15v-6H6.9v1zM26 3.1l-2.4 1.3-.6.3-1.8-3.1c-.2-.3-.4-.4-.7-.5-.3-.2-.6 0-.9 0H14c.2.2.8.7 1 1l3 5.5-.6.4-2.3 1h7.2L26 3.1z"/>
    <path d="M15 5.1c-.3-.5-2-2.9-2-2.9-.2-.3 0-1 0-1h-1.4c-.8 0-1.5.4-1.9 1 0 0-3.1 5.2-3.7 6.2.9.5 4.2 2.2 5.1 2.7.5-1 3.6-5.5 3.9-6zM21 30v-2.7l-.2-.3h3.6c.3 0 .6-.5.9-.6.3-.2.5-.4.7-.6 0 0 1.6-2.5 2.9-4.7-.3.1-.6 0-1 0h-7.1l.2-.8V17l-4 7 4 6z"/>
    <path d="M24.9 20h2.9c.4 0 .8-.4 1.1-.6.3-.2.6-.4.8-.8.4-.7.4-1.5 0-2.1 0 0-3.1-5.5-3.7-6.4-.9.5-4.1 2.6-5 3.1.5.9 3.6 6.2 3.9 6.8z"/>
  </g>
</svg>