<svg xmlns="http://www.w3.org/2000/svg" width="30" height="30">
  <path d="M27.9 24.2c-.7.4-1.3 1.1-2.1 1.1-1 0-1.5-.6-2.1-1.1-.5-.3-1.3-1.1-2.1-1.1s-1.6.6-2.1 1.1c-.5.4-1.2 1.1-2.1 1.1-.9 0-1.6-.6-2.1-1.1-.6-.4-1.1-1.1-2.1-1.1s-1.7.7-2.1 1.1c-.5.4-1.1 1.1-2.1 1.1s-1.6-.7-2.1-1.1c-.5-.3-.9-1.1-2.1-1.1-1.1 0-1.6.7-2.1 1.1-1 .3-2.7 1.1-2.7 1.1v4.2s1.7-.7 2.1-1.1c.5-.4 1-1.1 2.1-1.1 1.2 0 1.6.7 2.1 1.1.5.4 1.2 1.1 2.1 1.1 1.1 0 1.6-.7 2.1-1.1.5-.3 1.1-1.1 2.1-1.1s1.6.6 2.1 1.1c.6.5 1.2 1.1 2.1 1.1 1 0 1.7-.7 2.1-1.1.6-.5 1.4-1.1 2.1-1.1.8 0 1.7.7 2.1 1.1.6.4 1.2 1.1 2.1 1.1.9 0 1.4-.7 2.1-1.1.7-.4 2.1-1.1 2.1-1.1v-4.2c.6 0-.8.7-1.5 1.1z"/>
  <path d="M4.3 21c1.2 0 1.6.7 2.1 1.1.5.4 1.2 1.1 2.1 1.1 1.1 0 1.6-.7 2.1-1.1.5-.3 1.1-1.1 2.1-1.1s1.6.6 2.1 1.1c.6.5 1.2 1.1 2.1 1.1 1 0 1.7-.7 2.1-1.1.6-.5 1.4-1.1 2.1-1.1.8 0 1.7.7 2.1 1.1.1.1.3.2.4.3l1.9-.6s4.1-.1 4.1-4v-.5c-2.5 1.8-9.3 2.1-10.2 2.2H0v3.6s1.7-.7 2.1-1.1c.6-.3 1.1-1 2.2-1zM15.1 3.4l-.3.7c-.2.4-.7.7-1.2.7h-.8c.4.6 1.2 1 2 1 1.4 0 2.5-1.1 2.5-2.4v-.1h-2.1s0 .1-.1.1z"/>
  <path d="M13.6 4.3c.3 0 .5-.2.6-.4l.3-.7c.1-.3.4-.4.7-.4h2.5C17.4 1.5 16.2.5 14.8.5c-1.7 0-3 1.3-3 3 0 .3 0 .5.1.8h1.7zM12.9 14.2c-.6 0-1-.4-1.1-1 0-.6.4-1.1 1-1.1l7.7-.4c.7 0 1.1.4 1.1 1s-.4 1.1-1 1.1l-7.7.4z"/>
  <path d="M23.4 15.3c-.5.2-1.1.4-1.8.5l-.9.2c-2.7.4-6.3.4-7.9.5l.7-2.3.8-2.6.4-1.5.3-1.4 4.6-.3c.6 0 1-.5 1-1.1 0-.6-.5-1-1.1-1l-7.7.4c-.6 0-2.8 4.5-2.8 4.5l-1.6 5.1H0v2.4h19.8c2.3-.1 8.4-.6 10-2.2-1.9-2-3.7-2.4-6.4-1.2z"/>
  <path d="M21.7 20.4c-.3 0-.5-.2-.5-.4L19.1 7.1c0-.3.1-.6.4-.6.3 0 .6.1.6.4l2.1 12.9c.1.3-.1.6-.5.6.1 0 .1 0 0 0z"/>
</svg>