<svg xmlns="http://www.w3.org/2000/svg" width="30" height="30">
  <path d="M19.5 8.1c1.5 0 2.7-1.2 2.7-2.7 0-1.5-1.2-2.7-2.7-2.7-1.5 0-2.7 1.2-2.7 2.7 0 1.5 1.2 2.7 2.7 2.7zM30 27.3c-.6 0-1.2-.1-1.8-.4-.6-.3-1.2-.4-1.8-.4-.6 0-1.3.2-1.8.4s-1.2.4-1.8.4c-.6 0-1.2-.1-1.8-.4-.6-.3-1.2-.4-1.8-.4-.7 0-1.3.2-1.8.4s-1.1.4-1.8.4c-.6 0-1.2-.1-1.8-.4-.6-.3-1.2-.4-1.8-.4-.7 0-1.3.2-1.8.4s-1.1.4-1.8.4c-.6 0-1.2-.1-1.8-.4-.6-.3-1.2-.4-1.8-.4-.7 0-1.3.2-1.8.4s-1.1.4-1.8.4v-2.7c.6 0 1.2-.1 1.8-.4.4-.2 1-.4 1.7-.4.6 0 1.3.2 1.8.4s1.2.4 1.8.4c.6 0 1.2-.1 1.8-.4.6-.3 1.2-.4 1.8-.4.7 0 1.3.2 1.8.4s1.2.4 1.8.4c.6 0 1.2-.1 1.8-.4.6-.3 1.2-.4 1.8-.4.7 0 1.3.2 1.8.4s1.1.4 1.8.4c.6 0 1.2-.1 1.8-.4.6-.3 1.2-.4 1.8-.4.7 0 1.3.2 1.8.4s1.2.4 1.8.4v2.7zM2.9 22c.5-.2 1.1-.4 1.8-.4.6 0 1.3.2 1.8.4s1.2.4 1.8.4c.6 0 1.2-.1 1.8-.4.6-.3 1.2-.4 1.8-.4.7 0 1.3.2 1.8.4s1.2.4 1.8.4c.6 0 1.2-.1 1.8-.4.4-.2.7-.3 1.1-.3l4.6-5.3h-5.9l2.5-4.2 5.4 3c1.8 1 3.1-1.3 1.3-2.3l-7.7-4.3c-2.8-1.6-4 1-4 1l-4 6.7H0c.3 1.9 2.1 4.5 2.9 5.7z"/>
  <path d="M20.5 21.6c-.3.1.1.2.5.4.5.2 1.1.4 1.8.4.6 0 1.2-.1 1.8-.4.6-.3 1.2-.4 1.8-.4.7 0 1.3.2 1.8.4s1.2.4 1.8.4v-6h-4.9l-4.6 5.2z"/>
</svg>