<svg xmlns="http://www.w3.org/2000/svg" width="30" height="30">
  <path d="M1 10.5h2.2c1.5 0 2.5.6 2.5 2.2 0 1.1-.8 1.8-1.9 1.9.7.1.8.4 1.1 1l1.4 3.2h-1L4.1 16c-.5-1-.8-1-1.6-1h-.7v3.9H1v-8.4zm.8 3.7h.9c1 0 2.1-.4 2.1-1.5 0-1.4-1-1.5-2.1-1.5h-.9v3zM24 10.5h2.2c1.5 0 2.5.6 2.5 2.2 0 1.1-.8 1.8-1.9 1.9.7.1.8.4 1.1 1l1.4 3.2h-.9L27.2 16c-.6-1-.9-1-1.7-1h-.7v3.9H24v-8.4zm.8 3.7h.9c1 0 2.1-.4 2.1-1.5 0-1.4-1-1.5-2.1-1.5h-.9v3z"/>
  <path d="M29.8 2.8L27 0 14.9 12.1 2.8 0 0 2.8l12.1 12.1L0 27l2.8 2.8 12.1-12.1L27 29.8l2.8-2.8-12.1-12.1z"/>
</svg>