<svg xmlns="http://www.w3.org/2000/svg" width="30" height="30">
  <path fill="#231F20" d="M23 9V8h-1V7h-1V6H1v1H0v9h17v-5h1v-1h4l1-1zm-11 4H3v-3h1V9h7v1h1v3zm9-4h-4V7h3v1h1v1z"/>
  <path fill="#231F20"
        d="M24 11h-5v1h-1v5H0v4h4v-1h1v-1h1v-1h3v1h1v1h1v1h10v-1h1v-1h1v-1h3v1h1v1h1v1h2v-3l-6-7zm1 5h-5v-3h1l1-1 3 3v1z"/>
  <path fill="#231F20"
        d="M10 21.5c0 1.4-1.1 2.5-2.5 2.5S5 22.9 5 21.5 6.1 19 7.5 19s2.5 1.1 2.5 2.5zM7.5 20c-.8 0-1.5.7-1.5 1.5S6.7 23 7.5 23 9 22.3 9 21.5 8.3 20 7.5 20zM27 21.5c0 1.4-1.1 2.5-2.5 2.5S22 22.9 22 21.5s1.1-2.5 2.5-2.5 2.5 1.1 2.5 2.5zM24.5 20c-.8 0-1.5.7-1.5 1.5s.7 1.5 1.5 1.5 1.5-.7 1.5-1.5-.7-1.5-1.5-1.5z"/>
</svg>