<svg xmlns="http://www.w3.org/2000/svg" width="30" height="30">
  <path d="M14.5 13c-1.4 0-2.5 1.1-2.5 2.5s1.1 2.5 2.5 2.5 2.5-1.1 2.5-2.5-1.1-2.5-2.5-2.5zm0 4c-.8 0-1.5-.7-1.5-1.5s.7-1.5 1.5-1.5 1.5.7 1.5 1.5-.7 1.5-1.5 1.5z"/>
  <path d="M30 16v-2h-2V5c0-2.7-1.8-4-4.4-4H4.3C1.6 1 0 2.3 0 5v6.4c0 2 2.3 4.6 4.3 4.6h.9c0 .6 0 1.1-.3 1.5-.1.1-.2.3-.4.4-.7.6-1.5 1.2-2.4 1.8-.3.2-.7.5-1.1.8-.9 1-1.1 2.7-.3 4.1.6 1 1.8 2.2 3.2 2.3 2.1.1 3.5.1 4.8.1h3.8l7.6.1c.3 1.2 1 2 1.8 2h2v-1h3.5c.3 0 .5-.2.5-.5s-.2-.5-.5-.5H24v-3h3.5c.3 0 .5-.2.5-.5s-.2-.5-.5-.5H24v-1h-2c-1 0-1.8 1.3-2 3H8.8c-1.3 0-2.7-.1-4.7-.2-.6 0-1.2-.5-1.6-1.3-.3-.6-.3-1.3.1-1.7.2-.2.4-.3.7-.5l.1-.1c.9-.6 1.8-1.2 2.6-1.9.2-.2.5-.4.7-.7.6-.8.7-1.9.6-2.6h3.9c0-.2-.1-.3-.1-.5 0-1.9 1.6-3.5 3.5-3.5s3.5 1.6 3.5 3.5c0 .2 0 .3-.1.5h12zM14 6c0 1.1-.9 2-2 2H6c-1.1 0-2-.9-2-2V5c0-1.1.9-2 2-2h6c1.1 0 2 .9 2 2v1zm4-1c0-1.1.9-2 2-2h3c1.1 0 2 .9 2 2v1c0 1.1-.9 2-2 2h-3c-1.1 0-2-.9-2-2V5z"/>
</svg>