<svg xmlns="http://www.w3.org/2000/svg" width="30" height="30">
  <path fill="#231F20"
        d="M27.8 30c-.6 0-1.2-.7-1.7-.9-.5-.2-1.1-.4-1.8-.4s-1.2.1-1.8.4c-.5.2-1.1.9-1.7.9-.6 0-1.2-.7-1.7-.9-.5-.2-1.1-.4-1.8-.4-.6 0-1.2.1-1.8.4-.5.2-1.1.9-1.7.9s-1.2-.7-1.7-.9c-.5-.2-1.1-.4-1.8-.4s-1.2.1-1.8.4c-.4.2-1 .9-1.6.9s-1.2-.7-1.7-.9c-.5-.2-1.1-.4-1.8-.4-.6 0-1.2.1-1.8.4-.4.2-1 .9-1.6.9v-2.6c.6 0 1.2-.7 1.7-.9.5-.2 1.1-.4 1.8-.4.6 0 1.2.1 1.8.4.5.2 1.1.9 1.7.9s1.2-.7 1.7-.9c.5-.2 1.1-.4 1.8-.4s1.2.1 1.8.4c.5.2 1.1.9 1.7.9.6 0 1.2-.7 1.7-.9.5-.2 1.1-.4 1.8-.4.6 0 1.2.1 1.8.4.5.2 1.1.9 1.7.9.6 0 1.2-.7 1.7-.9.5-.2 1.1-.4 1.8-.4s1.2.1 1.8.4c.5.2 1.1.9 1.7.9l-.2 2.6zM29.5 12.9l-4.1 1.3-1.9-2.2c.7-.4 2.1-1.2 2.8-1.7.3-.2.6-.7.6-1l.9-3.8 1.4 3.8c.2.4.8.2.6-.2l-1.4-3.9.3-.1c.8-.3.3-1.4-.4-1.1H28L26.6.2c-.2-.4-.8-.2-.6.2l1.4 3.8-.2.1c-.7.2-4 1-4.8.9-.7-.1-1.5-.2-2.2-.3-.7-.1-1 .1-1.5.4-.3.2-2.2 1.3-4 2.5-2.2 1.5-4.6 4-4.6 4L6.6 13c-.9.1-1.7-1.3-2.3-1.8L2.8 9.8c-.1-.1-.3-.1-.4-.1l-2.2.7c-.3.1-.1.3 0 .5l3.6 5.3c.4.5 1.5.8 2.2.7l9.2-1.8h.1V18l-6.9 2.5c-.2.1-.3.2-.2.4 0 0 .1.3.2.4.1.2.2.3.4.3.6 0 2.5-.2 4.7-.4 1.4-.3 12.7-4.2 14.8-5.3 1.5-1.2 1.6-1.8 1.6-1.8.1-.2.1-.3.1-.5l-.2-.5c-.1-.2-.2-.3-.3-.2zM16 17.6v-2.9l6.6-2.4 1.9 2.2-8.5 3.1zm1.9-11.1l1.7 2.1c-2.4.9-5.7 2.1-5.9 2.2-.1 0-.3 0-.4-.2s-.1-.2-.1-.3c-.1-.2 0-.3.1-.4.2-.1 1.1-1 1.7-1.4 1-.8 2.1-1.5 2.9-2zm4.6-.2c0 .2-.2 1.1-.2 1.1s0 .2-.3.3c-.3.1-.8.3-1.5.5L18.7 6h.2c.5-.3.7-.4 1.1-.3 0 0 2 .3 2.2.3.1 0 .3.1.3.3z"/>
</svg>