<svg xmlns="http://www.w3.org/2000/svg" width="30" height="30">
  <g fill="#231F20">
    <circle cx="8" cy="5" r="2"/>
    <path d="M4 7l-.2-.1-1.7-.4c-.3-.1-.6.1-.7.4L0 12.7c-.1.3.1.6.4.7l1.7.4c.3.1.6-.1.7-.4l.2-.7V10h.7L4 8.7V7zM12.5 13.2l-2.9-.7-.7-3.2C8.4 7.8 6.8 8 6.8 8c-1 0-1.5.1-1.8.6V10h-.5L4 12.3V15h-.7L.4 27.1v.3c0 .8.6 1.4 1.4 1.4.7 0 1.2-.4 1.4-1l2.5-10.1 2.3 10c.2.6.7 1.1 1.4 1.1.8 0 1.4-.6 1.4-1.4v-.3L7.6 13.8l.3-1.2.1 1c.2.6.8.7.8.7l3.3.8h.2c.5 0 1-.4 1-1 0-.4-.3-.8-.8-.9zM16.3 29v-9.7l4.6-4.6c.2-.2.3-.5.3-.8s-.1-.6-.3-.8c-.5-.5-1.2-.5-1.7 0L14 18.4V29h2.3zM18 0v6l-5-3zM20 27h2v2h-2zM24 27h2v2h-2zM28 27h2v2h-2zM28 23h2v2h-2zM28 19h2v2h-2zM28 15h2v2h-2zM28 11h2v2h-2zM28 6h2v2h-2zM28 2h2v2h-2zM24 2h2v2h-2zM20 2h2v2h-2z"/>
  </g>
</svg>