<svg xmlns="http://www.w3.org/2000/svg" width="30" height="30">
  <path d="M30 26.4c-.7 0-1.3-.1-1.8-.4-.6-.3-1.2-.4-1.9-.4s-1.3.2-1.9.4c-.6.3-1.2.4-1.8.4s-1.3-.1-1.8-.4c-.6-.3-1.2-.4-1.9-.4s-1.3.2-1.9.4c-.6.3-1.2.4-1.8.4-.7 0-1.3-.1-1.8-.4-.6-.3-1.2-.4-1.9-.4s-1.3.2-1.9.4c-.6.3-1.2.4-1.8.4-.7 0-1.3-.1-1.8-.4-.6-.3-1.2-.4-1.9-.4s-1.3.2-1.9.4c-.6.3-1.2.4-1.8.4v-2.8c.7 0 1.3-.1 1.8-.4.6-.3 1.2-.4 1.9-.4s1.3.2 1.9.4c.6.3 1.2.4 1.8.4.7 0 1.3-.1 1.8-.4.6-.3 1.2-.4 1.9-.4s1.3.2 1.9.4c.6.3 1.2.4 1.8.4.7 0 1.3-.1 1.8-.4.6-.3 1.2-.4 1.9-.4s1.3.2 1.9.4c.6.3 1.2.4 1.8.4s1.3-.1 1.8-.4c.6-.3 1.2-.4 1.9-.4s1.3.2 1.9.4c.6.3 1.2.4 1.8.4v2.8zM16.1 14.9l-2.7-6.5 2.7-1.1-.7-1.7-1.8.8s-.4.2-.9.4l-1.4-3.2-1.6.7L11 7.5c-1.4.6-2.9 1.2-2.9 1.2l.7 1.7 2.9-1.2 2.7 6.5c-5.6 2.3-11 4.6-10.7 4.6.7 0 1.3.2 1.9.4.6.3 1.2.4 1.8.4.7 0 1.3-.1 1.8-.4.6-.3 1.2-.4 1.9-.4s1.3.2 1.9.4c.6.3 1.2.4 1.8.4.7 0 1.3-.1 1.8-.4.6-.3 1.2-.4 1.9-.4s1.3.2 1.9.4c.6.3 1.2.4 1.8.4.2 0 .4 0 .5-.1.3-.1.7-.1 1-.2.6-3.3 2-10 2-10s-4.5 2-9.6 4.1z"/>
</svg>