<svg xmlns="http://www.w3.org/2000/svg" width="30" height="30">
  <path fill="#231F20"
        d="M6.3 15.6c-.1.5.3.9.7 1 .5.1.9-.3 1-.7.1-.5-.2-.9-.7-1s-.9.2-1 .7zm.8-2c.1-.4-.2-.9-.7-.9-.4-.1-.9.2-.9.7-.1.5.2.9.7.9.4.1.8-.2.9-.7zm-1.7-3.1c.4 0 .8.4.8.8s-.4.8-.8.8-.8-.4-.8-.8.4-.8.8-.8zm-.9-2.1c.4 0 .7.3.7.7s-.3.7-.7.7-.7-.3-.7-.7.3-.7.7-.7zm-.9-2.2c.4 0 .7.3.7.7s-.3.7-.7.7-.7-.3-.7-.7.3-.7.7-.7zm-1-2c.3 0 .6.3.6.6s-.3.6-.6.6-.6-.3-.6-.6.3-.6.6-.6zm6.9 8.3c0-.5.4-.8.9-.8s.8.4.8.9-.4.8-.9.8-.8-.4-.8-.9zM9 10c.4 0 .8.4.8.8s-.4.8-.8.8-.8-.4-.8-.8.4-.8.8-.8zM7.7 8.2c.4 0 .8.4.8.8s-.4.8-.8.8-.8-.4-.8-.8.4-.8.8-.8zM6.4 6.5c.4 0 .7.3.7.7s-.3.7-.7.7-.7-.3-.7-.7.3-.7.7-.7zM5 4.8c.4 0 .7.3.7.7s-.3.7-.7.7-.7-.3-.7-.7.3-.7.7-.7zM3.7 3.1c.3 0 .6.3.6.6s-.3.6-.6.6-.6-.3-.6-.6.3-.6.6-.6zm8.1 5.8c-.5 0-.9-.3-.9-.8s.3-.9.8-.9.9.3.9.8c0 .4-.3.8-.8.9zm-1-2.3c0 .4-.3.8-.8.8-.4 0-.8-.3-.8-.8 0-.4.3-.8.8-.8.4.1.8.4.8.8zM9 5.3c0 .4-.3.8-.7.8-.4 0-.8-.3-.8-.7 0-.4.3-.8.7-.8.4 0 .8.3.8.7zm-2.5-2c.4 0 .7.3.7.7s-.3.7-.7.7-.7-.3-.7-.7.3-.7.7-.7zM4.7 2.1c.3 0 .6.3.6.6s-.3.6-.6.6-.6-.3-.6-.6.3-.6.6-.6zM5.8 1c.3 0 .6.3.6.6s-.3.6-.6.6-.6-.3-.6-.6.3-.6.6-.6zm2.2.9c.4 0 .7.3.7.7s-.3.7-.7.7-.7-.3-.7-.7.3-.7.7-.7zm2.3.9c.4 0 .7.3.7.7s-.3.7-.7.7-.7-.3-.7-.7.3-.7.7-.7zm2.3 1c.4 0 .7.3.7.7s-.3.7-.7.7-.7-.3-.7-.7.3-.7.7-.7zm2.3.8c.4 0 .8.4.8.8s-.4.8-.8.8-.8-.4-.8-.8.4-.8.8-.8zm2.3 1c.4 0 .8.4.8.8s-.4.8-.8.8-.8-.4-.8-.8.4-.8.8-.8zm2.2.8c.5 0 .9.4.9.9s-.4.9-.9.9-.9-.4-.9-.9.4-.9.9-.9zM1 0h5v1H5v1H4v1H3v1H2v1H1V0zm19 17v-1h1v-1h1v-1h1v-1h1v-1h1v-1h1v-1h2l1 1v1l-8 8v10h-9v-5H7v-1H6v-2l6-5h8zm-7 4v1h1v3h-1v1h2l1-1v-3l-1-1h-2zm2.5-12c1.9 0 3.5 1.6 3.5 3.5S17.4 16 15.5 16 12 14.4 12 12.5 13.6 9 15.5 9z"/>
</svg>