<svg xmlns="http://www.w3.org/2000/svg" width="30" height="30">
  <path d="M28.8 8.9c-1.6.9-2.5 1.3-4.2 1.2-.6 0-1-.3-1.6-.2-.6 0-.9.2-1.5.4-.9.3-1.4.5-2.3.8-.6.2-1 .2-1.6.4-.5.2-.3 0-.6.5-.5.5-.4.9-.8 1.8-.6 1.2-.5 1.3-.2 1.5-.2.6-.3 1-.2 1.7.1.5-.2.8.4 1.2.7.5 2.3 1.8 2.7 1.8.6 0 2.3 0 3.2-.6.2-.1.3-.2.1.2 0 .1-2.2 1.7-2.4 1.7-2.7.1-1.8.2-2 .2-.1 0-1.4-1.6-2.2-1-.3.2-.4.4-.5.7.1.2.6.5 1 .8.6.4.7.8 1.3 1 .8.2 1.6.1 2.1.1.2.1 1.9-.4 3-1 1-.5-1.4 1-1.9 1.7-1.7.5-1.2.6-2.1.7-.8.2-.7.1-1.2.3-.5.1-1 .9-.5 1.2.3.3 1.3-.1 2.2-.1.4 0 2.1-.8 2.5-1 1-.5 1.7-1.2 2.2-1.6.5-.4-1.2 1.6-1.9 2.5-.2.3-.3.3-.5.7-.4.5.1 1.4.4 1.2.3-.1.5-.7.9-.9.2-.1.6-.8 1.1-1.2.3-.4.6-.5.9-.9.5-.6.6-1.1 1.1-1.8.3-.4.5-.5.7-.9 1.3-2.5.9-3.7 2.2-5.5.4-.5.8-.7 1.5-1 .6-4.2-1.3-6.6-1.3-6.6zm-6.3 6.7c-.4 1.1-.3 1.2-.9 1.6-.8.5-.8.1-2.4 1 0 0-.7-.7-1.7-1 0 0-.3-1.3-.9-1.8 1.3-1 1.3-1.9 1.7-1.9.5 0 1.3.2 2.7-.3.8 1.6 1.8 1.5 1.5 2.4zM12.5 8.5zM14.3 8c-.6-.4-.7-.9-1.3-1-.8-.2-1.6-.1-2.1-.2-.2 0-1.9.5-3 1-1 .5 1.3-1 1.9-1.7 1.7-.5 1.2-.5 2.1-.7.8-.2.7-.1 1.2-.3.5-.1 1-.9.5-1.3-.3-.2-1.3.1-2.2.1-.4 0-2.1.8-2.5 1-1 .5-1.7 1.2-2.2 1.6-.9.6.8-1.4 1.5-2.3.2-.3.3-.3.6-.7.4-.5-.2-1.3-.4-1.2-.3.1-.5.7-.9 1-.2 0-.6.7-1.1 1.2-.3.3-.5.5-.8.9-.5.6-.6 1.1-1.1 1.7-.3.4-.5.5-.7 1-1.3 2.5-1 3.7-2.2 5.4-.4.6-.8.7-1.5 1-.6 4.2 1.3 6.6 1.3 6.5 1.6-.9 2.5-1.3 4.2-1.2.6 0 1 .3 1.6.3.6 0 .9-.3 1.5-.4.9-.3 1.4-.5 2.3-.8.6-.2 1-.2 1.6-.4.5-.2.3 0 .6-.4.5-.5.4-1 .8-1.8.6-1.2.5-1.4.2-1.5.2-.6.3-1 .2-1.7-.1-.5.2-.9-.4-1.2-.7-.6-2.3-1.8-2.6-1.8-.6 0-2.3-.1-3.2.5-.2.2-.3.3-.1-.2 0-.1 2.2-1.7 2.4-1.8 1.5-.1 1.9-.1 2-.1.1 0 1.4 1.6 2.2 1 .3-.2.4-.4.6-.7-.1-.2-.6-.6-1-.8zm-5.9 4.8c.7-.5.8-.1 2.4-1 0 0 .7.7 1.7 1 0 0 .3 1.3.9 1.8-1.3 1.1-1.3 1.9-1.7 2-.5-.1-1.3-.3-2.7.2-.8-1.6-1.8-1.5-1.5-2.4.4-1.1.3-1.2.9-1.6z"/>
</svg>