<svg xmlns="http://www.w3.org/2000/svg" width="30" height="30">
  <path d="M13 4l-2.5 2.9L13 9.5zM9.5 8.1L8.2 9.6l4.8 4.8v-2.8zM7.2 10.7L7 11H0v8h7l6 7v-9.5zM21.4 15c0-5.4-2.3-9.7-5.4-10.5l-1.7 2c.2-.1.5-.1.7-.1 2.1 0 4.4 3.5 4.4 8.6v.8l1.8 1.8c.1-.8.2-1.7.2-2.6zM19.1 17.7c-.1.8-.3 1.6-.6 2.2l1.5 1.5c.3-.6.5-1.3.7-2.1l-1.6-1.6zM15 23.6c-.2 0-.5 0-.7-.1l1.7 2c1.3-.3 2.4-1.3 3.3-2.7l-1.4-1.4c-.8 1.4-1.9 2.2-2.9 2.2z"/>
  <path d="M25.4 15c0-6.5-2.7-11.7-6.6-13.7l-1.3 1.6C21 4.4 23.4 9.1 23.4 15c0 1.5-.2 3-.5 4.3l1.6 1.6c.6-1.7.9-3.7.9-5.9zM22.4 21c-.2.7-.5 1.4-.8 2l1.5 1.5c.3-.6.7-1.2.9-1.9L22.4 21zM17.4 27.1l1.3 1.6c1.3-.7 2.5-1.7 3.4-3l-1.4-1.4c-.9 1.3-2 2.3-3.3 2.8zM24.5 25.9l1.4 1.4c.4-.6.7-1.2 1-1.8L25.4 24c-.2.7-.6 1.3-.9 1.9z"/>
  <path d="M1.4 0H0v1.4L28.6 30H30v-1.4zM25 28.6l-1.4-1.4c-.9 1.2-2 2.1-3.1 2.9h3.2c.5-.5.9-1 1.3-1.5zM27.4 15c0 2.8-.5 5.3-1.3 7.6l1.5 1.5c1.1-2.7 1.7-5.7 1.7-9.1 0-6.3-2.2-11.7-5.7-15h-3.2c4.2 2.6 7 8.2 7 15z"/>
</svg>