<svg xmlns="http://www.w3.org/2000/svg" width="30" height="30">
  <path d="M11.5 29.7c.5 0 .9-.4.9-.9s-.4-.9-.9-.9-.9.4-.9.9.4.9.9.9zM18.5 29.7c.5 0 .9-.4.9-.9s-.4-.9-.9-.9-.9.4-.9.9c.1.5.4.9.9.9zM9.5 27.2s-.5 0-.5-.6c0-.5.5-.6.5-.6H20s.5 0 .5.6c0 .5-.5.6-.5.6H9.5zM16.8 4.6c1.3 0 2.3-1 2.3-2.3 0-1.3-1-2.3-2.3-2.3-1.3 0-2.3 1-2.3 2.3 0 1.3 1 2.3 2.3 2.3zM4.2 24.9c-.1.2-.2.4-.2.7 0 .8.7 1.5 1.5 1.5.6 0 1.1-.3 1.3-.8l5.1-8.7-2.1-2.1-5.6 9.4z"/>
  <path d="M15.2 24.5c-.2.5-.7.8-1.3.8-.8 0-1.5-.7-1.5-1.5 0-.3.1-.5.2-.7l2.2-3.9-4.3-4.2c-1.6-1.7-.5-3.4-.5-3.4L12.6 7H6.5C5.8 7 5 6.7 5 6s.5-.9 1.2-.9h18.5c.7 0 1.2.3 1.2.9s-.2 1-.9 1h-7l-3.7 6.4 3.4 3.4c1.2 1.2.4 2.5.4 2.5l-2.9 5.2z"/>
</svg>