<svg xmlns="http://www.w3.org/2000/svg" width="30" height="30">
  <g fill="#231F20">
    <path d="M29.2 23.3l-3.9-1.5-1-1.8H24v-.4l-.9-1.6H23v-.2l-.6-1.1s-.2-.6-1.1-.9L11.9 12 6.3 2.6C5.9 2 5.3 2 4.7 2 3.6 2 3 4 3 4l5.7 10H9v.5l1 1.7-4.4-1.8-1.1.7L22.1 22l.7 1.1s.2.5.8.8h.4v.2l2.1.8c-.7.7-1.5.9-2.1.9v.2h-1v-.1c-.2 0-.3-.1-.3-.1L1.2 17.2l-1.2.7 22.5 8.9c2.6 1 4.7-1.3 4.7-1.3l1.1.4c.1 0 .3.1.4.1.7 0 1.3-.6 1.3-1.3 0-.7-.3-1.2-.8-1.4zM27 13c-1.7 0-3 1.3-3 3 0 .8.3 1.5.8 2h.2v.2c.5.5 1.2.8 2 .8 1.7 0 3-1.3 3-3s-1.3-3-3-3z"/>
  </g>
</svg>