<svg xmlns="http://www.w3.org/2000/svg" width="30" height="30">
  <path d="M19.9 16.5c-1.9 0-3.5-1.6-3.5-3.5 0-.4.1-.7.2-1-2.4 0-4.3-2-4.3-4.4 0-2.4 1.9-4.3 4.3-4.4v1.3c-1.7 0-3.1 1.4-3.1 3.1 0 1.7 1.4 3.1 3.1 3.1.2 0 .4 0 .6-.1h.2c.4 0 .7.3.7.7 0 .2 0 .3-.1.4-.2.4-.4.8-.4 1.2 0 1.2 1 2.2 2.2 2.2h4.6c1.7 0 3.5 1.4 3.5 3.1v2.5h-1v-2.5c0-1-1.5-1.9-2.5-1.9h-4.5z"/>
  <path d="M20.9 11.7c.5-.6.7-1.4.7-2.2 0-2-1.6-3.6-3.6-3.6h-.3V4.6h.3c2.7 0 4.9 2.2 4.9 4.9 0 .7-.2 1.4-.4 2h.9c3.6 0 6.6 3 6.6 6.6v2.7h-1v-2.7c0-2.9-2.7-5.3-5.6-5.3h-1.9c-.4 0-.7-.3-.7-.7 0-.2.1-.3.1-.4zM0 22h26v5H0zM29 22h1v5h-1zM27 22h1v5h-1z"/>
</svg>