<svg xmlns="http://www.w3.org/2000/svg" width="30" height="30">
  <path d="M21.1 4.8c1.3 0 2.4-1.1 2.4-2.4S22.4 0 21.1 0c-1.3 0-2.4 1.1-2.4 2.4s1 2.4 2.4 2.4zM27.5 14.1c-.4 1-1.3.7-1.3.7l-3.8-1.4c-.4-.1-.7-.4-.8-.8l-.8-2.6-1.3 3.7 4 4.1c.5.9.4 1.5.4 1.5V25c1.4 0 2.5 1.1 2.5 2.5S25.3 30 23.9 30c-.2 0-.4 0-.6-.1L15 28.1v-1.2l6.2-1.4v-5.2L17 16.1l-.6 4.4c-.1.6-.5 1.1-.7 1.3l-2.9 3.4h-.2.2c.8.6 1.1 1.6.9 2.6-.3 1.4-1.7 2.2-3 1.9-.2-.1-.4-.1-.6-.2l-7.7-3.7.3-1.2 7 .1 3.3-3.9 1-7.6 2.2-5.7-3 1.7-1.8 3.5c-.5 1.1-1.5.5-1.5.5-.9-.5-.5-1.4-.5-1.4l1.8-3.7c.5-.9.9-1.1.9-1.1l4.3-2.3c.9-.6 2-.1 2-.1l2.5.9c1.2.4 1.3 1.1 1.3 1.1l1.5 4.9 3.3 1.2s.9.4.5 1.4zm-3.8 14.8h.2c.8 0 1.4-.6 1.4-1.4 0-.8-.6-1.4-1.4-1.4v.3c0 .7-.6 1.3-1.3 1.3-.6 0-1.2-.5-1.3-1.1l-3.9.9 6.3 1.4zm-13-.4c.1 0 .1 0 .2.1.8.2 1.5-.3 1.7-1 .1-.6-.1-1.1-.5-1.5l-.6.7c-.5.6-1.3.6-1.9.1-.3-.3-.5-.7-.4-1.1L5 25.7l5.7 2.8z"/>
</svg>