<svg xmlns="http://www.w3.org/2000/svg" width="30" height="30">
  <path d="M23.7 6.1c1.4 0 2.5-1.1 2.5-2.5s-1.1-2.5-2.5-2.5-2.5 1.1-2.5 2.5 1.1 2.5 2.5 2.5zM17.6 12.7l5.2-2.6 4.9 4.5c.2.2.5.3.8.3.7 0 1.2-.5 1.2-1.2 0-.3-.2-.7-.4-.9l-6.9-6.4c-.2-.2-.5-.4-.8-.5L16.2 4 13.7.4c-.2-.3-.5-.4-.8-.5-.6-.1-1.2.4-1.3 1 0 .3 0 .5.2.8l2.5 3.6c.1.2.3.3.4.3l2.9 1.1-4.8 2.4c-.7.4-1.1 1-1.3 1.8v4.4l-4.4 2c-.5.2-.9.7-.9 1.3 0 .8.6 1.6 1.5 1.6.3 0 .5-.1.7-.2l5.4-2.4c.4-.2.7-.6.8-1v-2.7l3.8 3.4-.7 5.7v.1c0 .8.6 1.6 1.5 1.6.8 0 1.5-.5 1.6-1.3l.8-6.5v-.1c0-.5-.2-.9-.5-1.2l-3.5-2.9z"/>
  <path d="M1.3 17c-.8.3-1.2 1.2-1 2 .5 1.3 1.5 2.4 2.8 2.9l20.7 7.9c1.3.5 2.8.4 4-.3.7-.4 1-1.4.6-2.1-.4-.7-1.4-1-2.1-.6-.4.2-.9.3-1.4.1l-20.7-8c-.4-.2-.8-.5-.9-1-.3-.8-1.2-1.2-2-.9z"/>
</svg>