<svg xmlns="http://www.w3.org/2000/svg" width="30" height="30">
  <path fill="#231F20"
        d="M23.3 16.2c-3.8-.7-9.9-1.8-10.7-2.2-.7-.4-1.5-1.1-.9-1.7 3.1-3 5.8-4.6 7.8-5.4h-2c-2 .2-12.2 3.6-15.2 5.7-1.4 1-2.5 2.6-.8 3.8C3.2 17.7 15 18.3 14.2 21c-.8 2.6-11.3 8-14.5 9H21s6.8-5.8 7.3-7.4c1.3-4-1.2-5.6-5-6.4zM19.4 6.9h-2c0-2 1.2-3.7 3.2-4.9C23 .6 26.1.5 28.1 1.8l-1 1.7c-1.4-.9-3.7-.8-5.5.3-1.4.7-2.2 1.9-2.2 3.1z"/>
  <path fill="#231F20"
        d="M19.4 6.9h-2c0-1.2-.8-2.4-2.2-3.2-1.8-1-4.1-1.1-5.5-.3l-1-1.7c2.1-1.2 5.1-1.1 7.5.2 2 1.2 3.2 3 3.2 5z"/>
</svg>