<svg xmlns="http://www.w3.org/2000/svg" width="30" height="30">
  <circle cx="24.5" cy="21.5" r="1.5"/>
  <circle cx="7" cy="20" r="1.5"/>
  <path d="M24 7V3H7L3 13l4 1c0 2.2 1.8 4 4 4h9c2.2 0 4-1.8 4-4l4-4V7h-4zm-13 3H8V6h3v4zm6 0h-4V6h4v4zm5 0h-3V6h3v4z"/>
  <path d="M7 13c-3.9 0-7 3.1-7 7s3.1 7 7 7 7-3.1 7-7-3.1-7-7-7zm0 13c-3.3 0-6-2.7-6-6s2.7-6 6-6 6 2.7 6 6-2.7 6-6 6zM24.5 16c-3 0-5.5 2.5-5.5 5.5s2.5 5.5 5.5 5.5 5.5-2.5 5.5-5.5-2.5-5.5-5.5-5.5zm0 10C22 26 20 24 20 21.5s2-4.5 4.5-4.5 4.5 2 4.5 4.5-2 4.5-4.5 4.5z"/>
</svg>