<svg xmlns="http://www.w3.org/2000/svg" width="30" height="30">
  <path d="M13.2 3.8c.4-1.3-.3-2.7-1.6-3.1-1.3-.4-2.7.3-3.1 1.6-.4 1.3.3 2.7 1.6 3.1 1.3.4 2.7-.3 3.1-1.6z"/>
  <path d="M17.8 11.3l-.9-5.8 5.7-3.3c.3-.1.5-.4.6-.7.2-.6-.2-1.3-.8-1.5-.3-.1-.7 0-1 .1L13.3 5c-.3.2-.5.4-.7.6l-3.4 4.6-4.8-.6c-.3.1-.6.3-.7.6-.3.6 0 1.3.6 1.5.2.1.5.1.8.1l4.8.5c.2-.1.3-.2.5-.3l1.9-2.4.9 5.3c.2.7.7 1.4 1.4 1.7l4.2 1.3.6 4.8c.1.5.5 1 1 1.2.8.3 1.7-.1 1.9-.9.1-.2.1-.5.1-.7l-.8-5.9c-.1-.4-.4-.8-.8-1l-2.6-.8 4.3-2.6 5.3 2.3h.1c.8.3 1.7-.1 1.9-.9.3-.8-.1-1.6-.8-1.9l-6-2.7h-.1c-.4-.2-.9-.1-1.3.1l-3.8 2.4zM0 29.9V15.4L14.9 21l1.4 8.9c-.1.1-8.5 0-16.3 0z"/>
</svg>