<svg xmlns="http://www.w3.org/2000/svg" width="30" height="30">
  <path d="M16.1 4.4c1.2.1 2.2-.8 2.3-2 .1-1.2-.8-2.2-2-2.3-1.2-.1-2.2.8-2.3 2-.1 1.1.8 2.2 2 2.3zM14.3 5.2c.4-.3 1-.5 1.5-.5.8.1 1.4.5 1.7 1.1l2.2 4.4 3 2.1c.3.2.4.5.4.9 0 .5-.5.9-1.1.9-.2 0-.3-.1-.4-.1l-3.3-2.3c-.1-.1-.2-.2-.2-.3l-.8-1.6-1 4.3 3.9 4.6c.1.1.1.3.2.5l1 5.5v.3c-.1.8-.8 1.4-1.6 1.3-.7 0-1.2-.6-1.3-1.2l-1-5.2-3.1-3.4-.7 3.3c0 .2-.2.5-.3.6l-3 5.1c-.4.5-.9.8-1.5.8-.8-.1-1.4-.8-1.4-1.6 0-.2.1-.5.2-.6l2.8-4.7L12.9 9l-1.5 1.2-.8 3.7c-.1.5-.5.9-1 .8-.5 0-.9-.5-.9-1.1v-.1l1-4.3c.1-.2.2-.4.3-.5l4.3-3.5zM0 27h30v3H0z"/>
</svg>