<svg xmlns="http://www.w3.org/2000/svg" width="30" height="30">
  <path d="M11.1 7.9c1.5 0 2.7-1.2 2.7-2.7 0-1.5-1.2-2.7-2.7-2.7S8.3 3.7 8.3 5.2c0 1.5 1.2 2.7 2.8 2.7z"/>
  <path d="M28.5 12.5l-8-2.5-3.6 1.9-1.5-1.2 5-5c.3-.4.6-.8.6-1.3 0-.9-.7-1.6-1.6-1.6-.5 0-1 .2-1.2.6l-5.8 5.4-3.7-.4-3-7.4c-.2-.6-.8-1-1.5-1-.8 0-1.7.7-1.6 1.6 0 .3.1.4.1.5L6 11.4l17.7 11.9c.4.2.7.4 1.1.4.9 0 1.6-.7 1.6-1.6 0-.5-.3-1-.7-1.3 0 0-.1 0-.1-.1l-7.9-5.3 3.1-2.2 6.6 2.1c.3.1.5.2.8.2.9.1 1.6-.7 1.6-1.6.2-.7-.5-1.2-1.3-1.4zM0 30V15.8l12.4 6.3L15 30z"/>
  <path fill-rule="evenodd" clip-rule="evenodd"
        d="M22.8 26.6c-5.9-6.2-7.3-3-7.3-3s3-.2 3 2.7c0 2.3-1.6 3.6-2.7 3.8h12.8c-1.3-.5-2.9-.5-5.8-3.5z"/>
</svg>