<svg xmlns="http://www.w3.org/2000/svg" width="30" height="30">
  <g fill="#231F20">
    <path d="M26.9 11.1S27.1 17 21 17c.1-.1-.6-5.4 5.9-5.9zM23.1 19.5c.7-.7 1.7-1.2 2.9-1.2 2.3 0 4.1 1.8 4.1 4.1v.2c-.1.9-.4 2-1 3.3 0 0-1.1 2.2-2.1 3.2l-.1.1c-.4.4-1.1.7-1.7.7-.8 0-1.6-.4-2-1-.4.6-1.2 1-2 1-.7 0-1.3-.3-1.7-.7l-.1-.1c-.9-1-2.1-3.2-2.1-3.2-.7-1.4-.9-2.5-1-3.3v-.2c0-2.3 1.8-4.1 4.1-4.1.9 0 1.9.5 2.7 1.2M5 0h5v2H5zM12 5V4h-1l-1-1H3v1H2v1H1v1L0 7v22h1v1h11v-1h1V6l-1-1zm-6 6H5v1H4v1H2V7h1V6h1V5h2v6z"/>
  </g>
</svg>