<svg xmlns="http://www.w3.org/2000/svg" width="30" height="30">
  <path d="M2.3 19.8l3.8-2.9 3-2.4-2-.6c-1.4-.4-1.9.2-1.9.2L.5 17.8s-1 .7-.1 1.8c-.1 0 .8 1.1 1.9.2zM14.6 9.8c1.5 0 2.7-1.2 2.7-2.7 0-1.5-1.2-2.7-2.7-2.7-1.5 0-2.7 1.2-2.7 2.7 0 1.6 1.2 2.7 2.7 2.7zM27.1 2.2c-.6 0-1.2.2-1.7.6L5.6 18.5c-.5.4-.8.9-1 1.5-.1.5-.1 1 .1 1.4-1 .6-1.7 1.7-1.7 3 0 2 1.6 3.6 3.5 3.6s3.5-1.6 3.5-3.5S8.4 21 6.5 21c-.2 0-.5 0-.7.1-.1-.2-.1-.5 0-.8.1-.4.3-.7.6-1l1.2-1 6.1 2c1.2.4 2.6-.3 3-1.5l.1-.3 1.5 3.3c-.7.6-1.2 1.6-1.2 2.6 0 1.9 1.6 3.5 3.5 3.5s3.5-1.6 3.5-3.5-1.7-3.4-3.6-3.4c-.5 0-.9.1-1.3.3L17.3 17l3-8.7 5.8-4.6c.3-.2.7-.4 1.1-.4 1 0 1.7.8 1.7 1.7 0 .6-.3 1.1-.7 1.4-.2.2-.3.6-.1.8.2.2.5.3.8.1C29.6 6.8 30 6 30 5c0-1.6-1.3-2.8-2.9-2.8zM6.5 22.5c1.1 0 2 .9 2 2s-.9 2-2 2-2-.9-2-2 .9-2 2-2zm16 2c0 1.1-.9 2-2 2s-2-.9-2-2 .9-2 2-2 2 .9 2 2z"/>
</svg>