<svg xmlns="http://www.w3.org/2000/svg" width="30" height="30">
  <path d="M14.3 0h1.4v5.1h-1.4V0zM14.3 24.9h1.3V30h-1.3v-5.1zM24.9 15.4V14H30v1.4h-5.1zM0 15.3v-1.4h5.1v1.4H0zM1.9 7.7l.7-1.2L7 9l-.6 1.1-4.5-2.4zM7.3 2.2l1.1-.7 2.7 4.3-1.1.7-2.7-4.3zM19.4 23.7l1.2-.6 2.5 4.4-1.1.6-2.6-4.4zM23.3 20.2L24 19l4.4 2.5-.6 1.1-4.5-2.4zM8.1 28.2L7 27.6l2.4-4.5 1.2.6-2.5 4.5zM2.2 22.5l-.7-1.1 4.3-2.7.7 1.1-4.3 2.7zM23.8 10.6l-.7-1.2 4.4-2.5.7 1.1-4.4 2.6zM20.4 6.7l-1.2-.6 2.5-4.5 1.2.7-2.5 4.4zM6.7 15c0-4.6 3.7-8.3 8.3-8.3 4.6 0 8.3 3.7 8.3 8.3 0 4.6-3.7 8.3-8.3 8.3-4.6 0-8.3-3.7-8.3-8.3z"/>
</svg>