<svg xmlns="http://www.w3.org/2000/svg" width="30" height="30">
  <path d="M5.2 21.5C13.6 25 20 27.1 29 30c.2 0 .4-.1.4-.3 0-.2-.1-.4-.3-.4C15 24.8 3.8 19.9 1.3 18.7c-.3-.1-.6 0-.7.3-.1.3 0 .5.3.6.6.3 1.3.6 1.9.8l-2 1.5c-.2.3-.1.8.2 1 .2.2.6.1.8 0l3.4-1.4zM22.1 6.6c1.3 0 2.4-1.1 2.4-2.4 0-1.3-1.1-2.4-2.4-2.4-1.3 0-2.4 1.1-2.4 2.4 0 1.3 1 2.4 2.4 2.4z"/>
  <path d="M17 12.4l5.1-2.5 4.7 4.4c.2.2.5.3.8.3.6 0 1.2-.5 1.1-1.2 0-.3-.2-.6-.4-.9l-6.8-6.2c-.2-.2-.5-.4-.8-.5L15.6 4 13.2.5c-.2-.3-.4-.5-.8-.5-.6-.1-1.2.4-1.3 1 0 .3 0 .5.2.7l2.5 3.6c.1.1.3.3.4.3L17 6.8l-4.7 2.4c-.7.4-1.1 1-1.2 1.8v4.3l-4.3 1.9c-.5.2-.8.7-.8 1.2 0 .8.6 1.5 1.4 1.5.3 0 .5 0 .7-.1l5.3-2.4c.4-.2.7-.6.8-1v-2.7l3.7 3.3-.7 5.6v.1c0 .8.6 1.5 1.4 1.6.8 0 1.4-.5 1.5-1.3l.8-6.4v-.1c0-.4-.2-.9-.5-1.1l-3.4-3z"/>
</svg>