<svg xmlns="http://www.w3.org/2000/svg" width="30" height="30">
  <path d="M23 .2c-1.4 1.6-3.5 3.5-6.4 4.6-5.1 2-9.5 2.7-9.5 2.7h.1l-5.1.9C1.3 8.5.7 9.2.9 10c.1.7.7 1.2 1.4 1.2h.2l5.2-.8h.1v.1l-.1.1C4 12.2.9 14 .7 14.1c-.7.4-.9 1.3-.5 2 .3.5.8.7 1.3.7.2 0 .5-.1.7-.2 0 0 3.4-2 7.4-3.6h.1c.1 0 .1.1.1.1-2.2 1.3-4.7 3.3-6.5 6.2-.4.7-.2 1.6.4 2 .2.2.5.2.8.2.5 0 .9-.2 1.2-.7 1.1-1.8 2.5-3.1 4-4.2 0 0 3.8-3.3 7.7-2.6 3.9.7 2.4 3.7 2.2 5.4-.3 1.7.6 2.6 1.4 2.9.2.1.3.1.4.1.5 0 .6-.3.6-.5 0-.1.1-.2.1-.3 2-7.7 5.1-13.2 8-17L23 .2zM22.4 27.4H21l-2.4-2.1-2.4 2.1h-1.4L11 23.9l-3.9 3.5H5.7l-2.4-1.7-2.4 2.6v1.5h27.8v-1.5l-3.4-4.6z"/>
</svg>