<svg xmlns="http://www.w3.org/2000/svg" width="30" height="30">
  <path d="M15.3 19.9c-.3.1-.6.2-.9.2-.3 0-.7 0-1-.1l-3.5 8.1c-.3.7-1.2 1-2 .6s-1.1-1.4-.8-2.1l4.3-9.5H17v-1.4l2.8-1.3c.7-.4 1.7.3 1.9 1l1.4 5.5c.2.8-.3 1.6-1.1 1.8-.8.2-1.6-.3-1.8-1.1l-.9-3.6-4 1.9zM17.9 14.2C24 11.2 26.3.9 26.3 0h-.8c-.3 2.2-2.9 10.8-7.6 13.3v.9z"/>
  <path d="M6.7 11.9c.3.5 1 .7 1.5.5l3.2-1.3V16H17v-5.6l5-7.9c.4-.6.2-1.3-.4-1.7-.6-.4-1.3-.2-1.7.4L15.7 8h-2.5c-.2 0-.3 0-.5.1L8.2 9.7 6 6.3c-.4-.6-1.2-.7-1.7-.4-.6.4-.8 1.2-.4 1.8l2.8 4.2z"/>
  <path d="M13.8 7.5c1.2 0 2.2-1 2.2-2.2S15 3 13.8 3c-1.2 0-2.2 1-2.2 2.2s1 2.3 2.2 2.3zM17 30v-9.9l-1 .4V30z"/>
</svg>