<svg xmlns="http://www.w3.org/2000/svg" width="30" height="30">
  <path d="M3 14.4c-.6 0-1.1.5-1.1 1.1s.5 1.1 1.1 1.1c.6 0 1.1-.5 1.1-1.1s-.5-1.1-1.1-1.1zM18.9 5c1.4 0 2.5-1.1 2.5-2.5S20.3 0 18.9 0s-2.5 1.1-2.5 2.5S17.6 5 18.9 5zM29.6 27.1l-4-4.8-1.3-7.4-.2-.8s-.5-2.3-.9-4.1c.6.4 1.2.7 1.2.7 0 .1 2.1 4.1 2.1 4.1.2.3.4.5.7.6.3.1.7.1 1-.1.3-.2.5-.4.6-.7.1-.3.1-.7-.1-1l-2.3-4.4s-.1-.2-.2-.3c-.2-.2-.5-.4-.5-.4L21.3 6c-.6-.3-1.2-.4-1.8-.3-.3.1-.5.2-.8.3 0 0-1 .4-1.6 1.8l-2.3 4.6s-3.5.7-3.6.7h-.1l-3.3-2.3c-.8-.4-.9-2-.9-2-.1-1.1-.7-2.1-1.6-2.8-.9-.6-2-.9-3-.7-.7.1-1.4.5-1.8 1.1-.3.4-.5 1-.5 1.5v.5c.2 1 .8 1.9 1.6 2.5.9.6 1.9.9 2.9.7h.2s1.5-.5 2.2 0c0 0 2.5 1.7 3.1 2.2.1.2 0 .4 0 .7v.2c.1.7.8 1.1 1.5 1l4.4-.8s.4-.1.5-.2c.2-.1.4-.4.4-.4l1.1-2.3s.8 3.7.8 3.8c-.1.1-3.6 3.8-3.6 3.8l-.1.1c-.3.3-.5.7-.5 1.2v7.8c0 .8.7 1.5 1.5 1.5s1.5-.7 1.5-1.5v-6.5c.3-.3 3-3.1 3.7-3.9.1.4.8 4.4.8 4.4.1.3.2.7.5.9l4.8 5.7c.3.3.6.5 1 .5s.8-.1 1.1-.4c.3-.3.5-.7.5-1.2.1-.5-.1-.8-.3-1.1zM5.7 10c-.3.4-.7.6-1.2.7-.7.1-1.5-.1-2.2-.6-.7-.4-1.1-1.1-1.2-1.8v-.4c0-.4.1-.7.3-1C2 6 3.5 6 4.7 6.8c1.2.9 1.6 2.3 1 3.2z"/>
</svg>