<svg xmlns="http://www.w3.org/2000/svg" width="30" height="30">
  <path d="M20.1 6.1v1.8c0 .5.4 1.2.9 1.2h5.2c.5-.1.8-.8.8-1.3V6.1h-6.9zM4 9h4.8c.5 0 .9-.7.9-1.2V6.1H3v1.8C3 8.3 3.5 9 4 9zM9.7 5c0-.5.6-2 5.3-2 4.8 0 5 1.5 5 2 0 .1 7 .1 7 0 0-.9-1.6-5-12.1-5C4.3 0 3 4.1 3 5c0 .1 6.7.1 6.7 0zM4 14H2c-.6 0-1-.4-1-1v-1c0-.6.4-1 1-1h2c.6 0 1 .4 1 1v1c0 .6-.4 1-1 1zM7 19H5c-.6 0-1-.4-1-1v-1c0-.6.4-1 1-1h2c.6 0 1 .4 1 1v1c0 .6-.4 1-1 1zM13 19h-2c-.6 0-1-.4-1-1v-1c0-.6.4-1 1-1h2c.6 0 1 .4 1 1v1c0 .6-.4 1-1 1zM19 19h-2c-.6 0-1-.4-1-1v-1c0-.6.4-1 1-1h2c.6 0 1 .4 1 1v1c0 .6-.4 1-1 1zM25 19h-2c-.6 0-1-.4-1-1v-1c0-.6.4-1 1-1h2c.6 0 1 .4 1 1v1c0 .6-.4 1-1 1zM10 14H8c-.6 0-1-.4-1-1v-1c0-.6.4-1 1-1h2c.6 0 1 .4 1 1v1c0 .6-.4 1-1 1zM16 14h-2c-.6 0-1-.4-1-1v-1c0-.6.4-1 1-1h2c.6 0 1 .4 1 1v1c0 .6-.4 1-1 1zM22 14h-2c-.6 0-1-.4-1-1v-1c0-.6.4-1 1-1h2c.6 0 1 .4 1 1v1c0 .6-.4 1-1 1zM28 14h-2c-.6 0-1-.4-1-1v-1c0-.6.4-1 1-1h2c.6 0 1 .4 1 1v1c0 .6-.4 1-1 1zM4 24H2c-.6 0-1-.4-1-1v-1c0-.6.4-1 1-1h2c.6 0 1 .4 1 1v1c0 .6-.4 1-1 1zM10 24H8c-.6 0-1-.4-1-1v-1c0-.6.4-1 1-1h2c.6 0 1 .4 1 1v1c0 .6-.4 1-1 1zM16 24h-2c-.6 0-1-.4-1-1v-1c0-.6.4-1 1-1h2c.6 0 1 .4 1 1v1c0 .6-.4 1-1 1zM22 24h-2c-.6 0-1-.4-1-1v-1c0-.6.4-1 1-1h2c.6 0 1 .4 1 1v1c0 .6-.4 1-1 1zM28 24h-2c-.6 0-1-.4-1-1v-1c0-.6.4-1 1-1h2c.6 0 1 .4 1 1v1c0 .6-.4 1-1 1zM5 27h20v3H5z"/>
</svg>