<svg xmlns="http://www.w3.org/2000/svg" width="30" height="30">
  <path fill="#231F20"
        d="M1 1h28v11L1 3V1zm26 22h2v6h-2v-6zm-1 0h1v2h-1v-2zm-3-4h3v6h-3v-6zm-2 2h1v6h-1v-6zm1 5h4v1h-4v-1zm2.5-8c.8 0 1.5-.7 1.5-1.5s-.7-1.5-1.5-1.5-1.5.7-1.5 1.5.7 1.5 1.5 1.5zM17 20h2v6h-2v-6zm-1 0h1v2h-1v-2zm-3-4h3v6h-3v-6zm-2 2h1v6h-1v-6zm1 5h4v1h-4v-1zm2.5-8c.8 0 1.5-.7 1.5-1.5s-.7-1.5-1.5-1.5-1.5.7-1.5 1.5.7 1.5 1.5 1.5zM7 17h2v6H7v-6zm-1 0h1v2H6v-2zm-3-4h3v6H3v-6zm-2 2h1v6H1v-6zm1 5h4v1H2v-1zm2.5-8c.8 0 1.5-.7 1.5-1.5S5.3 9 4.5 9 3 9.7 3 10.5 3.7 12 4.5 12z"/>
</svg>