<svg xmlns="http://www.w3.org/2000/svg" width="30" height="30">
  <path d="M28.4 19.4v-2.3l-13.8 6.2v2.4l2.4-1.1V30h13v-2H19v-4.3zM22.2 3H1.4c-.3 0-.5-.2-.5-.4V.4c0-.2.2-.4.5-.4h20.8c.2 0 .4.2.4.4v2.2c0 .2-.2.4-.4.4zM18.8 9H3.1c-.2 0-.4-.2-.4-.4V6.4c0-.2.2-.4.4-.4h15.6c.2 0 .4.2.4.4v2.2c.1.2-.1.4-.3.4zM15.5 15H3.7c-.2 0-.4-.2-.4-.4v-2.2c0-.2.2-.4.4-.4h11.7c.2 0 .4.2.4.4v2.2c.1.2-.1.4-.3.4zM10.8 21H2.5c-.2 0-.4-.2-.4-.4v-2.2c0-.2.2-.4.4-.4h8.3c.2 0 .4.2.4.4v2.2c0 .2-.2.4-.4.4zM5.9 27h-5c-.2 0-.4-.2-.4-.4v-2.2c0-.2.2-.4.4-.4h5c.2 0 .4.2.4.4v2.2c.1.2-.1.4-.4.4z"/>
</svg>