<svg xmlns="http://www.w3.org/2000/svg" width="30" height="30">
  <path d="M9 21.5C9 22.9 7.9 24 6.5 24S4 22.9 4 21.5 5.1 19 6.5 19 9 20.1 9 21.5zM6.5 20c-.8 0-1.5.7-1.5 1.5S5.7 23 6.5 23 8 22.3 8 21.5 7.3 20 6.5 20zM26 21.5c0 1.4-1.1 2.5-2.5 2.5S21 22.9 21 21.5s1.1-2.5 2.5-2.5 2.5 1.1 2.5 2.5zM23.5 20c-.8 0-1.5.7-1.5 1.5s.7 1.5 1.5 1.5 1.5-.7 1.5-1.5-.7-1.5-1.5-1.5z"/>
  <path d="M27 16l-1-5h-8l-1 1v5h-1L6 6H3v7c.6 0 1 .4 1 1s-.4 1-1 1-1-.4-1-1H1c0 1.1.9 2 2 2s2-.9 2-2c0-.7-.4-1.4-1-1.7V7.4l7 9.6H1v4h2.1c.2-1.7 1.7-3 3.4-3s3.2 1.3 3.4 3H20c.2-1.7 1.7-3 3.4-3s3.2 1.3 3.4 3H29v-3l-2-2zm-8 0v-3l1-1h5l1 4h-7z"/>
</svg>