<svg xmlns="http://www.w3.org/2000/svg" width="30" height="30">
  <path d="M28 2H15v26h2V12h11v16h2V2h-2zm0 7H17V8h11v1zm0-2H17V6h11v1zm0-2H17V4h11v1zM7.6 6.3c1.1 0 2-.9 2-2s-.9-2-2-2-2 .9-2 2 .9 2 2 2zM4.2 6.6c.1-.3-.1-.6-.4-.7l-1.7-.4c-.3-.1-.6.1-.7.4L0 11.7c-.1.3.1.6.4.7l1.7.4c.3.1.6-.1.7-.4l1.4-5.8zM.7 26.1v.3c0 .8.6 1.4 1.4 1.4.6 0 1.2-.4 1.4-1l2.4-10 2.3 10c.1.6.7 1.1 1.4 1.1.8 0 1.4-.6 1.4-1.4v-.3L7.8 12.8l.2-1.2.2.9c.2.6.8.7.8.7l3.3.8h.2c.5 0 1-.4 1-1 0-.5-.3-.8-.7-.9l-2.8-.7-.9-3.1C8.7 6.5 7 6.6 7 6.6c-1.6 0-2 1.7-2 1.7L.7 26.1z"/>
</svg>