<svg xmlns="http://www.w3.org/2000/svg" width="30" height="30">
  <path d="M13.5 18c-1.4 0-2.5 1.1-2.5 2.5s1.1 2.5 2.5 2.5 2.5-1.1 2.5-2.5-1.1-2.5-2.5-2.5zm0 4c-.8 0-1.5-.7-1.5-1.5s.7-1.5 1.5-1.5 1.5.7 1.5 1.5-.7 1.5-1.5 1.5z"/>
  <path d="M13.5 17c1.9 0 3.5 1.6 3.5 3.5v.5h13c0-.5-.4-1-1-1h-3v-9c0-2.7-1.7-5-4.5-5H4.9C2.2 6 0 8.3 0 11v6.3c0 2 1.6 3.7 3.6 3.7H10v-.5c0-1.9 1.6-3.5 3.5-3.5zm4.5-7c0-.6.4-1 1-1h3c.6 0 1 .4 1 1v2c0 .6-.4 1-1 1h-3c-.6 0-1-.4-1-1v-2zM4 12v-2c0-.6.4-1 1-1h7c.6 0 1 .4 1 1v2c0 .6-.4 1-1 1H5c-.6 0-1-.4-1-1z"/>
</svg>