<svg xmlns="http://www.w3.org/2000/svg" width="30" height="30">
  <g fill="#231F20">
    <path d="M11 4.9c.1-.4-.2-.4-.5-.4l-2-.5c-.4-.1-.7.1-.8.5L6 11.3c-.1.4.1.7.5.8l2 .5c.4.1.5.2.6-.2L11 4.9M20 29.4c0 .3.2.6.5.6s.5-.2.5-.5L25 8c0-.3-.2-.5-.5-.5s-.5.2-.5.5l-4 21.4zM7.1 28v.3c0 .9.7 1.7 1.7 1.7.8 0 1.4-.5 1.6-1.2L13.2 17l2.7 11.7c.2.7.8 1.3 1.6 1.3.9 0 1.7-.7 1.7-1.7v-.4l-3.7-15.6.3-1.4.2 1.1c.2.7.9.8.9.8l3.8 1h.2c.6 0 1.1-.5 1.1-1.1 0-.5-.4-1-.9-1.1l-3.3-.8-.9-3.7C16.6 5.8 15 6 15 6c-2.6 0-2.9 1.1-2.9 1.1L7.1 28z"/>
    <circle cx="15.5" cy="2.5" r="2.5"/>
  </g>
</svg>