<svg xmlns="http://www.w3.org/2000/svg" width="30" height="30">
  <path d="M30 2.8V1.7L0 13.1v1zM13.2 6.8c.9 0 1.6-.7 1.6-1.6 0-.9-.7-1.6-1.6-1.6-.9 0-1.6.7-1.6 1.6-.1.8.7 1.6 1.6 1.6zM17.1 5.3c.9 0 1.6-.7 1.6-1.6 0-.9-.7-1.7-1.6-1.7-.9 0-1.6.7-1.6 1.6-.1 1 .7 1.7 1.6 1.7zM24.5 15H16V9l-1 .4V15H7.5c-.3 0-.5.2-.5.5v12c0 .3.2.5.5.5h17c.3 0 .5-.2.5-.5v-12c0-.3-.2-.5-.5-.5zM12 20.5c0 .3-.2.5-.5.5h-3c-.3 0-.5-.2-.5-.5v-3c0-.3.2-.5.5-.5h3c.3 0 .5.2.5.5v3zm6 0c0 .3-.2.5-.5.5h-3c-.3 0-.5-.2-.5-.5v-3c0-.3.2-.5.5-.5h3c.3 0 .5.2.5.5v3zm6 0c0 .3-.2.5-.5.5h-3c-.3 0-.5-.2-.5-.5v-3c0-.3.2-.5.5-.5h3c.3 0 .5.2.5.5v3z"/>
</svg>