<svg xmlns="http://www.w3.org/2000/svg" width="30" height="30">
  <path fill="#231F20"
        d="M24.1 4.8c1.3 0 2.4-1.1 2.4-2.4S25.4 0 24.1 0s-2.4 1.1-2.4 2.4 1 2.4 2.4 2.4zm-6.6 5.8h-3.6c-1.4 0-1.4 1.9 0 1.9H18c.3 0 .6-.2.9-.5L21 9v19c0 .7.5 1.5 1.3 1.5s.7-.8.7-1.5V17h2v11c0 .7.1 1.5.9 1.5S27 28.7 27 28V9h1l.1 6.8c0 1.4 1.9 1.4 1.9 0V8.5c0-1.6-1.2-3.2-3.1-3.2h-4.4c-1.1 0-2 .6-2.6 1.4l-2.4 3.9zM3 22.7c2.2 0 3.9 1.8 3.9 3.9v2.7h4.6l4.2-11.8v-4h-14v9.2H3zm-3 3.9c0-1.6 1.3-3 3-3s3 1.3 3 3c0 1.6-1.3 3-3 3s-3-1.4-3-3zm3 1.3c.7 0 1.3-.6 1.3-1.3 0-.7-.6-1.3-1.3-1.3s-1.3.6-1.3 1.3c0 .7.6 1.3 1.3 1.3zM13.1 7.4l-.6.3-.3-.5-.5.3-.3-.5-.4.1-.3-.5-.6.3-.2-.6-.6.3-.2-.6-1.7 4.7c-.1.4.1.8.5.9l2.7.9c.4.1.8-.1.9-.5l1.6-4.6zm-2.3-4.8L10 2 .9 12.8l.8.6 9.1-10.8z"/>
</svg>