<svg xmlns="http://www.w3.org/2000/svg" width="30" height="30">
  <path d="M5 10c0-1.1.9-2 2-2h16c1.1 0 2 .9 2 2v5.3l2 2V2.2C27 1 26 0 24.8 0H5.2C4 0 3 1 3 2.2v15.1l2-2V10z"/>
  <path d="M24 15.7V10c0-.5-.5-1-1-1H7c-.5 0-1 .5-1 1v5.8l-.9.9-2.1 2v6.8h1.4V28c0 1.1.9 2 2 2s2-.9 2-2v-2.6h13.3V28c0 1.1.9 2 2 2s2-.9 2-2v-2.6H27v-6.8l-2.1-2.1-.9-.8zM6.5 22.2c-.9 0-1.7-.7-1.7-1.7 0-.9.7-1.7 1.7-1.7.9 0 1.7.7 1.7 1.7 0 .9-.8 1.7-1.7 1.7zM20 23H10v-4c0-.4.6-1 1-1h8c.4 0 1 .6 1 1v4zM7 16v-5c.1-.6.3-1 1-1h14c.7 0 .9.4 1 1v5H7zm16.5 6.2c-.9 0-1.7-.7-1.7-1.7 0-.9.7-1.7 1.7-1.7.9 0 1.7.7 1.7 1.7 0 .9-.8 1.7-1.7 1.7z"/>
</svg>