<svg xmlns="http://www.w3.org/2000/svg" width="30" height="30">
  <path d="M21.8 8.6c1.3.2 2.6-.6 2.8-2 .2-1.3-.6-2.6-2-2.8-1.3-.2-2.6.6-2.8 2-.2 1.3.6 2.5 2 2.8z"/>
  <path d="M15 14.1l5.5-1.6 3.9 5.2c.2.2.4.4.8.5.6.1 1.2-.3 1.3-1 .1-.3 0-.7-.2-.9l-5.6-7.4c-.2-.3-.4-.5-.7-.7l-4.9-2.8V.7c-.1-.3-.4-.5-.7-.6-.6-.2-1.3.2-1.4.8-.1.3-.1.5 0 .8v4.7c.1.2.2.3.4.4L16 8.5 11 10c-.7.3-1.3.8-1.5 1.5l-.7 4.2L4.1 17c-.5.1-.9.6-1.1 1.1-.2.8.3 1.6 1.1 1.8.3.1.5 0 .7 0l5.7-1.4c.4-.1.8-.4.9-.9l.5-2.6 3.1 3.9-1.7 5.4v.1c-.2.8.3 1.6 1.1 1.8.8.2 1.5-.3 1.8-1l1.9-6.2v-.1c.1-.4 0-.9-.3-1.2L15 14.1z"/>
  <path fill-rule="evenodd" clip-rule="evenodd" d="M0 30h30v-4l-5.8 2.5L19 26l-3.5 2.6L11 26l-5.3 2.7L0 26z"/>
</svg>