<svg xmlns="http://www.w3.org/2000/svg" width="30" height="30">
  <path fill="#231F20"
        d="M30 24c-.6 0-1.3-.3-1.8-.6-.6-.3-1.2-.4-1.9-.4s-1.3.2-1.9.4c-.6.2-1.2.6-1.9.6s-1.3-.3-1.8-.6c-.6-.3-1.2-.4-1.9-.4s-1.3.2-1.9.4c-.6.3-1.2.6-1.9.6s-1.3-.3-1.8-.6c-.6-.3-1.2-.4-1.9-.4s-1.3.2-1.9.4c-.6.3-1.2.6-1.9.6s-1.3-.3-1.8-.6c-.6-.2-1.3-.4-2-.4s-1.3.2-1.9.4c-.5.3-1.1.6-1.8.6v-2.8c.7 0 1.3-.1 1.8-.4.6-.3 1.2-.4 1.9-.4s1.3.2 1.9.4c.6.3 1.2.4 1.8.4.7 0 1.3-.1 1.8-.4.6-.3 1.2-.4 1.9-.4s1.3.2 1.9.4c.6.3 1.2.4 1.8.4s1.3-.1 1.9-.4c.6-.3 1.2-.4 1.9-.4s1.3.2 1.9.4c.6.3 1.2.4 1.8.4s1.3-.1 1.9-.4c.6-.3 1.2-.4 1.9-.4s1.3.2 1.9.4c.6.3 1.2.4 1.8.4L30 24zM26.3 13.4c.3-.1.5-.5.5-.8v-.9h.9v-3c0-.7-.4-1.2-1.1-1.4l-1.1-2.6c-.2-.4-.5-.6-1-.6H19c-.4 0-.8.3-1 .6l-1.1 2.6c-.6.2-1.1.7-1.1 1.4v3H17v.9c0 .4.2.7.5.8h-5.1c.3-.1.5-.5.5-.8v-.9H14v-3c0-.7-.4-1.2-1.1-1.4l-1.1-2.6c-.2-.4-.5-.6-1-.6H5.3c-.4 0-.8.3-1 .6l-1 2.5c-.6.2-1.1.7-1.1 1.4v3h.9v.9c0 .4.2.7.5.8H0v2.3h2.5L4.6 18c.4.1.7.2 1 .3.6.3 1.2.4 1.8.4.7 0 1.3-.1 1.8-.4.6-.3 1.2-.4 1.9-.4s1.3.2 1.9.4c.6.3 1.2.4 1.8.4s1.3-.1 1.9-.4c.6-.3 1.2-.4 1.9-.4s1.3.2 1.9.4c.6.3 1.2.4 1.8.4s1.3-.1 1.9-.4c.4-.2.8-.3 1.3-.4l2-2.4H30v-2.3h-3.7zm-21.8 0c.3-.2.5-.5.5-.9v-.9h6.2v.9c0 .4.2.7.5.8l-7.2.1zm13.8 0c.3-.1.5-.5.5-.8v-.9H25v.9c0 .4.2.7.5.8h-7.2zm-15-4.3c0-.5.4-.9.9-.9s.9.4.9.9-.4.9-.9.9-.9-.4-.9-.9zm8.6 1c-.5 0-.9-.4-.9-.9s.4-.9.9-.9.9.4.9.9c.1.4-.4.9-.9.9zM4.2 7.2L5.1 5c0-.1.1-.2.3-.2h5.4c.1 0 .2.1.3.2l.9 2.2H4.2zm13 1.9c0-.5.4-.9.9-.9s.9.4.9.9-.4.9-.9.9-.9-.4-.9-.9zm8.6 1c-.5 0-.9-.4-.9-.9s.4-.9.9-.9.9.4.9.9c0 .4-.4.9-.9.9zm-7.7-2.9l.9-2.3c0-.1.1-.2.3-.2h5.4c.1 0 .2.1.3.2l.9 2.2h-7.8z"/>
</svg>