<svg xmlns="http://www.w3.org/2000/svg" width="30" height="30">
  <path d="M12.1 3.8c1.3-.4 2.7.3 3.2 1.6.4 1.3-.3 2.7-1.7 3.1-1.3.4-2.7-.3-3.2-1.6-.3-1.3.4-2.7 1.7-3.1zM5 .1c1.3-.4 2.7.3 3.2 1.6.3 1.3-.4 2.7-1.7 3.2-1.3.4-2.8-.3-3.2-1.6C2.9 1.9 3.6.5 5 .1z"/>
  <path d="M5.6 10.9c-.7-.1-1.4.5-1.4 1.2-.1.7.5 1.4 1.2 1.4h4.3l2.4-.8 1.2 9.5c0 .2 2.7 7.1 2.7 7.1.4.7 1.4.9 2.1.5.7-.4.9-1.4.5-2L16 20.1s1.9 1.3 4 2.7c3.5 1.3 4.7 1.7 4.7 1.7.8.3 1.6 0 2-.8.3-.8 0-1.6-.8-2l-4.5-1.6-3-2-1-7.3s2.4-1.6 3.5-2.3c0 0 1.1-.6.1-2.5-1.3-2.2-2.4-4.1-2.4-4.1-.3-.6-1.1-.9-1.8-.6-.6.3-.9 1.1-.6 1.7l2.3 3.8-2.9 2-6.5 2.1H5.6z"/>
</svg>