<svg xmlns="http://www.w3.org/2000/svg" width="30" height="30">
  <path d="M9.8 12.3h2.3c.5 0 .9-.4.9-.9V6c0-.5-.4-.9-.9-.9h-1.6-.7c-.9 0-5.5 1.7-5.5 12.4C4.3 28.3 8.8 30 9.7 30H12c.5 0 .9-.4.9-.9v-5.3c0-.5-.4-.9-.9-.9H9.7c-.5 0-1.4-.4-1.4-5.3 0-4.9.9-5.3 1.5-5.3zM14.5 7.2c.3.4.5.8.5 1.3s-.2.9-.5 1.3l1 .8c.5-.6.8-1.4.8-2.1 0-.8-.3-1.5-.8-2.1l-1 .8zM17.7 13c1.1-1.2 1.7-2.8 1.7-4.4 0-1.6-.6-3.2-1.7-4.4l-1 .9c.9 1 1.4 2.2 1.4 3.5 0 1.3-.5 2.6-1.4 3.5l1 .9z"/>
  <path d="M19.9 15.4c1.7-1.8 2.6-4.2 2.6-6.6 0-2.5-.9-4.8-2.6-6.6L19 3c1.5 1.6 2.3 3.6 2.3 5.8 0 2.2-.8 4.2-2.3 5.8l.9.8z"/>
  <path d="M22.2 17.8c2.3-2.4 3.6-5.6 3.6-8.9 0-3.3-1.3-6.5-3.6-8.9l-.9.9c2.1 2.2 3.2 5 3.2 8s-1.1 5.8-3.2 8l.9.9z"/>
</svg>