<svg xmlns="http://www.w3.org/2000/svg" width="30" height="30">
  <circle cx="15" cy="2.9" r="2.9"/>
  <path d="M29 30c-.6 0-1.2-.1-1.7-.4-.5-.3-1.1-1.1-1.8-1.1-.6 0-1.2.8-1.8 1.1-.5.3-1.1.4-1.7.4-.6 0-1.2-.1-1.7-.4-.5-.3-1.1-1.1-1.8-1.1-.6 0-1.2.8-1.8 1.1-.5.3-1.1.4-1.7.4-.6 0-1.2-.1-1.7-.4-.5-.3-1.1-1.1-1.8-1.1-.6 0-1.2.8-1.8 1.1-.5.3-1.1.4-1.7.4-.6 0-1.2-.1-1.7-.4-.5-.3-1.1-1.1-1.8-1.1-.6 0-1.2.8-1.8 1.1-.5.3-1.1.4-1.7.4v-2.6c.6 0 1.2-.1 1.7-.4.5-.2 1.1-1 1.8-1 .6 0 1.2.8 1.8 1.1.5.2 1.1.4 1.7.4.6 0 1.2-.1 1.7-.4.5-.3 1.2-1.1 1.8-1.1.6 0 1.2.8 1.8 1.1.5.2 1.1.4 1.7.4.6 0 1.2-.1 1.7-.4.5-.3 1.1-1.1 1.8-1.1.6 0 1.2.8 1.8 1.1.5.2 1.1.4 1.7.4.6 0 1.2-.1 1.7-.4.5-.3 1.1-1.1 1.8-1.1.6 0 1.2.8 1.8 1.1.5.2 1.1.4 1.7.4V30zM18.1 25c-.5 0-.9.2-1.3.4s-.8.3-1.3.3v-7.1l2.6-1.7V25z"/>
  <path d="M14.5 25.7c-.4-.1-.8-.2-1.2-.4-.4-.2-.9-.3-1.4-.4v-2.2H8.2l-.8-3.5v-.3c0-1.1.6-2.1 1.6-2.5V9.3C9 7.6 10.5 6 12.1 6h5.6C19.6 6 21 7.8 21 9.3V17c0 1.4-2 1.4-2 0v-7h-1v5h-6v-5h-1v6.4c.2.1.4.2.5.3l3 1.9v7.1zM8.4 19h3.3c0-.6-.3-1.3-.8-1.5-.3.8-1.4.8-1.7 0-.5.2-.8.9-.8 1.5z"/>
</svg>