<svg xmlns="http://www.w3.org/2000/svg" width="30" height="30">
  <path d="M14.2 4.9c1.3 0 2.4-1.2 2.4-2.5C16.6 1 15.4 0 14.1 0s-2.4 1.2-2.4 2.5c.1 1.3 1.2 2.4 2.5 2.4zM22.5 12.9L18.9 11 16 6.4c-.5-.6-1.2-1-2.1-1-.6 0-1.2.3-1.6.7l-4.4 4.4c-.1.2-.2.3-.3.6L7 15.9v.2c0 .6.5 1.1 1.1 1.1.6 0 1-.5 1.1-1l.5-4.2 1.5-1.5-1.4 11.6-2.6 5.5c-.1.2-.2.5-.1.7 0 .9.8 1.6 1.7 1.6.6 0 1.2-.4 1.4-1l2.7-6c.1-.2.2-.5.3-.7l.3-2.9 2.8 9.4c.2.7.9 1.2 1.6 1.1.9 0 1.6-.8 1.6-1.7v-.3l-3.9-13 .5-4.2 1.1 1.7.3.3 3.9 2.1c.2.1.3.1.5.1.6 0 1.1-.5 1.1-1.1 0-.3-.2-.6-.5-.8z"/>
</svg>