<svg xmlns="http://www.w3.org/2000/svg" width="30" height="30">
  <path d="M15.7 3.6c1 .1 1.9-.7 2-1.7.1-1-.7-1.9-1.7-2-1-.1-1.9.7-2 1.7-.1 1.1.6 2 1.7 2zM14.1 4.4c.4-.3.8-.4 1.3-.4.6 0 1.1.4 1.5.9l1.8 3.7 2.5 1.7c.2.2.3.4.3.7 0 .5-.4.8-.9.8-.1 0-.2-.1-.4-.1l-2.7-1.9-.2-.2-.7-1.4-.8 3.6 3.2 3.8c.1.1.1.3.2.4l.9 4.6v.2c0 .7-.6 1.2-1.3 1.1-.6 0-1-.5-1.1-1l-.8-4.3-2.6-2.9-.6 2.8c0 .1-.2.4-.2.5L11 21.3c-.2.4-.7.6-1.2.6-.7 0-1.2-.6-1.1-1.3 0-.2.1-.4.2-.5l2.3-3.9 2-8.7-1.3 1-.9 3.2c-.1.4-.5.7-.9.7-.5 0-.8-.4-.8-.9v-.1l.8-3.6c0-.2.1-.3.3-.4l3.7-3zM5 26h2v4H5zM23 26h2v4h-2zM1 23h3v2H1zM6 23h3v2H6zM11 23h3v2h-3zM16 23h3v2h-3zM21 23h3v2h-3zM26 23h3v2h-3z"/>
</svg>