<svg xmlns="http://www.w3.org/2000/svg" width="30" height="30">
  <path d="M10.6 17c-.7.1-1.3-.5-1.4-1.2 0-.7.5-1.3 1.2-1.4.7-.1 1.3.5 1.4 1.2.1.7-.4 1.3-1.2 1.4zM11.7 17.5c-.3-.2-.6-.3-.9-.3-.4 0-.8.3-1 .6l-1.3 2.6-1.8 1.2c-.2.1-.2.3-.2.5 0 .3.3.6.6.5.1 0 .2 0 .3-.1l1.9-1.3c.1 0 .1-.1.1-.2l.5-1 .6 2.6-2.3 2.7c0 .1-.1.2-.1.3L7.5 29v.2c.1.5.5.8 1 .8.4 0 .7-.3.8-.7l.6-3.1 1.9-2 .4 2c0 .1.1.3.2.4l1.8 3c.2.3.5.5.8.4.5 0 .8-.5.8-.9 0-.1-.1-.3-.1-.4L14 25.9l-1.4-6.1.9.7.5 2.2c.1.3.3.5.6.5s.6-.3.5-.6v-.1l-.6-2.6c0-.1-.1-.2-.2-.3l-2.6-2.1z"/>
  <path fill-rule="evenodd" clip-rule="evenodd"
        d="M4.6 13.9c-.5 1.2-.7 1.5-1.1 2.3-.5.9-.8 2-1.3 2.8.1-.5.5-3.2.6-3.8.2-.3.7.2 1.8-1.3zM6.4 12c-.6.1-1.2-1.5-1.2-1 .1.5 1.3 3.3 1.5 3.9.1-.4-.3-1.7-.3-2.9zM3.7 18.1c-.1.6-.7 1.4-.7 1.8.1.4.7 2.3.8 2.9 0-.3 0-3.4-.1-4.7z"/>
  <path d="M27.7 0c-2.9 1.8-3.4.6-5.2 1.7-1 .6-2.3.8-3.5 1-2 .3-1.4 1.2-3.9 1.4-2.1.1-2.8-.3-5 1.2-1.6 1-1.3 1.3-3.2 1.6-2.6.2-4.3.6-4.1 3.5.1.8.4 1.5.2 3.4-.2 1.2.9.8 1-1.1.2-1.8.3-2.1 1.1-2.3.7-.1 1.3 1.4 1.4.7.4-1.1 1.7-1.1 2.5-.9.8.2 1-.8 2-1.1l10.4 7.7v13.1h6.1c.1 0 .3-29.9.2-29.9zm-6.2 13.5l-7.2-5.4 7.2-2.5v7.9z"/>
</svg>