<svg xmlns="http://www.w3.org/2000/svg" width="30" height="30">
  <path d="M17.9 26.5c.2 0 .4-.1.6-.1.7 0 1.3.2 1.9.4.5.2 1.2.4 1.8.4.6 0 1.3-.1 1.8-.4.6-.3 1.2-.4 1.9-.4s1.3.2 1.9.4c.5.2 1.2.4 1.8.4V30c-.6 0-1.3-.1-1.8-.4-.6-.3-1.2-.4-1.9-.4s-1.3.2-1.9.4c-.5.2-1.2.4-1.8.4-.6 0-1.3-.1-1.8-.4-.6-.3-1.2-.4-1.9-.4s-1.3.2-1.9.4c-.5.2-1.2.4-1.8.4s-1.3-.1-1.8-.4c-.6-.3-1.2-.4-1.9-.4s-1.3.2-1.9.4c-.5.3-1.1.4-1.7.4-.6 0-1.3-.1-1.8-.4-.6-.3-1.2-.4-1.9-.4s-1.3.2-1.9.4c-.5.3-1.1.4-1.8.4v-2.7c.6 0 1.3-.1 1.8-.4.6-.3 1.2-.4 1.9-.4s1.3.2 1.9.4c.5.2 1.2.4 1.8.4.6 0 1.3-.1 1.8-.4.3-.1.7-.3 1-.3l17.2-3.1c.6-.1 1.3-.5 1.6-1.2.1-.1.2-.2.4-.2.3 0 .5.3.5.5 0 .4-.3 1.7-2.2 2.1l-9.9 1.8zM3 5c1.4 0 2.5-1.1 2.5-2.5S4.3 0 3 0C1.6 0 .5 1.1.5 2.5.5 3.8 1.6 5 3 5z"/>
  <path d="M10.2 25c.1.5.8 1.1 1.5 1.1.9 0 1.6-.7 1.6-1.6v-.3l-1.9-8.1c-.2-.5-.7-1-1.2-1.2l-2.8-1.7-1.3-5.4h7.8c.6 0 1.2-.5 1.2-1.2s-.5-1.2-1.2-1.2H2.7C1.5 5.5 1 6.3 1.1 7l1.6 7.3c.1.7.6 1.3 1.2 1.6l4.7 2.7 1.6 6.4zM15.8 6.9h13.8v.9H15.8z"/>
</svg>