<svg xmlns="http://www.w3.org/2000/svg" width="30" height="30">
  <path fill-rule="evenodd" clip-rule="evenodd"
        d="M5.1 4.1h.3c.1 0 3.7-.9 4.6-1.1.2.6.5 1.1 1.1 1.5v1.8h2.5V4.4c.4-.4.7-.8.9-1.4 1.1.3 4.2 1 4.3 1.1h.3c1 0 1.8-.8 1.8-1.8S20.1.5 19.1.5h-.3l-4.4 1C14.1.6 13.3 0 12.2 0c-1 0-1.9.7-2.2 1.6L5.3.5H5c-1 0-1.8.8-1.8 1.8s.9 1.8 1.9 1.8zM24 20.6s-2.8 5.4-2.8 5.6c-.1.3-.2.6-.2 1 0 1.6 1.5 2.8 3 2.8 1.6 0 3-1.3 3-2.8 0-.6-.2-1.1-.2-1.1L24 20.6zM27 18c0-.9-.1-2.3-.1-3.3 0-4.4-4.3-4.3-4.3-4.3H18V8.8l-3-1.5h-5L7 8.8v1.6H2V16h19v2h-1v2h8v-2h-1z"/>
</svg>