<svg xmlns="http://www.w3.org/2000/svg" width="30" height="30">
  <path d="M29.5 30c-.6 0-1.2-.1-1.8-.4-.6-.3-1.2-.4-1.8-.4-.7 0-1.3.2-1.8.4s-1.2.4-1.8.4c-.6 0-1.2-.1-1.8-.4-.6-.3-1.2-.4-1.8-.4-.6 0-1.3.2-1.8.4-.7.3-1.3.4-1.9.4s-1.2-.1-1.8-.4c-.6-.3-1.2-.4-1.8-.4-.6 0-1.3.2-1.8.4-.6.3-1.2.4-1.8.4-.6 0-1.2-.1-1.8-.4-.6-.3-1.2-.4-1.8-.4-.6 0-1.3.2-1.8.4-.6.3-1.2.4-1.9.4v-2.7c.6 0 1.2-.1 1.8-.4.6-.3 1.2-.4 1.8-.4.7 0 1.3.2 1.8.4s1.1.4 1.8.4c.6 0 1.2-.1 1.8-.4.6-.3 1.2-.4 1.8-.4.7 0 1.3.2 1.8.4s1.1.4 1.8.4 1.2-.1 1.8-.4c.6-.3 1.2-.4 1.8-.4.7 0 1.3.2 1.8.4s1.2.4 1.8.4c.6 0 1.2-.1 1.8-.4.6-.3 1.2-.4 1.8-.4.6 0 1.3.2 1.8.4s1.1.4 1.8.4V30zM17.8 24.5c.3-.1.5-.1.8-.1.7 0 1.3.2 1.8.4s1.2.4 1.8.4c.6 0 1.2-.1 1.8-.4.4-.2.8-.3 1.2-.4-.2-7.2-7.7-13.6-8.1-13.9-.4-.3-.7-1.1-.5-1.9l1.8-5.9c.3-.9.2-2.1-.3-2.5-.1-.2-.7-.3-1 .1l-4.8 5.5c-1.1 1.1-.2 2.3-.2 2.3-1.6-.6-3.6-.2-4.7.3l-4 2c-.4.2-.6.7-.4 1 .7 1.1 2.9 1.1 7.4.6 7.4-.8 7.4 11 7.4 12.5z"/>
</svg>