<svg xmlns="http://www.w3.org/2000/svg" width="30" height="30">
  <g fill="#231F20">
    <path d="M26 26h-1l-3 1h-1l-3-1h-1l-2 .7v.3h-3v-.3l-2-.7H9l-3 1H5l-3-1H1l-1 .3v3l1-.3h1l3 1h1l3-1h1l3 1h1l3-1h1l3 1h1l3-1h1l3 1v-3z"/>
    <path d="M14.6 24l-3.2-3.2c-.2-.2-.4-.3-.8-.3H7.4l-1.5-3.4h1.8s.4 0 .6-.2l2.8-1.3V14c-.1 0-.2-.1-.3-.1s-.2 0-.3.1l-2.7 1.3H4.1v.7H2.4c-.2.3-.4.7-.4 1.2 0 .2 0 .3.1.4l1.8 4.2c.2.7.9 1.2 1.6 1.2h4.9l2.8 2.7c.5.4 1.2.4 1.6-.1.3-.4.3-1.2-.2-1.6zM7 0l5.6 14h.4v1.1l3.5 8.9L27 17.5C26.4 7.6 15.5 1.1 7 0zm18 17l-1-2-4-2h-6v-1h7l3 1 2 2v2h-1zM2 11h2v1h1v2H4v1H2v-1H1v-2h1z"/>
  </g>
</svg>