<svg xmlns="http://www.w3.org/2000/svg" width="30" height="30">
  <path d="M13.7 29.2v-4l-2.2 1.2-1.1-.6v-1.4l3.3-1.9V20l-2.4 1.5v-2.8L9 20v3.7l-1.2.8-1.1-.7v-2.5l-3.5 1.9-1.5-.6V21l3.6-2-2.2-1v-1.4l1.3-.7 3.3 1.9 2.3-1.3h-.1l-2.3-1.3 2.2-1.4-2.3-1.3-3.3 1.9-1.2-.6v-1.4L5.3 11 1.8 9.1V7.5l1.4-.7 3.5 2V6.3l1-.7 1.3.7v3.8l2.3 1.3V8.7l2.4 1.3V7.4l-3.3-1.9V4.2l1.1-.7 2.2 1.2v-4L15 0l1.3.8v4l2.3-1.3 1.2.8v1.2l-3.4 1.9V10l2.3-1.4v2.8l2.4-1.3v-4l1.2-.5 1.2.5v2.6L27 6.8l1.2.8V9l-3.5 2 2.2 1.2v1.4l-1.1.6-3.3-2-2.3 1.5 2.2 1.4-2.3 1.3 2.4 1.2 3.3-1.9 1.1.8v1.3L24.8 19l3.3 2v1.6l-1.4.6-3.3-1.9v2.5l-1.2.7-1.2-.7V20l-2.4-1.4v2.6L16.3 20v2.6l3.3 1.9V26l-1.1.6-2.2-1.2v4L15 30l-1.3-.8zm-.9-14.1l1.2 1.8h2.2l1-1.8-1.1-1.9h-2.2l-1.1 1.9z"/>
</svg>