<svg xmlns="http://www.w3.org/2000/svg" width="30" height="30">
  <path d="M10.5 4.9c-1.4 0-2.4-1.1-2.4-2.5C8.1 1.1 9.2 0 10.5 0 11.9 0 13 1.1 13 2.4c0 1.4-1.1 2.5-2.5 2.5zM21.7 9.8h-3.8l-3.4-3.4-.3-.3c-.5-.4-1.2-.7-1.9-.7H7.7C5.8 5.4 4 7 4 8.6v7.5c0 1.5 2 1.5 2 0V9h1v19.6c0 .8 1 1.4 1.7 1.4.8 0 1.3-.6 1.3-1.4V17h1v11.6c0 .8.6 1.4 1.4 1.4.8 0 1.6-.6 1.6-1.4v-20l2.8 2.8c.2.2.4.3.7.3h4.2c.5 0 1-.4 1-.9-.1-.6-.5-1-1-1z"/>
  <path d="M7.4 12.9l-6 6c-.2.2-.2.4 0 .6.2.2.4.2.6 0l1.4-1.4v1.5l-1.6 1.6c-.1.1-.1.3 0 .4.1.1.3.1.4 0l1.2-1.2v3.7c0 .1.1.2.2.2s.2-.1.2-.2v-1.9l1 1c.1.1.2.1.2 0v-.4l-1-1v-4.4l4-4-.6-.5zM28.7 8.4c.1-.1.1-.3 0-.4-.1-.1-.3-.1-.4 0l-1.6 1.6V8c0-.1-.1-.2-.2-.2s-.2.1-.2.2v1.6l-3.7 3.7h-3.1L23 9.8c.2-.2.2-.5.2-.5V7.6l2.7-2.1h1.9c.1 0 .2-.1.2-.2s-.1-.2-.2-.2H26l1.7-1.4c.1-.1.1-.2 0-.4-.1-.1-.3-.1-.4 0l-2.7 2.1v-3c0-.1-.1-.2-.2-.2s-.2.1-.2.2v3.4l-1.3 1.1V5c0-.2-.1-.3-.3-.3-.2 0-.3.2-.3.3v4l-6.4 6.4.9.8 1.9-1.9h7.9c.2 0 .4-.2.4-.4s-.2-.4-.4-.4h-2.9l1.5-1.5h2.6c.2 0 .3-.1.3-.3 0-.2-.1-.3-.3-.3h-2.1l3-3z"/>
</svg>